%TF.GenerationSoftware,KiCad,Pcbnew,9.0.2*%
%TF.CreationDate,2025-08-18T14:39:33+09:00*%
%TF.ProjectId,CL70_Plate,434c3730-5f50-46c6-9174-652e6b696361,rev?*%
%TF.SameCoordinates,Original*%
%TF.FileFunction,Profile,NP*%
%FSLAX46Y46*%
G04 Gerber Fmt 4.6, Leading zero omitted, Abs format (unit mm)*
G04 Created by KiCad (PCBNEW 9.0.2) date 2025-08-18 14:39:33*
%MOMM*%
%LPD*%
G01*
G04 APERTURE LIST*
%TA.AperFunction,Profile*%
%ADD10C,0.200000*%
%TD*%
G04 APERTURE END LIST*
D10*
X50550062Y-173306330D02*
X50550062Y-173306250D01*
X72868454Y-163399492D02*
X72868430Y-163399492D01*
X76715062Y-94849992D02*
X76715062Y-94850000D01*
X378674979Y-170565292D02*
X378675000Y-170565292D01*
X335629862Y-92949991D02*
X335629862Y-92950000D01*
X212062414Y-174599292D02*
X212062500Y-174599292D01*
X207038424Y-184649292D02*
X207038500Y-184649292D01*
X222362424Y-184649292D02*
X222362500Y-184649292D01*
X245138424Y-184649292D02*
X245138500Y-184649292D01*
X252713484Y-181850492D02*
X252713500Y-181850492D01*
X250162414Y-174599292D02*
X250162500Y-174599292D01*
X154912414Y-174599292D02*
X154912500Y-174599292D01*
X149888424Y-184649292D02*
X149888500Y-184649292D01*
X165212424Y-184649292D02*
X165212500Y-184649292D01*
X187988424Y-184649292D02*
X187988500Y-184649292D01*
X195563484Y-181850492D02*
X195563500Y-181850492D01*
X193012414Y-174599292D02*
X193012500Y-174599292D01*
X306400454Y-170869792D02*
X306400440Y-170869792D01*
X315755954Y-144349492D02*
X315755930Y-144349492D01*
X77689423Y-93625000D02*
G75*
G02*
X76715062Y-94849992I-974361J-224992D01*
G01*
X44150012Y-94850000D02*
X76715062Y-94850000D01*
X42150000Y-96850012D02*
G75*
G02*
X44150012Y-94850000I2000012J0D01*
G01*
X42150000Y-191250000D02*
X42150000Y-96850012D01*
X44149962Y-193250000D02*
G75*
G02*
X42150054Y-191250000I0J1999908D01*
G01*
X54335762Y-193250000D02*
X44149962Y-193250000D01*
X54335762Y-193250000D02*
G75*
G02*
X55039785Y-193539745I0J-1000192D01*
G01*
X56351927Y-194851928D02*
X55039765Y-193539765D01*
X57064262Y-195150000D02*
G75*
G02*
X56351935Y-194851920I100J1000408D01*
G01*
X67103862Y-195150000D02*
X57064262Y-195150000D01*
X67103862Y-195150000D02*
G75*
G02*
X69701931Y-196649995I0J-2999992D01*
G01*
X74898076Y-196650000D02*
G75*
G02*
X69701924Y-196650000I-2598076J1500000D01*
G01*
X74898076Y-196650000D02*
G75*
G02*
X77487677Y-195150000I2598086J-1499992D01*
G01*
X87535786Y-195150000D02*
X77487677Y-195150000D01*
X88242885Y-194857115D02*
G75*
G02*
X87535786Y-195149974I-707023J707023D01*
G01*
X89557184Y-193542815D02*
X88242885Y-194857115D01*
X89557184Y-193542815D02*
G75*
G02*
X90257092Y-193249959I707078J-707077D01*
G01*
X117438762Y-193250000D02*
X90257092Y-193250000D01*
X117438762Y-193250000D02*
G75*
G02*
X118141610Y-193538501I0J-1000392D01*
G01*
X119456448Y-194853324D02*
X118141618Y-193538493D01*
X120167362Y-195150000D02*
G75*
G02*
X119456427Y-194853345I0J1000208D01*
G01*
X134969462Y-195150000D02*
X120167362Y-195150000D01*
X134969462Y-195150000D02*
G75*
G02*
X137567537Y-196650006I0J-2999992D01*
G01*
X142763701Y-196650000D02*
G75*
G02*
X137567549Y-196650000I-2598076J1500000D01*
G01*
X142763701Y-196650000D02*
G75*
G02*
X145361777Y-195150009I2598061J-1499992D01*
G01*
X168498286Y-195150000D02*
X145361777Y-195150000D01*
X169205385Y-194857115D02*
G75*
G02*
X168498286Y-195149974I-707023J707023D01*
G01*
X170519684Y-193542815D02*
X169205385Y-194857115D01*
X170519684Y-193542815D02*
G75*
G02*
X171219592Y-193249959I707078J-707077D01*
G01*
X230548262Y-193250000D02*
X171219592Y-193250000D01*
X230548262Y-193250000D02*
G75*
G02*
X231252285Y-193539745I0J-1000192D01*
G01*
X232564427Y-194851928D02*
X231252265Y-193539765D01*
X233276762Y-195150000D02*
G75*
G02*
X232564435Y-194851920I100J1000408D01*
G01*
X256413262Y-195150000D02*
X233276762Y-195150000D01*
X256413262Y-195150000D02*
G75*
G02*
X259011281Y-196650010I0J-2999892D01*
G01*
X264207451Y-196650000D02*
G75*
G02*
X259011299Y-196650000I-2598076J1500000D01*
G01*
X264207451Y-196650000D02*
G75*
G02*
X266805462Y-195150002I2598011J-1499892D01*
G01*
X281607662Y-195150000D02*
X266805462Y-195150000D01*
X282314773Y-194857102D02*
G75*
G02*
X281607662Y-195149997I-707111J707110D01*
G01*
X283628972Y-193542902D02*
X282314773Y-194857102D01*
X283628972Y-193542902D02*
G75*
G02*
X284328951Y-193249960I707290J-707290D01*
G01*
X330560762Y-193250000D02*
X284328951Y-193250000D01*
X330560762Y-193250000D02*
G75*
G02*
X331264785Y-193539745I0J-1000192D01*
G01*
X332576927Y-194851928D02*
X331264765Y-193539765D01*
X333289262Y-195150000D02*
G75*
G02*
X332576935Y-194851920I100J1000408D01*
G01*
X343328862Y-195150000D02*
X333289262Y-195150000D01*
X343328862Y-195150000D02*
G75*
G02*
X345926931Y-196649995I0J-2999992D01*
G01*
X351123076Y-196650000D02*
G75*
G02*
X345926924Y-196650000I-2598076J1500000D01*
G01*
X351123076Y-196650000D02*
G75*
G02*
X353712677Y-195150000I2598086J-1499992D01*
G01*
X363760786Y-195150000D02*
X353712677Y-195150000D01*
X364467885Y-194857115D02*
G75*
G02*
X363760786Y-195149974I-707023J707023D01*
G01*
X365782184Y-193542815D02*
X364467885Y-194857115D01*
X365782184Y-193542815D02*
G75*
G02*
X366482092Y-193249959I707078J-707077D01*
G01*
X376675000Y-193250000D02*
X366482092Y-193250000D01*
X378675000Y-191249992D02*
G75*
G02*
X376675000Y-193249930I-1999938J0D01*
G01*
X378675000Y-170565292D02*
X378675000Y-191249992D01*
X377641176Y-169565845D02*
G75*
G02*
X378674980Y-170565292I33786J-999447D01*
G01*
X377641176Y-169565845D02*
G75*
G02*
X377641176Y-137584159I-541174J15990843D01*
G01*
X378675000Y-136584692D02*
G75*
G02*
X377641176Y-137584159I-1000038J0D01*
G01*
X378675000Y-96864652D02*
X378675000Y-136584692D01*
X376674962Y-94850000D02*
G75*
G02*
X378675002Y-96864652I-100J-2000192D01*
G01*
X344109962Y-94850000D02*
X376674962Y-94850000D01*
X344109962Y-94850000D02*
G75*
G02*
X343135592Y-93625004I0J1000008D01*
G01*
X337462954Y-91750000D02*
G75*
G02*
X343135502Y-93624983I2749508J-1199992D01*
G01*
X337462954Y-91750000D02*
G75*
G02*
X335629862Y-92949992I-1833092J800108D01*
G01*
X309483732Y-92950000D02*
X335629862Y-92950000D01*
X308769684Y-93242815D02*
G75*
G02*
X309483732Y-92949958I707078J-707077D01*
G01*
X307455385Y-94557115D02*
X308769684Y-93242815D01*
X307455385Y-94557115D02*
G75*
G02*
X306748286Y-94849974I-707023J707023D01*
G01*
X285526862Y-94850000D02*
X306748286Y-94850000D01*
X285526862Y-94850000D02*
G75*
G02*
X284824634Y-94562117I0J1000408D01*
G01*
X283508589Y-93246089D02*
X284824625Y-94562126D01*
X282798262Y-92950000D02*
G75*
G02*
X283508610Y-93246068I0J-1000192D01*
G01*
X263233662Y-92950000D02*
X282798262Y-92950000D01*
X263233662Y-92950000D02*
G75*
G02*
X260635580Y-91449998I0J3000008D01*
G01*
X255439423Y-91450000D02*
G75*
G02*
X260635577Y-91450000I2598077J-1500000D01*
G01*
X255439423Y-91450000D02*
G75*
G02*
X252841347Y-92949983I-2598061J1500008D01*
G01*
X233283732Y-92950000D02*
X252841347Y-92950000D01*
X232569684Y-93242815D02*
G75*
G02*
X233283732Y-92949958I707078J-707077D01*
G01*
X231255385Y-94557115D02*
X232569684Y-93242815D01*
X231255385Y-94557115D02*
G75*
G02*
X230548286Y-94849974I-707023J707023D01*
G01*
X190276862Y-94850000D02*
X230548286Y-94850000D01*
X190276862Y-94850000D02*
G75*
G02*
X189574634Y-94562117I0J1000408D01*
G01*
X188258589Y-93246089D02*
X189574625Y-94562126D01*
X187548262Y-92950000D02*
G75*
G02*
X188258610Y-93246068I0J-1000192D01*
G01*
X167983662Y-92950000D02*
X187548262Y-92950000D01*
X167983662Y-92950000D02*
G75*
G02*
X165385580Y-91449998I0J3000008D01*
G01*
X160189423Y-91450000D02*
G75*
G02*
X165385575Y-91450000I2598076J-1500000D01*
G01*
X160189423Y-91450000D02*
G75*
G02*
X157591347Y-92949983I-2598061J1500008D01*
G01*
X138033732Y-92950000D02*
X157591347Y-92950000D01*
X137319684Y-93242815D02*
G75*
G02*
X138033732Y-92949958I707078J-707077D01*
G01*
X136005385Y-94557115D02*
X137319684Y-93242815D01*
X136005385Y-94557115D02*
G75*
G02*
X135298286Y-94849974I-707023J707023D01*
G01*
X114076862Y-94850000D02*
X135298286Y-94850000D01*
X114076862Y-94850000D02*
G75*
G02*
X113374634Y-94562117I0J1000408D01*
G01*
X112058589Y-93246089D02*
X113374625Y-94562126D01*
X111348262Y-92950000D02*
G75*
G02*
X112058610Y-93246068I0J-1000192D01*
G01*
X85195062Y-92950000D02*
X111348262Y-92950000D01*
X85195062Y-92950000D02*
G75*
G02*
X83362084Y-91749983I0J1999908D01*
G01*
X77689423Y-93625000D02*
G75*
G02*
X83362048Y-91749999I2923079J674998D01*
G01*
X82112500Y-92950000D02*
G75*
G02*
X79112500Y-92950000I-1500000J0D01*
G01*
X79112500Y-92950000D02*
G75*
G02*
X82112500Y-92950000I1500000J0D01*
G01*
X341712500Y-92950000D02*
G75*
G02*
X338712500Y-92950000I-1500000J0D01*
G01*
X338712500Y-92950000D02*
G75*
G02*
X341712500Y-92950000I1500000J0D01*
G01*
X259537500Y-92950000D02*
G75*
G02*
X256537500Y-92950000I-1500000J0D01*
G01*
X256537500Y-92950000D02*
G75*
G02*
X259537500Y-92950000I1500000J0D01*
G01*
X164287500Y-92950000D02*
G75*
G02*
X161287500Y-92950000I-1500000J0D01*
G01*
X161287500Y-92950000D02*
G75*
G02*
X164287500Y-92950000I1500000J0D01*
G01*
X73800000Y-195150000D02*
G75*
G02*
X70800000Y-195150000I-1500000J0D01*
G01*
X70800000Y-195150000D02*
G75*
G02*
X73800000Y-195150000I1500000J0D01*
G01*
X350025000Y-195150000D02*
G75*
G02*
X347025000Y-195150000I-1500000J0D01*
G01*
X347025000Y-195150000D02*
G75*
G02*
X350025000Y-195150000I1500000J0D01*
G01*
X263109375Y-195150000D02*
G75*
G02*
X260109375Y-195150000I-1500000J0D01*
G01*
X260109375Y-195150000D02*
G75*
G02*
X263109375Y-195150000I1500000J0D01*
G01*
X141665625Y-195150000D02*
G75*
G02*
X138665625Y-195150000I-1500000J0D01*
G01*
X138665625Y-195150000D02*
G75*
G02*
X141665625Y-195150000I1500000J0D01*
G01*
X208762500Y-175180392D02*
X208762500Y-174599192D01*
X208762500Y-175180392D02*
G75*
G02*
X208562500Y-175380330I-199938J0D01*
G01*
X207243853Y-175380400D02*
X208562500Y-175380400D01*
X207038500Y-175580392D02*
G75*
G02*
X207243853Y-175380397I200162J-100D01*
G01*
X207038500Y-181450492D02*
X207038500Y-175580392D01*
X207038500Y-181450492D02*
G75*
G02*
X206838500Y-181650430I-199938J0D01*
G01*
X206416562Y-181650470D02*
X206838500Y-181650470D01*
X206212500Y-181850492D02*
G75*
G02*
X206416562Y-181650468I200162J-100D01*
G01*
X206212500Y-184243780D02*
X206212500Y-181850492D01*
X206412362Y-184449230D02*
G75*
G02*
X206212497Y-184243780I100J200038D01*
G01*
X206838462Y-184449230D02*
X206412362Y-184449230D01*
X206838462Y-184449230D02*
G75*
G02*
X207038424Y-184649292I0J-199962D01*
G01*
X207038500Y-187473980D02*
X207038500Y-184649292D01*
X207238362Y-187679430D02*
G75*
G02*
X207038497Y-187473980I100J200038D01*
G01*
X213588462Y-187679430D02*
X207238362Y-187679430D01*
X213788500Y-187479392D02*
G75*
G02*
X213588462Y-187679430I-200038J0D01*
G01*
X213788500Y-184649192D02*
X213788500Y-187479392D01*
X213788500Y-184649192D02*
G75*
G02*
X213988462Y-184449230I199962J0D01*
G01*
X222162462Y-184449230D02*
X213988462Y-184449230D01*
X222162462Y-184449230D02*
G75*
G02*
X222362424Y-184649292I0J-199962D01*
G01*
X222362500Y-188450000D02*
X222362500Y-184649292D01*
X223162462Y-189250000D02*
G75*
G02*
X222362554Y-188450000I0J799908D01*
G01*
X235762500Y-189250000D02*
X223162462Y-189250000D01*
X236562500Y-188449992D02*
G75*
G02*
X235762500Y-189249930I-799938J0D01*
G01*
X236562500Y-184649192D02*
X236562500Y-188449992D01*
X236562500Y-184649192D02*
G75*
G02*
X236762462Y-184449230I199962J0D01*
G01*
X244938462Y-184449230D02*
X236762462Y-184449230D01*
X244938462Y-184449230D02*
G75*
G02*
X245138424Y-184649292I0J-199962D01*
G01*
X245138500Y-187473980D02*
X245138500Y-184649292D01*
X245338362Y-187679430D02*
G75*
G02*
X245138497Y-187473980I100J200038D01*
G01*
X251688462Y-187679430D02*
X245338362Y-187679430D01*
X251888500Y-187479392D02*
G75*
G02*
X251688462Y-187679430I-200038J0D01*
G01*
X251888500Y-184649192D02*
X251888500Y-187479392D01*
X251888500Y-184649192D02*
G75*
G02*
X252088462Y-184449230I199962J0D01*
G01*
X252513462Y-184449230D02*
X252088462Y-184449230D01*
X252713500Y-184249192D02*
G75*
G02*
X252513462Y-184449230I-200038J0D01*
G01*
X252713500Y-181850492D02*
X252713500Y-184249192D01*
X252513462Y-181650470D02*
G75*
G02*
X252713484Y-181850492I0J-200022D01*
G01*
X252088462Y-181650470D02*
X252513462Y-181650470D01*
X252088462Y-181650470D02*
G75*
G02*
X251888500Y-181453021I0J199978D01*
G01*
X251888500Y-175585097D02*
X251888500Y-181453021D01*
X251688462Y-175380400D02*
G75*
G02*
X251888503Y-175585097I-100J-200192D01*
G01*
X250362462Y-175380400D02*
X251688462Y-175380400D01*
X250362462Y-175380400D02*
G75*
G02*
X250162554Y-175180400I0J199908D01*
G01*
X250162500Y-174599292D02*
X250162500Y-175180400D01*
X249962362Y-174399240D02*
G75*
G02*
X250162414Y-174599292I100J-199952D01*
G01*
X247064461Y-174399240D02*
X249962362Y-174399240D01*
X246862500Y-174599192D02*
G75*
G02*
X247064461Y-174399240I199962J0D01*
G01*
X246862500Y-175180392D02*
X246862500Y-174599192D01*
X246862500Y-175180392D02*
G75*
G02*
X246662500Y-175380330I-199938J0D01*
G01*
X245343853Y-175380400D02*
X246662500Y-175380400D01*
X245138500Y-175580492D02*
G75*
G02*
X245343853Y-175380397I200162J0D01*
G01*
X245138500Y-179649392D02*
X245138500Y-175580492D01*
X245138500Y-179649392D02*
G75*
G02*
X244938500Y-179849330I-199938J0D01*
G01*
X236762462Y-179849360D02*
X244938500Y-179849360D01*
X236762462Y-179849360D02*
G75*
G02*
X236562500Y-179650941I0J199968D01*
G01*
X236562500Y-175859301D02*
X236562500Y-179650941D01*
X235762462Y-175050000D02*
G75*
G02*
X236562502Y-175859301I-100J-800192D01*
G01*
X223173145Y-175050000D02*
X235762462Y-175050000D01*
X222362500Y-175849992D02*
G75*
G02*
X223173145Y-175049999I800162J-100D01*
G01*
X222362500Y-179649392D02*
X222362500Y-175849992D01*
X222362500Y-179649392D02*
G75*
G02*
X222162500Y-179849330I-199938J0D01*
G01*
X213988462Y-179849360D02*
X222162500Y-179849360D01*
X213988462Y-179849360D02*
G75*
G02*
X213788500Y-179650941I0J199968D01*
G01*
X213788500Y-175585097D02*
X213788500Y-179650941D01*
X213588462Y-175380400D02*
G75*
G02*
X213788503Y-175585097I-100J-200192D01*
G01*
X212262462Y-175380400D02*
X213588462Y-175380400D01*
X212262462Y-175380400D02*
G75*
G02*
X212062554Y-175180400I0J199908D01*
G01*
X212062500Y-174599292D02*
X212062500Y-175180400D01*
X211862362Y-174399240D02*
G75*
G02*
X212062414Y-174599292I100J-199952D01*
G01*
X208964461Y-174399240D02*
X211862362Y-174399240D01*
X208762500Y-174599192D02*
G75*
G02*
X208964461Y-174399240I199962J0D01*
G01*
X318306690Y-151819800D02*
X318306690Y-151014572D01*
X318506662Y-152019800D02*
G75*
G02*
X318306754Y-151819800I0J199908D01*
G01*
X321405700Y-152019800D02*
X318506662Y-152019800D01*
X321605700Y-151819792D02*
G75*
G02*
X321405700Y-152019730I-199938J0D01*
G01*
X321605700Y-151019592D02*
X321605700Y-151819792D01*
X321605700Y-151019592D02*
G75*
G02*
X321800471Y-150819503I200162J0D01*
G01*
X323131000Y-150819500D02*
X321800471Y-150819500D01*
X323331000Y-150619492D02*
G75*
G02*
X323131000Y-150819430I-199938J0D01*
G01*
X323331000Y-146550692D02*
X323331000Y-150619492D01*
X323331000Y-146550692D02*
G75*
G02*
X323525771Y-146350603I200162J0D01*
G01*
X324556262Y-146350600D02*
X323525771Y-146350600D01*
X324556262Y-146350600D02*
G75*
G02*
X324756254Y-146550592I0J-199992D01*
G01*
X324756250Y-150349992D02*
X324756250Y-146550592D01*
X325556262Y-151150000D02*
G75*
G02*
X324756254Y-150349992I0J800008D01*
G01*
X338156250Y-151150000D02*
X325556262Y-151150000D01*
X338956250Y-150349992D02*
G75*
G02*
X338156250Y-151149980I-799988J0D01*
G01*
X338956250Y-146550592D02*
X338956250Y-150349992D01*
X338956250Y-146550592D02*
G75*
G02*
X339153434Y-146350600I200012J0D01*
G01*
X340181362Y-146350600D02*
X339153434Y-146350600D01*
X340181362Y-146350600D02*
G75*
G02*
X340381499Y-146546087I0J-200192D01*
G01*
X340381500Y-150619500D02*
X340381500Y-146546087D01*
X340581462Y-150819500D02*
G75*
G02*
X340381554Y-150619500I0J199908D01*
G01*
X341905262Y-150819500D02*
X340581462Y-150819500D01*
X341905262Y-150819500D02*
G75*
G02*
X342105399Y-151014987I0J-200192D01*
G01*
X342105400Y-151819800D02*
X342105400Y-151014987D01*
X342305362Y-152019800D02*
G75*
G02*
X342105454Y-151819800I0J199908D01*
G01*
X345205800Y-152019800D02*
X342305362Y-152019800D01*
X345405800Y-151819792D02*
G75*
G02*
X345205800Y-152019730I-199938J0D01*
G01*
X345405800Y-151019592D02*
X345405800Y-151819792D01*
X345405800Y-151019592D02*
G75*
G02*
X345600571Y-150819503I200162J0D01*
G01*
X346931000Y-150819500D02*
X345600571Y-150819500D01*
X347131000Y-150619492D02*
G75*
G02*
X346931000Y-150819430I-199938J0D01*
G01*
X347131000Y-144749592D02*
X347131000Y-150619492D01*
X347131000Y-144749592D02*
G75*
G02*
X347325771Y-144549503I200162J0D01*
G01*
X347756500Y-144549500D02*
X347325771Y-144549500D01*
X347956500Y-144349492D02*
G75*
G02*
X347756500Y-144549430I-199938J0D01*
G01*
X347956500Y-141955397D02*
X347956500Y-144349492D01*
X347756462Y-141750700D02*
G75*
G02*
X347956503Y-141955397I-100J-200192D01*
G01*
X347330962Y-141750700D02*
X347756462Y-141750700D01*
X347330962Y-141750700D02*
G75*
G02*
X347131054Y-141550700I0J199908D01*
G01*
X347131000Y-138725197D02*
X347131000Y-141550700D01*
X346930962Y-138520500D02*
G75*
G02*
X347131003Y-138725197I-100J-200192D01*
G01*
X340586853Y-138520500D02*
X346930962Y-138520500D01*
X340381500Y-138720492D02*
G75*
G02*
X340586853Y-138520497I200162J-100D01*
G01*
X340381500Y-141550692D02*
X340381500Y-138720492D01*
X340381500Y-141550692D02*
G75*
G02*
X340181500Y-141750630I-199938J0D01*
G01*
X339156262Y-141750700D02*
X340181500Y-141750700D01*
X339156262Y-141750700D02*
G75*
G02*
X338956254Y-141550692I0J200008D01*
G01*
X338956250Y-137749992D02*
X338956250Y-141550692D01*
X338156262Y-136950000D02*
G75*
G02*
X338956254Y-137749992I0J-799992D01*
G01*
X325561918Y-136950000D02*
X338156262Y-136950000D01*
X324756250Y-137749992D02*
G75*
G02*
X325561918Y-136950000I800012J0D01*
G01*
X324756250Y-141550692D02*
X324756250Y-137749992D01*
X324756250Y-141550692D02*
G75*
G02*
X324556250Y-141750680I-199988J0D01*
G01*
X323530962Y-141750700D02*
X324556250Y-141750700D01*
X323530962Y-141750700D02*
G75*
G02*
X323331054Y-141550700I0J199908D01*
G01*
X323331000Y-138725197D02*
X323331000Y-141550700D01*
X323130962Y-138520500D02*
G75*
G02*
X323331003Y-138725197I-100J-200192D01*
G01*
X316786753Y-138520500D02*
X323130962Y-138520500D01*
X316581400Y-138720492D02*
G75*
G02*
X316786753Y-138520497I200162J-100D01*
G01*
X316581400Y-141550692D02*
X316581400Y-138720492D01*
X316581400Y-141550692D02*
G75*
G02*
X316381400Y-141750630I-199938J0D01*
G01*
X315955930Y-141750700D02*
X316381400Y-141750700D01*
X315755930Y-141950692D02*
G75*
G02*
X315955930Y-141750760I199932J0D01*
G01*
X315755930Y-144349492D02*
X315755930Y-141950692D01*
X315955962Y-144549500D02*
G75*
G02*
X315755954Y-144349492I0J200008D01*
G01*
X316381262Y-144549500D02*
X315955962Y-144549500D01*
X316381262Y-144549500D02*
G75*
G02*
X316581399Y-144744987I0J-200192D01*
G01*
X316581400Y-150619500D02*
X316581400Y-144744987D01*
X316781362Y-150819500D02*
G75*
G02*
X316581454Y-150619500I0J199908D01*
G01*
X318106562Y-150819500D02*
X316781362Y-150819500D01*
X318106562Y-150819500D02*
G75*
G02*
X318306689Y-151014572I0J-200192D01*
G01*
X306400440Y-170869792D02*
X306400440Y-170067212D01*
X306600462Y-171069800D02*
G75*
G02*
X306400454Y-170869792I0J200008D01*
G01*
X309499450Y-171069800D02*
X306600462Y-171069800D01*
X309699450Y-170869792D02*
G75*
G02*
X309499450Y-171069780I-199988J0D01*
G01*
X309699450Y-170069492D02*
X309699450Y-170869792D01*
X309699450Y-170069492D02*
G75*
G02*
X309896634Y-169869500I200012J0D01*
G01*
X311224750Y-169869500D02*
X309896634Y-169869500D01*
X311424750Y-169669492D02*
G75*
G02*
X311224750Y-169869480I-199988J0D01*
G01*
X311424750Y-165600592D02*
X311424750Y-169669492D01*
X311424750Y-165600592D02*
G75*
G02*
X311621934Y-165400600I200012J0D01*
G01*
X312649862Y-165400600D02*
X311621934Y-165400600D01*
X312649862Y-165400600D02*
G75*
G02*
X312849999Y-165596087I0J-200192D01*
G01*
X312850000Y-169400000D02*
X312850000Y-165596087D01*
X313649962Y-170200000D02*
G75*
G02*
X312850054Y-169400000I0J799908D01*
G01*
X326250000Y-170200000D02*
X313649962Y-170200000D01*
X327050000Y-169399992D02*
G75*
G02*
X326250000Y-170199930I-799938J0D01*
G01*
X327050000Y-165600692D02*
X327050000Y-169399992D01*
X327050000Y-165600692D02*
G75*
G02*
X327244771Y-165400603I200162J0D01*
G01*
X328275262Y-165400600D02*
X327244771Y-165400600D01*
X328275262Y-165400600D02*
G75*
G02*
X328475254Y-165600592I0J-199992D01*
G01*
X328475250Y-169669492D02*
X328475250Y-165600592D01*
X328675262Y-169869500D02*
G75*
G02*
X328475254Y-169669492I0J200008D01*
G01*
X329999162Y-169869500D02*
X328675262Y-169869500D01*
X329999162Y-169869500D02*
G75*
G02*
X330199154Y-170069492I0J-199992D01*
G01*
X330199150Y-170869792D02*
X330199150Y-170069492D01*
X330399162Y-171069800D02*
G75*
G02*
X330199154Y-170869792I0J200008D01*
G01*
X333299550Y-171069800D02*
X330399162Y-171069800D01*
X333499550Y-170869792D02*
G75*
G02*
X333299550Y-171069780I-199988J0D01*
G01*
X333499550Y-170069492D02*
X333499550Y-170869792D01*
X333499550Y-170069492D02*
G75*
G02*
X333696734Y-169869500I200012J0D01*
G01*
X335024750Y-169869500D02*
X333696734Y-169869500D01*
X335224750Y-169669492D02*
G75*
G02*
X335024750Y-169869480I-199988J0D01*
G01*
X335224750Y-163799492D02*
X335224750Y-169669492D01*
X335224750Y-163799492D02*
G75*
G02*
X335421934Y-163599500I200012J0D01*
G01*
X335850250Y-163599500D02*
X335421934Y-163599500D01*
X336050250Y-163399492D02*
G75*
G02*
X335850250Y-163599480I-199988J0D01*
G01*
X336050250Y-161000692D02*
X336050250Y-163399492D01*
X335850262Y-160800700D02*
G75*
G02*
X336050254Y-161000692I0J-199992D01*
G01*
X335424762Y-160800700D02*
X335850262Y-160800700D01*
X335424762Y-160800700D02*
G75*
G02*
X335224754Y-160600692I0J200008D01*
G01*
X335224750Y-157770492D02*
X335224750Y-160600692D01*
X335024762Y-157570500D02*
G75*
G02*
X335224754Y-157770492I0J-199992D01*
G01*
X328678090Y-157570500D02*
X335024762Y-157570500D01*
X328475250Y-157770492D02*
G75*
G02*
X328678090Y-157570500I200012J0D01*
G01*
X328475250Y-160600692D02*
X328475250Y-157770492D01*
X328475250Y-160600692D02*
G75*
G02*
X328275250Y-160800680I-199988J0D01*
G01*
X327249962Y-160800700D02*
X328275250Y-160800700D01*
X327249962Y-160800700D02*
G75*
G02*
X327050054Y-160600700I0J199908D01*
G01*
X327050000Y-156809301D02*
X327050000Y-160600700D01*
X326249962Y-156000000D02*
G75*
G02*
X327050002Y-156809301I-100J-800192D01*
G01*
X313660645Y-156000000D02*
X326249962Y-156000000D01*
X312850000Y-156799992D02*
G75*
G02*
X313660645Y-155999999I800162J-100D01*
G01*
X312850000Y-160600692D02*
X312850000Y-156799992D01*
X312850000Y-160600692D02*
G75*
G02*
X312650000Y-160800630I-199938J0D01*
G01*
X311624762Y-160800700D02*
X312650000Y-160800700D01*
X311624762Y-160800700D02*
G75*
G02*
X311424754Y-160600692I0J200008D01*
G01*
X311424750Y-157770492D02*
X311424750Y-160600692D01*
X311224762Y-157570500D02*
G75*
G02*
X311424754Y-157770492I0J-199992D01*
G01*
X304877990Y-157570500D02*
X311224762Y-157570500D01*
X304675150Y-157770492D02*
G75*
G02*
X304877990Y-157570500I200012J0D01*
G01*
X304675150Y-160600692D02*
X304675150Y-157770492D01*
X304675150Y-160600692D02*
G75*
G02*
X304475150Y-160800680I-199988J0D01*
G01*
X304049680Y-160800700D02*
X304475150Y-160800700D01*
X303849680Y-161000692D02*
G75*
G02*
X304049680Y-160800710I199982J0D01*
G01*
X303849680Y-163396268D02*
X303849680Y-161000692D01*
X304049662Y-163599500D02*
G75*
G02*
X303849680Y-163396268I0J200008D01*
G01*
X304475162Y-163599500D02*
X304049662Y-163599500D01*
X304475162Y-163599500D02*
G75*
G02*
X304675154Y-163799492I0J-199992D01*
G01*
X304675150Y-169669492D02*
X304675150Y-163799492D01*
X304875162Y-169869500D02*
G75*
G02*
X304675154Y-169669492I0J200008D01*
G01*
X306200462Y-169869500D02*
X304875162Y-169869500D01*
X306200462Y-169869500D02*
G75*
G02*
X306400441Y-170067212I0J-199992D01*
G01*
X75419190Y-170869800D02*
X75419190Y-170064572D01*
X75619162Y-171069800D02*
G75*
G02*
X75419254Y-170869800I0J199908D01*
G01*
X78518200Y-171069800D02*
X75619162Y-171069800D01*
X78718200Y-170869792D02*
G75*
G02*
X78518200Y-171069730I-199938J0D01*
G01*
X78718200Y-170069592D02*
X78718200Y-170869792D01*
X78718200Y-170069592D02*
G75*
G02*
X78912971Y-169869503I200162J0D01*
G01*
X80243500Y-169869500D02*
X78912971Y-169869500D01*
X80443500Y-169669492D02*
G75*
G02*
X80243500Y-169869430I-199938J0D01*
G01*
X80443500Y-165600692D02*
X80443500Y-169669492D01*
X80443500Y-165600692D02*
G75*
G02*
X80638271Y-165400603I200162J0D01*
G01*
X81668762Y-165400600D02*
X80638271Y-165400600D01*
X81668762Y-165400600D02*
G75*
G02*
X81868754Y-165600592I0J-199992D01*
G01*
X81868750Y-169399992D02*
X81868750Y-165600592D01*
X82668762Y-170200000D02*
G75*
G02*
X81868754Y-169399992I0J800008D01*
G01*
X95268750Y-170200000D02*
X82668762Y-170200000D01*
X96068750Y-169399992D02*
G75*
G02*
X95268750Y-170199980I-799988J0D01*
G01*
X96068750Y-165600592D02*
X96068750Y-169399992D01*
X96068750Y-165600592D02*
G75*
G02*
X96265934Y-165400600I200012J0D01*
G01*
X97293862Y-165400600D02*
X96265934Y-165400600D01*
X97293862Y-165400600D02*
G75*
G02*
X97493999Y-165596087I0J-200192D01*
G01*
X97494000Y-169669500D02*
X97494000Y-165596087D01*
X97693962Y-169869500D02*
G75*
G02*
X97494054Y-169669500I0J199908D01*
G01*
X99017762Y-169869500D02*
X97693962Y-169869500D01*
X99017762Y-169869500D02*
G75*
G02*
X99217899Y-170064987I0J-200192D01*
G01*
X99217900Y-170869800D02*
X99217900Y-170064987D01*
X99417862Y-171069800D02*
G75*
G02*
X99217954Y-170869800I0J199908D01*
G01*
X102318300Y-171069800D02*
X99417862Y-171069800D01*
X102518300Y-170869792D02*
G75*
G02*
X102318300Y-171069730I-199938J0D01*
G01*
X102518300Y-170069592D02*
X102518300Y-170869792D01*
X102518300Y-170069592D02*
G75*
G02*
X102713071Y-169869503I200162J0D01*
G01*
X104043500Y-169869500D02*
X102713071Y-169869500D01*
X104243500Y-169669492D02*
G75*
G02*
X104043500Y-169869430I-199938J0D01*
G01*
X104243500Y-163799592D02*
X104243500Y-169669492D01*
X104243500Y-163799592D02*
G75*
G02*
X104438271Y-163599503I200162J0D01*
G01*
X104869000Y-163599500D02*
X104438271Y-163599500D01*
X105069000Y-163399492D02*
G75*
G02*
X104869000Y-163599430I-199938J0D01*
G01*
X105069000Y-161005397D02*
X105069000Y-163399492D01*
X104868962Y-160800700D02*
G75*
G02*
X105069003Y-161005397I-100J-200192D01*
G01*
X104443462Y-160800700D02*
X104868962Y-160800700D01*
X104443462Y-160800700D02*
G75*
G02*
X104243554Y-160600700I0J199908D01*
G01*
X104243500Y-157775197D02*
X104243500Y-160600700D01*
X104043462Y-157570500D02*
G75*
G02*
X104243503Y-157775197I-100J-200192D01*
G01*
X97699353Y-157570500D02*
X104043462Y-157570500D01*
X97494000Y-157770492D02*
G75*
G02*
X97699353Y-157570497I200162J-100D01*
G01*
X97494000Y-160600692D02*
X97494000Y-157770492D01*
X97494000Y-160600692D02*
G75*
G02*
X97294000Y-160800630I-199938J0D01*
G01*
X96268762Y-160800700D02*
X97294000Y-160800700D01*
X96268762Y-160800700D02*
G75*
G02*
X96068754Y-160600692I0J200008D01*
G01*
X96068750Y-156799992D02*
X96068750Y-160600692D01*
X95268762Y-156000000D02*
G75*
G02*
X96068754Y-156799992I0J-799992D01*
G01*
X82674418Y-156000000D02*
X95268762Y-156000000D01*
X81868750Y-156799992D02*
G75*
G02*
X82674418Y-156000000I800012J0D01*
G01*
X81868750Y-160600692D02*
X81868750Y-156799992D01*
X81868750Y-160600692D02*
G75*
G02*
X81668750Y-160800680I-199988J0D01*
G01*
X80643462Y-160800700D02*
X81668750Y-160800700D01*
X80643462Y-160800700D02*
G75*
G02*
X80443554Y-160600700I0J199908D01*
G01*
X80443500Y-157775197D02*
X80443500Y-160600700D01*
X80243462Y-157570500D02*
G75*
G02*
X80443503Y-157775197I-100J-200192D01*
G01*
X73899253Y-157570500D02*
X80243462Y-157570500D01*
X73693900Y-157770492D02*
G75*
G02*
X73899253Y-157570497I200162J-100D01*
G01*
X73693900Y-160600692D02*
X73693900Y-157770492D01*
X73693900Y-160600692D02*
G75*
G02*
X73493900Y-160800630I-199938J0D01*
G01*
X73068430Y-160800700D02*
X73493900Y-160800700D01*
X72868430Y-161000692D02*
G75*
G02*
X73068430Y-160800760I199932J0D01*
G01*
X72868430Y-163399492D02*
X72868430Y-161000692D01*
X73068462Y-163599500D02*
G75*
G02*
X72868454Y-163399492I0J200008D01*
G01*
X73493762Y-163599500D02*
X73068462Y-163599500D01*
X73493762Y-163599500D02*
G75*
G02*
X73693899Y-163794987I0J-200192D01*
G01*
X73693900Y-169669500D02*
X73693900Y-163794987D01*
X73893862Y-169869500D02*
G75*
G02*
X73693954Y-169669500I0J199908D01*
G01*
X75219062Y-169869500D02*
X73893862Y-169869500D01*
X75219062Y-169869500D02*
G75*
G02*
X75419189Y-170064572I0J-200192D01*
G01*
X49750000Y-167762492D02*
G75*
G02*
X50560645Y-166962499I800162J-100D01*
G01*
X49750000Y-171162500D02*
X49750000Y-167762492D01*
X50549962Y-171962500D02*
G75*
G02*
X49750054Y-171162500I0J799908D01*
G01*
X55950000Y-171962500D02*
X50549962Y-171962500D01*
X56750000Y-171162492D02*
G75*
G02*
X55950000Y-171962430I-799938J0D01*
G01*
X56750000Y-167771801D02*
X56750000Y-171162492D01*
X55949962Y-166962500D02*
G75*
G02*
X56750002Y-167771801I-100J-800192D01*
G01*
X50560645Y-166962500D02*
X55949962Y-166962500D01*
X49750000Y-174106292D02*
G75*
G02*
X50550062Y-173306330I799962J0D01*
G01*
X49750000Y-177506292D02*
X49750000Y-174106292D01*
X50549962Y-178306250D02*
G75*
G02*
X49750004Y-177506292I0J799958D01*
G01*
X55938892Y-178306250D02*
X50549962Y-178306250D01*
X56750000Y-177506392D02*
G75*
G02*
X55938892Y-178306253I-800038J100D01*
G01*
X56750000Y-174106292D02*
X56750000Y-177506392D01*
X55949962Y-173306250D02*
G75*
G02*
X56750004Y-174106292I0J-800042D01*
G01*
X50550062Y-173306250D02*
X55949962Y-173306250D01*
X49750000Y-180449992D02*
G75*
G02*
X50560645Y-179649999I800162J-100D01*
G01*
X49750000Y-183850000D02*
X49750000Y-180449992D01*
X50549962Y-184650000D02*
G75*
G02*
X49750054Y-183850000I0J799908D01*
G01*
X55950000Y-184650000D02*
X50549962Y-184650000D01*
X56750000Y-183849992D02*
G75*
G02*
X55950000Y-184649930I-799938J0D01*
G01*
X56750000Y-180459301D02*
X56750000Y-183849992D01*
X55949962Y-179650000D02*
G75*
G02*
X56750002Y-180459301I-100J-800192D01*
G01*
X50560645Y-179650000D02*
X55949962Y-179650000D01*
X360475000Y-175849992D02*
G75*
G02*
X361285645Y-175049999I800162J-100D01*
G01*
X360475000Y-188450000D02*
X360475000Y-175849992D01*
X361274962Y-189250000D02*
G75*
G02*
X360475054Y-188450000I0J799908D01*
G01*
X373875000Y-189250000D02*
X361274962Y-189250000D01*
X374675000Y-188449992D02*
G75*
G02*
X373875000Y-189249930I-799938J0D01*
G01*
X374675000Y-175859301D02*
X374675000Y-188449992D01*
X373874962Y-175050000D02*
G75*
G02*
X374675002Y-175859301I-100J-800192D01*
G01*
X361285645Y-175050000D02*
X373874962Y-175050000D01*
X341425000Y-175849992D02*
G75*
G02*
X342235645Y-175049999I800162J-100D01*
G01*
X341425000Y-188450000D02*
X341425000Y-175849992D01*
X342224962Y-189250000D02*
G75*
G02*
X341425054Y-188450000I0J799908D01*
G01*
X354825000Y-189250000D02*
X342224962Y-189250000D01*
X355625000Y-188449992D02*
G75*
G02*
X354825000Y-189249930I-799938J0D01*
G01*
X355625000Y-175859301D02*
X355625000Y-188449992D01*
X354824962Y-175050000D02*
G75*
G02*
X355625002Y-175859301I-100J-800192D01*
G01*
X342235645Y-175050000D02*
X354824962Y-175050000D01*
X322375000Y-175849992D02*
G75*
G02*
X323185645Y-175049999I800162J-100D01*
G01*
X322375000Y-188450000D02*
X322375000Y-175849992D01*
X323174962Y-189250000D02*
G75*
G02*
X322375054Y-188450000I0J799908D01*
G01*
X335775000Y-189250000D02*
X323174962Y-189250000D01*
X336575000Y-188449992D02*
G75*
G02*
X335775000Y-189249930I-799938J0D01*
G01*
X336575000Y-175859301D02*
X336575000Y-188449992D01*
X335774962Y-175050000D02*
G75*
G02*
X336575002Y-175859301I-100J-800192D01*
G01*
X323185645Y-175050000D02*
X335774962Y-175050000D01*
X291418750Y-175849992D02*
G75*
G02*
X292224418Y-175050000I800012J0D01*
G01*
X291418750Y-188449992D02*
X291418750Y-175849992D01*
X292218762Y-189250000D02*
G75*
G02*
X291418754Y-188449992I0J800008D01*
G01*
X304818750Y-189250000D02*
X292218762Y-189250000D01*
X305618750Y-188449992D02*
G75*
G02*
X304818750Y-189249980I-799988J0D01*
G01*
X305618750Y-175849992D02*
X305618750Y-188449992D01*
X304818762Y-175050000D02*
G75*
G02*
X305618754Y-175849992I0J-799992D01*
G01*
X292224418Y-175050000D02*
X304818762Y-175050000D01*
X265225000Y-175849992D02*
G75*
G02*
X266035645Y-175049999I800162J-100D01*
G01*
X265225000Y-188450000D02*
X265225000Y-175849992D01*
X266024962Y-189250000D02*
G75*
G02*
X265225054Y-188450000I0J799908D01*
G01*
X278625000Y-189250000D02*
X266024962Y-189250000D01*
X279425000Y-188449992D02*
G75*
G02*
X278625000Y-189249930I-799938J0D01*
G01*
X279425000Y-175859301D02*
X279425000Y-188449992D01*
X278624862Y-175050000D02*
G75*
G02*
X279425002Y-175859301I0J-800192D01*
G01*
X266035645Y-175050000D02*
X278624862Y-175050000D01*
X151612500Y-175180392D02*
X151612500Y-174599192D01*
X151612500Y-175180392D02*
G75*
G02*
X151412500Y-175380330I-199938J0D01*
G01*
X150093853Y-175380400D02*
X151412500Y-175380400D01*
X149888500Y-175580392D02*
G75*
G02*
X150093853Y-175380397I200162J-100D01*
G01*
X149888500Y-181450492D02*
X149888500Y-175580392D01*
X149888500Y-181450492D02*
G75*
G02*
X149688500Y-181650430I-199938J0D01*
G01*
X149266562Y-181650470D02*
X149688500Y-181650470D01*
X149062500Y-181850492D02*
G75*
G02*
X149266562Y-181650468I200162J-100D01*
G01*
X149062500Y-184243780D02*
X149062500Y-181850492D01*
X149262362Y-184449230D02*
G75*
G02*
X149062497Y-184243780I100J200038D01*
G01*
X149688462Y-184449230D02*
X149262362Y-184449230D01*
X149688462Y-184449230D02*
G75*
G02*
X149888424Y-184649292I0J-199962D01*
G01*
X149888500Y-187473980D02*
X149888500Y-184649292D01*
X150088362Y-187679430D02*
G75*
G02*
X149888497Y-187473980I100J200038D01*
G01*
X156438462Y-187679430D02*
X150088362Y-187679430D01*
X156638500Y-187479392D02*
G75*
G02*
X156438462Y-187679430I-200038J0D01*
G01*
X156638500Y-184649192D02*
X156638500Y-187479392D01*
X156638500Y-184649192D02*
G75*
G02*
X156838462Y-184449230I199962J0D01*
G01*
X165012462Y-184449230D02*
X156838462Y-184449230D01*
X165012462Y-184449230D02*
G75*
G02*
X165212424Y-184649292I0J-199962D01*
G01*
X165212500Y-188450000D02*
X165212500Y-184649292D01*
X166012462Y-189250000D02*
G75*
G02*
X165212554Y-188450000I0J799908D01*
G01*
X178612500Y-189250000D02*
X166012462Y-189250000D01*
X179412500Y-188449992D02*
G75*
G02*
X178612500Y-189249930I-799938J0D01*
G01*
X179412500Y-184649192D02*
X179412500Y-188449992D01*
X179412500Y-184649192D02*
G75*
G02*
X179612462Y-184449230I199962J0D01*
G01*
X187788462Y-184449230D02*
X179612462Y-184449230D01*
X187788462Y-184449230D02*
G75*
G02*
X187988424Y-184649292I0J-199962D01*
G01*
X187988500Y-187473980D02*
X187988500Y-184649292D01*
X188188362Y-187679430D02*
G75*
G02*
X187988497Y-187473980I100J200038D01*
G01*
X194538462Y-187679430D02*
X188188362Y-187679430D01*
X194738500Y-187479392D02*
G75*
G02*
X194538462Y-187679430I-200038J0D01*
G01*
X194738500Y-184649192D02*
X194738500Y-187479392D01*
X194738500Y-184649192D02*
G75*
G02*
X194938462Y-184449230I199962J0D01*
G01*
X195363462Y-184449230D02*
X194938462Y-184449230D01*
X195563500Y-184249192D02*
G75*
G02*
X195363462Y-184449230I-200038J0D01*
G01*
X195563500Y-181850492D02*
X195563500Y-184249192D01*
X195363462Y-181650470D02*
G75*
G02*
X195563484Y-181850492I0J-200022D01*
G01*
X194938462Y-181650470D02*
X195363462Y-181650470D01*
X194938462Y-181650470D02*
G75*
G02*
X194738500Y-181453021I0J199978D01*
G01*
X194738500Y-175585097D02*
X194738500Y-181453021D01*
X194538462Y-175380400D02*
G75*
G02*
X194738503Y-175585097I-100J-200192D01*
G01*
X193212462Y-175380400D02*
X194538462Y-175380400D01*
X193212462Y-175380400D02*
G75*
G02*
X193012554Y-175180400I0J199908D01*
G01*
X193012500Y-174599292D02*
X193012500Y-175180400D01*
X192812362Y-174399240D02*
G75*
G02*
X193012414Y-174599292I100J-199952D01*
G01*
X189914461Y-174399240D02*
X192812362Y-174399240D01*
X189712500Y-174599192D02*
G75*
G02*
X189914461Y-174399240I199962J0D01*
G01*
X189712500Y-175180392D02*
X189712500Y-174599192D01*
X189712500Y-175180392D02*
G75*
G02*
X189512500Y-175380330I-199938J0D01*
G01*
X188193853Y-175380400D02*
X189512500Y-175380400D01*
X187988500Y-175580392D02*
G75*
G02*
X188193853Y-175380397I200162J-100D01*
G01*
X187988500Y-179649392D02*
X187988500Y-175580392D01*
X187988500Y-179649392D02*
G75*
G02*
X187788500Y-179849330I-199938J0D01*
G01*
X179612462Y-179849360D02*
X187788500Y-179849360D01*
X179612462Y-179849360D02*
G75*
G02*
X179412500Y-179650941I0J199968D01*
G01*
X179412500Y-175859301D02*
X179412500Y-179650941D01*
X178612362Y-175050000D02*
G75*
G02*
X179412502Y-175859301I0J-800192D01*
G01*
X166023145Y-175050000D02*
X178612362Y-175050000D01*
X165212500Y-175849992D02*
G75*
G02*
X166023145Y-175049999I800162J-100D01*
G01*
X165212500Y-179649392D02*
X165212500Y-175849992D01*
X165212500Y-179649392D02*
G75*
G02*
X165012500Y-179849330I-199938J0D01*
G01*
X156838462Y-179849360D02*
X165012500Y-179849360D01*
X156838462Y-179849360D02*
G75*
G02*
X156638500Y-179650941I0J199968D01*
G01*
X156638500Y-175585097D02*
X156638500Y-179650941D01*
X156438462Y-175380400D02*
G75*
G02*
X156638503Y-175585097I-100J-200192D01*
G01*
X155112462Y-175380400D02*
X156438462Y-175380400D01*
X155112462Y-175380400D02*
G75*
G02*
X154912554Y-175180400I0J199908D01*
G01*
X154912500Y-174599292D02*
X154912500Y-175180400D01*
X154712362Y-174399240D02*
G75*
G02*
X154912414Y-174599292I100J-199952D01*
G01*
X151814461Y-174399240D02*
X154712362Y-174399240D01*
X151612500Y-174599192D02*
G75*
G02*
X151814461Y-174399240I199962J0D01*
G01*
X122350000Y-175849992D02*
G75*
G02*
X123160645Y-175049999I800162J-100D01*
G01*
X122350000Y-188450000D02*
X122350000Y-175849992D01*
X123149962Y-189250000D02*
G75*
G02*
X122350054Y-188450000I0J799908D01*
G01*
X135750000Y-189250000D02*
X123149962Y-189250000D01*
X136550000Y-188449992D02*
G75*
G02*
X135750000Y-189249930I-799938J0D01*
G01*
X136550000Y-175859301D02*
X136550000Y-188449992D01*
X135749962Y-175050000D02*
G75*
G02*
X136550002Y-175859301I-100J-800192D01*
G01*
X123160645Y-175050000D02*
X135749962Y-175050000D01*
X96156250Y-175849992D02*
G75*
G02*
X96961918Y-175050000I800012J0D01*
G01*
X96156250Y-188449992D02*
X96156250Y-175849992D01*
X96956262Y-189250000D02*
G75*
G02*
X96156254Y-188449992I0J800008D01*
G01*
X109556250Y-189250000D02*
X96956262Y-189250000D01*
X110356250Y-188449992D02*
G75*
G02*
X109556250Y-189249980I-799988J0D01*
G01*
X110356250Y-175849992D02*
X110356250Y-188449992D01*
X109556262Y-175050000D02*
G75*
G02*
X110356254Y-175849992I0J-799992D01*
G01*
X96961918Y-175050000D02*
X109556262Y-175050000D01*
X72343750Y-175849992D02*
G75*
G02*
X73149418Y-175050000I800012J0D01*
G01*
X72343750Y-188449992D02*
X72343750Y-175849992D01*
X73143762Y-189250000D02*
G75*
G02*
X72343754Y-188449992I0J800008D01*
G01*
X85743750Y-189250000D02*
X73143762Y-189250000D01*
X86543750Y-188449992D02*
G75*
G02*
X85743750Y-189249980I-799988J0D01*
G01*
X86543750Y-175849992D02*
X86543750Y-188449992D01*
X85743762Y-175050000D02*
G75*
G02*
X86543754Y-175849992I0J-799992D01*
G01*
X73149418Y-175050000D02*
X85743762Y-175050000D01*
X112825000Y-156800092D02*
G75*
G02*
X113635645Y-155999999I800162J0D01*
G01*
X112825000Y-169400000D02*
X112825000Y-156800092D01*
X113624962Y-170200000D02*
G75*
G02*
X112825054Y-169400000I0J799908D01*
G01*
X126225000Y-170200000D02*
X113624962Y-170200000D01*
X127025000Y-169399992D02*
G75*
G02*
X126225000Y-170199930I-799938J0D01*
G01*
X127025000Y-156809301D02*
X127025000Y-169399992D01*
X126224962Y-156000000D02*
G75*
G02*
X127025002Y-156809301I-100J-800192D01*
G01*
X113635645Y-156000000D02*
X126224962Y-156000000D01*
X131875000Y-156799992D02*
G75*
G02*
X132685645Y-155999999I800162J-100D01*
G01*
X131875000Y-169400000D02*
X131875000Y-156799992D01*
X132674962Y-170200000D02*
G75*
G02*
X131875054Y-169400000I0J799908D01*
G01*
X145275000Y-170200000D02*
X132674962Y-170200000D01*
X146075000Y-169399992D02*
G75*
G02*
X145275000Y-170199930I-799938J0D01*
G01*
X146075000Y-156809301D02*
X146075000Y-169399992D01*
X145274962Y-156000000D02*
G75*
G02*
X146075002Y-156809301I-100J-800192D01*
G01*
X132685645Y-156000000D02*
X145274962Y-156000000D01*
X150925000Y-156799992D02*
G75*
G02*
X151735645Y-155999999I800162J-100D01*
G01*
X150925000Y-169400000D02*
X150925000Y-156799992D01*
X151724962Y-170200000D02*
G75*
G02*
X150925054Y-169400000I0J799908D01*
G01*
X164325000Y-170200000D02*
X151724962Y-170200000D01*
X165125000Y-169399992D02*
G75*
G02*
X164325000Y-170199930I-799938J0D01*
G01*
X165125000Y-156809301D02*
X165125000Y-169399992D01*
X164324962Y-156000000D02*
G75*
G02*
X165125002Y-156809301I-100J-800192D01*
G01*
X151735645Y-156000000D02*
X164324962Y-156000000D01*
X169975000Y-156800092D02*
G75*
G02*
X170785645Y-155999999I800162J0D01*
G01*
X169975000Y-169400000D02*
X169975000Y-156800092D01*
X170774962Y-170200000D02*
G75*
G02*
X169975054Y-169400000I0J799908D01*
G01*
X183375000Y-170200000D02*
X170774962Y-170200000D01*
X184175000Y-169399992D02*
G75*
G02*
X183375000Y-170199930I-799938J0D01*
G01*
X184175000Y-156809301D02*
X184175000Y-169399992D01*
X183374962Y-156000000D02*
G75*
G02*
X184175002Y-156809301I-100J-800192D01*
G01*
X170785645Y-156000000D02*
X183374962Y-156000000D01*
X189025000Y-156799992D02*
G75*
G02*
X189835645Y-155999999I800162J-100D01*
G01*
X189025000Y-169400000D02*
X189025000Y-156799992D01*
X189824962Y-170200000D02*
G75*
G02*
X189025054Y-169400000I0J799908D01*
G01*
X202425000Y-170200000D02*
X189824962Y-170200000D01*
X203225000Y-169399992D02*
G75*
G02*
X202425000Y-170199930I-799938J0D01*
G01*
X203225000Y-156809301D02*
X203225000Y-169399992D01*
X202424962Y-156000000D02*
G75*
G02*
X203225002Y-156809301I-100J-800192D01*
G01*
X189835645Y-156000000D02*
X202424962Y-156000000D01*
X208075000Y-156799992D02*
G75*
G02*
X208885645Y-155999999I800162J-100D01*
G01*
X208075000Y-169400000D02*
X208075000Y-156799992D01*
X208874962Y-170200000D02*
G75*
G02*
X208075054Y-169400000I0J799908D01*
G01*
X221475000Y-170200000D02*
X208874962Y-170200000D01*
X222275000Y-169399992D02*
G75*
G02*
X221475000Y-170199930I-799938J0D01*
G01*
X222275000Y-156809301D02*
X222275000Y-169399992D01*
X221474862Y-156000000D02*
G75*
G02*
X222275002Y-156809301I0J-800192D01*
G01*
X208885645Y-156000000D02*
X221474862Y-156000000D01*
X227125000Y-156799992D02*
G75*
G02*
X227935645Y-155999999I800162J-100D01*
G01*
X227125000Y-169400000D02*
X227125000Y-156799992D01*
X227924962Y-170200000D02*
G75*
G02*
X227125054Y-169400000I0J799908D01*
G01*
X240525000Y-170200000D02*
X227924962Y-170200000D01*
X241325000Y-169399992D02*
G75*
G02*
X240525000Y-170199930I-799938J0D01*
G01*
X241325000Y-156809301D02*
X241325000Y-169399992D01*
X240524962Y-156000000D02*
G75*
G02*
X241325002Y-156809301I-100J-800192D01*
G01*
X227935645Y-156000000D02*
X240524962Y-156000000D01*
X246175000Y-156799992D02*
G75*
G02*
X246985645Y-155999999I800162J-100D01*
G01*
X246175000Y-169400000D02*
X246175000Y-156799992D01*
X246974962Y-170200000D02*
G75*
G02*
X246175054Y-169400000I0J799908D01*
G01*
X259575000Y-170200000D02*
X246974962Y-170200000D01*
X260375000Y-169399992D02*
G75*
G02*
X259575000Y-170199930I-799938J0D01*
G01*
X260375000Y-156809301D02*
X260375000Y-169399992D01*
X259574962Y-156000000D02*
G75*
G02*
X260375002Y-156809301I-100J-800192D01*
G01*
X246985645Y-156000000D02*
X259574962Y-156000000D01*
X265225000Y-156799992D02*
G75*
G02*
X266035645Y-155999999I800162J-100D01*
G01*
X265225000Y-169400000D02*
X265225000Y-156799992D01*
X266024962Y-170200000D02*
G75*
G02*
X265225054Y-169400000I0J799908D01*
G01*
X278625000Y-170200000D02*
X266024962Y-170200000D01*
X279425000Y-169399992D02*
G75*
G02*
X278625000Y-170199930I-799938J0D01*
G01*
X279425000Y-156809301D02*
X279425000Y-169399992D01*
X278624962Y-156000000D02*
G75*
G02*
X279425002Y-156809301I-100J-800192D01*
G01*
X266035645Y-156000000D02*
X278624962Y-156000000D01*
X284275000Y-156799992D02*
G75*
G02*
X285085645Y-155999999I800162J-100D01*
G01*
X284275000Y-169400000D02*
X284275000Y-156799992D01*
X285074962Y-170200000D02*
G75*
G02*
X284275054Y-169400000I0J799908D01*
G01*
X297675000Y-170200000D02*
X285074962Y-170200000D01*
X298475000Y-169399992D02*
G75*
G02*
X297675000Y-170199930I-799938J0D01*
G01*
X298475000Y-156809301D02*
X298475000Y-169399992D01*
X297674962Y-156000000D02*
G75*
G02*
X298475002Y-156809301I-100J-800192D01*
G01*
X285085645Y-156000000D02*
X297674962Y-156000000D01*
X341425000Y-156799992D02*
G75*
G02*
X342235645Y-155999999I800162J-100D01*
G01*
X341425000Y-169400000D02*
X341425000Y-156799992D01*
X342224962Y-170200000D02*
G75*
G02*
X341425054Y-169400000I0J799908D01*
G01*
X354825000Y-170200000D02*
X342224962Y-170200000D01*
X355625000Y-169399992D02*
G75*
G02*
X354825000Y-170199930I-799938J0D01*
G01*
X355625000Y-156809301D02*
X355625000Y-169399992D01*
X354824962Y-156000000D02*
G75*
G02*
X355625002Y-156809301I-100J-800192D01*
G01*
X342235645Y-156000000D02*
X354824962Y-156000000D01*
X293800000Y-137749992D02*
G75*
G02*
X294610645Y-136949999I800162J-100D01*
G01*
X293800000Y-150350000D02*
X293800000Y-137749992D01*
X294599962Y-151150000D02*
G75*
G02*
X293800054Y-150350000I0J799908D01*
G01*
X307200000Y-151150000D02*
X294599962Y-151150000D01*
X308000000Y-150349992D02*
G75*
G02*
X307200000Y-151149930I-799938J0D01*
G01*
X308000000Y-137759301D02*
X308000000Y-150349992D01*
X307199962Y-136950000D02*
G75*
G02*
X308000002Y-137759301I-100J-800192D01*
G01*
X294610645Y-136950000D02*
X307199962Y-136950000D01*
X274750000Y-137749992D02*
G75*
G02*
X275560645Y-136949999I800162J-100D01*
G01*
X274750000Y-150350000D02*
X274750000Y-137749992D01*
X275549962Y-151150000D02*
G75*
G02*
X274750054Y-150350000I0J799908D01*
G01*
X288150000Y-151150000D02*
X275549962Y-151150000D01*
X288950000Y-150349992D02*
G75*
G02*
X288150000Y-151149930I-799938J0D01*
G01*
X288950000Y-137759301D02*
X288950000Y-150349992D01*
X288149962Y-136950000D02*
G75*
G02*
X288950002Y-137759301I-100J-800192D01*
G01*
X275560645Y-136950000D02*
X288149962Y-136950000D01*
X255700000Y-137749992D02*
G75*
G02*
X256510645Y-136949999I800162J-100D01*
G01*
X255700000Y-150350000D02*
X255700000Y-137749992D01*
X256499962Y-151150000D02*
G75*
G02*
X255700054Y-150350000I0J799908D01*
G01*
X269100000Y-151150000D02*
X256499962Y-151150000D01*
X269900000Y-150349992D02*
G75*
G02*
X269100000Y-151149930I-799938J0D01*
G01*
X269900000Y-137759301D02*
X269900000Y-150349992D01*
X269099862Y-136950000D02*
G75*
G02*
X269900002Y-137759301I0J-800192D01*
G01*
X256510645Y-136950000D02*
X269099862Y-136950000D01*
X236650000Y-137749992D02*
G75*
G02*
X237460645Y-136949999I800162J-100D01*
G01*
X236650000Y-150350000D02*
X236650000Y-137749992D01*
X237449962Y-151150000D02*
G75*
G02*
X236650054Y-150350000I0J799908D01*
G01*
X250050000Y-151150000D02*
X237449962Y-151150000D01*
X250850000Y-150349992D02*
G75*
G02*
X250050000Y-151149930I-799938J0D01*
G01*
X250850000Y-137759301D02*
X250850000Y-150349992D01*
X250049962Y-136950000D02*
G75*
G02*
X250850002Y-137759301I-100J-800192D01*
G01*
X237460645Y-136950000D02*
X250049962Y-136950000D01*
X217600000Y-137749992D02*
G75*
G02*
X218410645Y-136949999I800162J-100D01*
G01*
X217600000Y-150350000D02*
X217600000Y-137749992D01*
X218399962Y-151150000D02*
G75*
G02*
X217600054Y-150350000I0J799908D01*
G01*
X231000000Y-151150000D02*
X218399962Y-151150000D01*
X231800000Y-150349992D02*
G75*
G02*
X231000000Y-151149930I-799938J0D01*
G01*
X231800000Y-137759301D02*
X231800000Y-150349992D01*
X230999962Y-136950000D02*
G75*
G02*
X231800002Y-137759301I-100J-800192D01*
G01*
X218410645Y-136950000D02*
X230999962Y-136950000D01*
X198550000Y-137749992D02*
G75*
G02*
X199360645Y-136949999I800162J-100D01*
G01*
X198550000Y-150350000D02*
X198550000Y-137749992D01*
X199349962Y-151150000D02*
G75*
G02*
X198550054Y-150350000I0J799908D01*
G01*
X211950000Y-151150000D02*
X199349962Y-151150000D01*
X212750000Y-150349992D02*
G75*
G02*
X211950000Y-151149930I-799938J0D01*
G01*
X212750000Y-137759301D02*
X212750000Y-150349992D01*
X211949962Y-136950000D02*
G75*
G02*
X212750002Y-137759301I-100J-800192D01*
G01*
X199360645Y-136950000D02*
X211949962Y-136950000D01*
X179500000Y-137749992D02*
G75*
G02*
X180310645Y-136949999I800162J-100D01*
G01*
X179500000Y-150350000D02*
X179500000Y-137749992D01*
X180299962Y-151150000D02*
G75*
G02*
X179500054Y-150350000I0J799908D01*
G01*
X192900000Y-151150000D02*
X180299962Y-151150000D01*
X193700000Y-150349992D02*
G75*
G02*
X192900000Y-151149930I-799938J0D01*
G01*
X193700000Y-137759301D02*
X193700000Y-150349992D01*
X192899962Y-136950000D02*
G75*
G02*
X193700002Y-137759301I-100J-800192D01*
G01*
X180310645Y-136950000D02*
X192899962Y-136950000D01*
X160450000Y-137749992D02*
G75*
G02*
X161260645Y-136949999I800162J-100D01*
G01*
X160450000Y-150350000D02*
X160450000Y-137749992D01*
X161249962Y-151150000D02*
G75*
G02*
X160450054Y-150350000I0J799908D01*
G01*
X173850000Y-151150000D02*
X161249962Y-151150000D01*
X174650000Y-150349992D02*
G75*
G02*
X173850000Y-151149930I-799938J0D01*
G01*
X174650000Y-137759301D02*
X174650000Y-150349992D01*
X173849962Y-136950000D02*
G75*
G02*
X174650002Y-137759301I-100J-800192D01*
G01*
X161260645Y-136950000D02*
X173849962Y-136950000D01*
X141400000Y-137749992D02*
G75*
G02*
X142210645Y-136949999I800162J-100D01*
G01*
X141400000Y-150350000D02*
X141400000Y-137749992D01*
X142199962Y-151150000D02*
G75*
G02*
X141400054Y-150350000I0J799908D01*
G01*
X154800000Y-151150000D02*
X142199962Y-151150000D01*
X155600000Y-150349992D02*
G75*
G02*
X154800000Y-151149930I-799938J0D01*
G01*
X155600000Y-137759301D02*
X155600000Y-150349992D01*
X154799962Y-136950000D02*
G75*
G02*
X155600002Y-137759301I-100J-800192D01*
G01*
X142210645Y-136950000D02*
X154799962Y-136950000D01*
X122350000Y-137749992D02*
G75*
G02*
X123160645Y-136949999I800162J-100D01*
G01*
X122350000Y-150350000D02*
X122350000Y-137749992D01*
X123149962Y-151150000D02*
G75*
G02*
X122350054Y-150350000I0J799908D01*
G01*
X135750000Y-151150000D02*
X123149962Y-151150000D01*
X136550000Y-150349992D02*
G75*
G02*
X135750000Y-151149930I-799938J0D01*
G01*
X136550000Y-137759301D02*
X136550000Y-150349992D01*
X135749862Y-136950000D02*
G75*
G02*
X136550002Y-137759301I0J-800192D01*
G01*
X123160645Y-136950000D02*
X135749862Y-136950000D01*
X103300000Y-137749992D02*
G75*
G02*
X104110645Y-136949999I800162J-100D01*
G01*
X103300000Y-150350000D02*
X103300000Y-137749992D01*
X104099962Y-151150000D02*
G75*
G02*
X103300054Y-150350000I0J799908D01*
G01*
X116700000Y-151150000D02*
X104099962Y-151150000D01*
X117500000Y-150349992D02*
G75*
G02*
X116700000Y-151149930I-799938J0D01*
G01*
X117500000Y-137759301D02*
X117500000Y-150349992D01*
X116699962Y-136950000D02*
G75*
G02*
X117500002Y-137759301I-100J-800192D01*
G01*
X104110645Y-136950000D02*
X116699962Y-136950000D01*
X77106250Y-137749992D02*
G75*
G02*
X77911918Y-136950000I800012J0D01*
G01*
X77106250Y-150349992D02*
X77106250Y-137749992D01*
X77906262Y-151150000D02*
G75*
G02*
X77106254Y-150349992I0J800008D01*
G01*
X90506250Y-151150000D02*
X77906262Y-151150000D01*
X91306250Y-150349992D02*
G75*
G02*
X90506250Y-151149980I-799988J0D01*
G01*
X91306250Y-137749992D02*
X91306250Y-150349992D01*
X90506262Y-136950000D02*
G75*
G02*
X91306254Y-137749992I0J-799992D01*
G01*
X77911918Y-136950000D02*
X90506262Y-136950000D01*
X46150000Y-142512592D02*
G75*
G02*
X46960645Y-141712499I800162J0D01*
G01*
X46150000Y-155112500D02*
X46150000Y-142512592D01*
X46949962Y-155912500D02*
G75*
G02*
X46150054Y-155112500I0J799908D01*
G01*
X59550000Y-155912500D02*
X46949962Y-155912500D01*
X60350000Y-155112492D02*
G75*
G02*
X59550000Y-155912430I-799938J0D01*
G01*
X60350000Y-142521801D02*
X60350000Y-155112492D01*
X59549962Y-141712500D02*
G75*
G02*
X60350002Y-142521801I-100J-800192D01*
G01*
X46960645Y-141712500D02*
X59549962Y-141712500D01*
X46150000Y-123462492D02*
G75*
G02*
X46960645Y-122662499I800162J-100D01*
G01*
X46150000Y-136062500D02*
X46150000Y-123462492D01*
X46949962Y-136862500D02*
G75*
G02*
X46150054Y-136062500I0J799908D01*
G01*
X59550000Y-136862500D02*
X46949962Y-136862500D01*
X60350000Y-136062492D02*
G75*
G02*
X59550000Y-136862430I-799938J0D01*
G01*
X60350000Y-123471801D02*
X60350000Y-136062492D01*
X59549962Y-122662500D02*
G75*
G02*
X60350002Y-123471801I-100J-800192D01*
G01*
X46960645Y-122662500D02*
X59549962Y-122662500D01*
X74725000Y-118699992D02*
G75*
G02*
X75535645Y-117899999I800162J-100D01*
G01*
X74725000Y-131300000D02*
X74725000Y-118699992D01*
X75524962Y-132100000D02*
G75*
G02*
X74725054Y-131300000I0J799908D01*
G01*
X88125000Y-132100000D02*
X75524962Y-132100000D01*
X88925000Y-131299992D02*
G75*
G02*
X88125000Y-132099930I-799938J0D01*
G01*
X88925000Y-118709301D02*
X88925000Y-131299992D01*
X88124962Y-117900000D02*
G75*
G02*
X88925002Y-118709301I-100J-800192D01*
G01*
X75535645Y-117900000D02*
X88124962Y-117900000D01*
X98537500Y-118699992D02*
G75*
G02*
X99348145Y-117899999I800162J-100D01*
G01*
X98537500Y-131300000D02*
X98537500Y-118699992D01*
X99337462Y-132100000D02*
G75*
G02*
X98537554Y-131300000I0J799908D01*
G01*
X111937500Y-132100000D02*
X99337462Y-132100000D01*
X112737500Y-131299992D02*
G75*
G02*
X111937500Y-132099930I-799938J0D01*
G01*
X112737500Y-118709301D02*
X112737500Y-131299992D01*
X111937462Y-117900000D02*
G75*
G02*
X112737502Y-118709301I-100J-800192D01*
G01*
X99348145Y-117900000D02*
X111937462Y-117900000D01*
X117587500Y-118699992D02*
G75*
G02*
X118398145Y-117899999I800162J-100D01*
G01*
X117587500Y-131300000D02*
X117587500Y-118699992D01*
X118387462Y-132100000D02*
G75*
G02*
X117587554Y-131300000I0J799908D01*
G01*
X130987500Y-132100000D02*
X118387462Y-132100000D01*
X131787500Y-131299992D02*
G75*
G02*
X130987500Y-132099930I-799938J0D01*
G01*
X131787500Y-118709301D02*
X131787500Y-131299992D01*
X130987462Y-117900000D02*
G75*
G02*
X131787502Y-118709301I-100J-800192D01*
G01*
X118398145Y-117900000D02*
X130987462Y-117900000D01*
X136637500Y-118699992D02*
G75*
G02*
X137448145Y-117899999I800162J-100D01*
G01*
X136637500Y-131300000D02*
X136637500Y-118699992D01*
X137437462Y-132100000D02*
G75*
G02*
X136637554Y-131300000I0J799908D01*
G01*
X150037500Y-132100000D02*
X137437462Y-132100000D01*
X150837500Y-131299992D02*
G75*
G02*
X150037500Y-132099930I-799938J0D01*
G01*
X150837500Y-118709301D02*
X150837500Y-131299992D01*
X150037462Y-117900000D02*
G75*
G02*
X150837502Y-118709301I-100J-800192D01*
G01*
X137448145Y-117900000D02*
X150037462Y-117900000D01*
X155687500Y-118699992D02*
G75*
G02*
X156498145Y-117899999I800162J-100D01*
G01*
X155687500Y-131300000D02*
X155687500Y-118699992D01*
X156487462Y-132100000D02*
G75*
G02*
X155687554Y-131300000I0J799908D01*
G01*
X169087500Y-132100000D02*
X156487462Y-132100000D01*
X169887500Y-131299992D02*
G75*
G02*
X169087500Y-132099930I-799938J0D01*
G01*
X169887500Y-118709301D02*
X169887500Y-131299992D01*
X169087362Y-117900000D02*
G75*
G02*
X169887502Y-118709301I0J-800192D01*
G01*
X156498145Y-117900000D02*
X169087362Y-117900000D01*
X174737500Y-118700092D02*
G75*
G02*
X175548145Y-117899999I800162J0D01*
G01*
X174737500Y-131300000D02*
X174737500Y-118700092D01*
X175537462Y-132100000D02*
G75*
G02*
X174737554Y-131300000I0J799908D01*
G01*
X188137500Y-132100000D02*
X175537462Y-132100000D01*
X188937500Y-131299992D02*
G75*
G02*
X188137500Y-132099930I-799938J0D01*
G01*
X188937500Y-118709301D02*
X188937500Y-131299992D01*
X188137462Y-117900000D02*
G75*
G02*
X188937502Y-118709301I-100J-800192D01*
G01*
X175548145Y-117900000D02*
X188137462Y-117900000D01*
X193787500Y-118699992D02*
G75*
G02*
X194598145Y-117899999I800162J-100D01*
G01*
X193787500Y-131300000D02*
X193787500Y-118699992D01*
X194587462Y-132100000D02*
G75*
G02*
X193787554Y-131300000I0J799908D01*
G01*
X207187500Y-132100000D02*
X194587462Y-132100000D01*
X207987500Y-131299992D02*
G75*
G02*
X207187500Y-132099930I-799938J0D01*
G01*
X207987500Y-118709301D02*
X207987500Y-131299992D01*
X207187362Y-117900000D02*
G75*
G02*
X207987502Y-118709301I0J-800192D01*
G01*
X194598145Y-117900000D02*
X207187362Y-117900000D01*
X212837500Y-118699992D02*
G75*
G02*
X213648145Y-117899999I800162J-100D01*
G01*
X212837500Y-131300000D02*
X212837500Y-118699992D01*
X213637462Y-132100000D02*
G75*
G02*
X212837554Y-131300000I0J799908D01*
G01*
X226237500Y-132100000D02*
X213637462Y-132100000D01*
X227037500Y-131299992D02*
G75*
G02*
X226237500Y-132099930I-799938J0D01*
G01*
X227037500Y-118709301D02*
X227037500Y-131299992D01*
X226237462Y-117900000D02*
G75*
G02*
X227037502Y-118709301I-100J-800192D01*
G01*
X213648145Y-117900000D02*
X226237462Y-117900000D01*
X231887500Y-118699992D02*
G75*
G02*
X232698145Y-117899999I800162J-100D01*
G01*
X231887500Y-131300000D02*
X231887500Y-118699992D01*
X232687462Y-132100000D02*
G75*
G02*
X231887554Y-131300000I0J799908D01*
G01*
X245287500Y-132100000D02*
X232687462Y-132100000D01*
X246087500Y-131299992D02*
G75*
G02*
X245287500Y-132099930I-799938J0D01*
G01*
X246087500Y-118709301D02*
X246087500Y-131299992D01*
X245287462Y-117900000D02*
G75*
G02*
X246087502Y-118709301I-100J-800192D01*
G01*
X232698145Y-117900000D02*
X245287462Y-117900000D01*
X250937500Y-118699992D02*
G75*
G02*
X251748145Y-117899999I800162J-100D01*
G01*
X250937500Y-131300000D02*
X250937500Y-118699992D01*
X251737462Y-132100000D02*
G75*
G02*
X250937554Y-131300000I0J799908D01*
G01*
X264337500Y-132100000D02*
X251737462Y-132100000D01*
X265137500Y-131299992D02*
G75*
G02*
X264337500Y-132099930I-799938J0D01*
G01*
X265137500Y-118709301D02*
X265137500Y-131299992D01*
X264337462Y-117900000D02*
G75*
G02*
X265137502Y-118709301I-100J-800192D01*
G01*
X251748145Y-117900000D02*
X264337462Y-117900000D01*
X269987500Y-118699992D02*
G75*
G02*
X270798145Y-117899999I800162J-100D01*
G01*
X269987500Y-131300000D02*
X269987500Y-118699992D01*
X270787462Y-132100000D02*
G75*
G02*
X269987554Y-131300000I0J799908D01*
G01*
X283387500Y-132100000D02*
X270787462Y-132100000D01*
X284187500Y-131299992D02*
G75*
G02*
X283387500Y-132099930I-799938J0D01*
G01*
X284187500Y-118709301D02*
X284187500Y-131299992D01*
X283387462Y-117900000D02*
G75*
G02*
X284187502Y-118709301I-100J-800192D01*
G01*
X270798145Y-117900000D02*
X283387462Y-117900000D01*
X289037500Y-118699992D02*
G75*
G02*
X289848145Y-117899999I800162J-100D01*
G01*
X289037500Y-131300000D02*
X289037500Y-118699992D01*
X289837462Y-132100000D02*
G75*
G02*
X289037554Y-131300000I0J799908D01*
G01*
X302437500Y-132100000D02*
X289837462Y-132100000D01*
X303237500Y-131299992D02*
G75*
G02*
X302437500Y-132099930I-799938J0D01*
G01*
X303237500Y-118709301D02*
X303237500Y-131299992D01*
X302437362Y-117900000D02*
G75*
G02*
X303237502Y-118709301I0J-800192D01*
G01*
X289848145Y-117900000D02*
X302437362Y-117900000D01*
X308087500Y-118699992D02*
G75*
G02*
X308898145Y-117899999I800162J-100D01*
G01*
X308087500Y-131300000D02*
X308087500Y-118699992D01*
X308887462Y-132100000D02*
G75*
G02*
X308087554Y-131300000I0J799908D01*
G01*
X321487500Y-132100000D02*
X308887462Y-132100000D01*
X322287500Y-131299992D02*
G75*
G02*
X321487500Y-132099930I-799938J0D01*
G01*
X322287500Y-118709301D02*
X322287500Y-131299992D01*
X321487462Y-117900000D02*
G75*
G02*
X322287502Y-118709301I-100J-800192D01*
G01*
X308898145Y-117900000D02*
X321487462Y-117900000D01*
X331900000Y-118699992D02*
G75*
G02*
X332710645Y-117899999I800162J-100D01*
G01*
X331900000Y-131300000D02*
X331900000Y-118699992D01*
X332699962Y-132100000D02*
G75*
G02*
X331900054Y-131300000I0J799908D01*
G01*
X345300000Y-132100000D02*
X332699962Y-132100000D01*
X346100000Y-131299992D02*
G75*
G02*
X345300000Y-132099930I-799938J0D01*
G01*
X346100000Y-118709301D02*
X346100000Y-131299992D01*
X345299962Y-117900000D02*
G75*
G02*
X346100002Y-118709301I-100J-800192D01*
G01*
X332710645Y-117900000D02*
X345299962Y-117900000D01*
X360475000Y-118699992D02*
G75*
G02*
X361285645Y-117899999I800162J-100D01*
G01*
X360475000Y-131300000D02*
X360475000Y-118699992D01*
X361274962Y-132100000D02*
G75*
G02*
X360475054Y-131300000I0J799908D01*
G01*
X373875000Y-132100000D02*
X361274962Y-132100000D01*
X374675000Y-131299992D02*
G75*
G02*
X373875000Y-132099930I-799938J0D01*
G01*
X374675000Y-118709301D02*
X374675000Y-131299992D01*
X373874962Y-117900000D02*
G75*
G02*
X374675002Y-118709301I-100J-800192D01*
G01*
X361285645Y-117900000D02*
X373874962Y-117900000D01*
X360475000Y-99649992D02*
G75*
G02*
X361285645Y-98849999I800162J-100D01*
G01*
X360475000Y-112250000D02*
X360475000Y-99649992D01*
X361274962Y-113050000D02*
G75*
G02*
X360475054Y-112250000I0J799908D01*
G01*
X373875000Y-113050000D02*
X361274962Y-113050000D01*
X374675000Y-112249992D02*
G75*
G02*
X373875000Y-113049930I-799938J0D01*
G01*
X374675000Y-99659301D02*
X374675000Y-112249992D01*
X373874962Y-98850000D02*
G75*
G02*
X374675002Y-99659301I-100J-800192D01*
G01*
X361285645Y-98850000D02*
X373874962Y-98850000D01*
X336662500Y-99649992D02*
G75*
G02*
X337473145Y-98849999I800162J-100D01*
G01*
X336662500Y-112250000D02*
X336662500Y-99649992D01*
X337462462Y-113050000D02*
G75*
G02*
X336662554Y-112250000I0J799908D01*
G01*
X350062500Y-113050000D02*
X337462462Y-113050000D01*
X350862500Y-112249992D02*
G75*
G02*
X350062500Y-113049930I-799938J0D01*
G01*
X350862500Y-99659301D02*
X350862500Y-112249992D01*
X350062462Y-98850000D02*
G75*
G02*
X350862502Y-99659301I-100J-800192D01*
G01*
X337473145Y-98850000D02*
X350062462Y-98850000D01*
X317612500Y-99649992D02*
G75*
G02*
X318423145Y-98849999I800162J-100D01*
G01*
X317612500Y-112250000D02*
X317612500Y-99649992D01*
X318412462Y-113050000D02*
G75*
G02*
X317612554Y-112250000I0J799908D01*
G01*
X331012500Y-113050000D02*
X318412462Y-113050000D01*
X331812500Y-112249992D02*
G75*
G02*
X331012500Y-113049930I-799938J0D01*
G01*
X331812500Y-99659301D02*
X331812500Y-112249992D01*
X331012462Y-98850000D02*
G75*
G02*
X331812502Y-99659301I-100J-800192D01*
G01*
X318423145Y-98850000D02*
X331012462Y-98850000D01*
X298562500Y-99649992D02*
G75*
G02*
X299373145Y-98849999I800162J-100D01*
G01*
X298562500Y-112250000D02*
X298562500Y-99649992D01*
X299362462Y-113050000D02*
G75*
G02*
X298562554Y-112250000I0J799908D01*
G01*
X311962500Y-113050000D02*
X299362462Y-113050000D01*
X312762500Y-112249992D02*
G75*
G02*
X311962500Y-113049930I-799938J0D01*
G01*
X312762500Y-99659301D02*
X312762500Y-112249992D01*
X311962462Y-98850000D02*
G75*
G02*
X312762502Y-99659301I-100J-800192D01*
G01*
X299373145Y-98850000D02*
X311962462Y-98850000D01*
X279512500Y-99649992D02*
G75*
G02*
X280323145Y-98849999I800162J-100D01*
G01*
X279512500Y-112250000D02*
X279512500Y-99649992D01*
X280312462Y-113050000D02*
G75*
G02*
X279512554Y-112250000I0J799908D01*
G01*
X292912500Y-113050000D02*
X280312462Y-113050000D01*
X293712500Y-112249992D02*
G75*
G02*
X292912500Y-113049930I-799938J0D01*
G01*
X293712500Y-99659301D02*
X293712500Y-112249992D01*
X292912462Y-98850000D02*
G75*
G02*
X293712502Y-99659301I-100J-800192D01*
G01*
X280323145Y-98850000D02*
X292912462Y-98850000D01*
X260462500Y-99649992D02*
G75*
G02*
X261273145Y-98849999I800162J-100D01*
G01*
X260462500Y-112250000D02*
X260462500Y-99649992D01*
X261262462Y-113050000D02*
G75*
G02*
X260462554Y-112250000I0J799908D01*
G01*
X273862500Y-113050000D02*
X261262462Y-113050000D01*
X274662500Y-112249992D02*
G75*
G02*
X273862500Y-113049930I-799938J0D01*
G01*
X274662500Y-99659301D02*
X274662500Y-112249992D01*
X273862462Y-98850000D02*
G75*
G02*
X274662502Y-99659301I-100J-800192D01*
G01*
X261273145Y-98850000D02*
X273862462Y-98850000D01*
X241412500Y-99649992D02*
G75*
G02*
X242223145Y-98849999I800162J-100D01*
G01*
X241412500Y-112250000D02*
X241412500Y-99649992D01*
X242212462Y-113050000D02*
G75*
G02*
X241412554Y-112250000I0J799908D01*
G01*
X254812500Y-113050000D02*
X242212462Y-113050000D01*
X255612500Y-112249992D02*
G75*
G02*
X254812500Y-113049930I-799938J0D01*
G01*
X255612500Y-99659301D02*
X255612500Y-112249992D01*
X254812462Y-98850000D02*
G75*
G02*
X255612502Y-99659301I-100J-800192D01*
G01*
X242223145Y-98850000D02*
X254812462Y-98850000D01*
X222362500Y-99650092D02*
G75*
G02*
X223173145Y-98849999I800162J0D01*
G01*
X222362500Y-112250000D02*
X222362500Y-99650092D01*
X223162462Y-113050000D02*
G75*
G02*
X222362554Y-112250000I0J799908D01*
G01*
X235762500Y-113050000D02*
X223162462Y-113050000D01*
X236562500Y-112249992D02*
G75*
G02*
X235762500Y-113049930I-799938J0D01*
G01*
X236562500Y-99659301D02*
X236562500Y-112249992D01*
X235762462Y-98850000D02*
G75*
G02*
X236562502Y-99659301I-100J-800192D01*
G01*
X223173145Y-98850000D02*
X235762462Y-98850000D01*
X203312500Y-99649992D02*
G75*
G02*
X204123145Y-98849999I800162J-100D01*
G01*
X203312500Y-112250000D02*
X203312500Y-99649992D01*
X204112462Y-113050000D02*
G75*
G02*
X203312554Y-112250000I0J799908D01*
G01*
X216712500Y-113050000D02*
X204112462Y-113050000D01*
X217512500Y-112249992D02*
G75*
G02*
X216712500Y-113049930I-799938J0D01*
G01*
X217512500Y-99659301D02*
X217512500Y-112249992D01*
X216712462Y-98850000D02*
G75*
G02*
X217512502Y-99659301I-100J-800192D01*
G01*
X204123145Y-98850000D02*
X216712462Y-98850000D01*
X184262500Y-99649992D02*
G75*
G02*
X185073145Y-98849999I800162J-100D01*
G01*
X184262500Y-112250000D02*
X184262500Y-99649992D01*
X185062462Y-113050000D02*
G75*
G02*
X184262554Y-112250000I0J799908D01*
G01*
X197662500Y-113050000D02*
X185062462Y-113050000D01*
X198462500Y-112249992D02*
G75*
G02*
X197662500Y-113049930I-799938J0D01*
G01*
X198462500Y-99659301D02*
X198462500Y-112249992D01*
X197662462Y-98850000D02*
G75*
G02*
X198462502Y-99659301I-100J-800192D01*
G01*
X185073145Y-98850000D02*
X197662462Y-98850000D01*
X165212500Y-99649992D02*
G75*
G02*
X166023145Y-98849999I800162J-100D01*
G01*
X165212500Y-112250000D02*
X165212500Y-99649992D01*
X166012462Y-113050000D02*
G75*
G02*
X165212554Y-112250000I0J799908D01*
G01*
X178612500Y-113050000D02*
X166012462Y-113050000D01*
X179412500Y-112249992D02*
G75*
G02*
X178612500Y-113049930I-799938J0D01*
G01*
X179412500Y-99659301D02*
X179412500Y-112249992D01*
X178612462Y-98850000D02*
G75*
G02*
X179412502Y-99659301I-100J-800192D01*
G01*
X166023145Y-98850000D02*
X178612462Y-98850000D01*
X146162500Y-99649992D02*
G75*
G02*
X146973145Y-98849999I800162J-100D01*
G01*
X146162500Y-112250000D02*
X146162500Y-99649992D01*
X146962462Y-113050000D02*
G75*
G02*
X146162554Y-112250000I0J799908D01*
G01*
X159562500Y-113050000D02*
X146962462Y-113050000D01*
X160362500Y-112249992D02*
G75*
G02*
X159562500Y-113049930I-799938J0D01*
G01*
X160362500Y-99659301D02*
X160362500Y-112249992D01*
X159562462Y-98850000D02*
G75*
G02*
X160362502Y-99659301I-100J-800192D01*
G01*
X146973145Y-98850000D02*
X159562462Y-98850000D01*
X127112500Y-99649992D02*
G75*
G02*
X127923145Y-98849999I800162J-100D01*
G01*
X127112500Y-112250000D02*
X127112500Y-99649992D01*
X127912462Y-113050000D02*
G75*
G02*
X127112554Y-112250000I0J799908D01*
G01*
X140512500Y-113050000D02*
X127912462Y-113050000D01*
X141312500Y-112249992D02*
G75*
G02*
X140512500Y-113049930I-799938J0D01*
G01*
X141312500Y-99659301D02*
X141312500Y-112249992D01*
X140512362Y-98850000D02*
G75*
G02*
X141312502Y-99659301I0J-800192D01*
G01*
X127923145Y-98850000D02*
X140512362Y-98850000D01*
X108062500Y-99650092D02*
G75*
G02*
X108873145Y-98849999I800162J0D01*
G01*
X108062500Y-112250000D02*
X108062500Y-99650092D01*
X108862462Y-113050000D02*
G75*
G02*
X108062554Y-112250000I0J799908D01*
G01*
X121462500Y-113050000D02*
X108862462Y-113050000D01*
X122262500Y-112249992D02*
G75*
G02*
X121462500Y-113049930I-799938J0D01*
G01*
X122262500Y-99659301D02*
X122262500Y-112249992D01*
X121462462Y-98850000D02*
G75*
G02*
X122262502Y-99659301I-100J-800192D01*
G01*
X108873145Y-98850000D02*
X121462462Y-98850000D01*
X89012500Y-99649992D02*
G75*
G02*
X89823145Y-98849999I800162J-100D01*
G01*
X89012500Y-112250000D02*
X89012500Y-99649992D01*
X89812462Y-113050000D02*
G75*
G02*
X89012554Y-112250000I0J799908D01*
G01*
X102412500Y-113050000D02*
X89812462Y-113050000D01*
X103212500Y-112249992D02*
G75*
G02*
X102412500Y-113049930I-799938J0D01*
G01*
X103212500Y-99659301D02*
X103212500Y-112249992D01*
X102412462Y-98850000D02*
G75*
G02*
X103212502Y-99659301I-100J-800192D01*
G01*
X89823145Y-98850000D02*
X102412462Y-98850000D01*
X69962500Y-99649992D02*
G75*
G02*
X70773145Y-98849999I800162J-100D01*
G01*
X69962500Y-112250000D02*
X69962500Y-99649992D01*
X70762462Y-113050000D02*
G75*
G02*
X69962554Y-112250000I0J799908D01*
G01*
X83362500Y-113050000D02*
X70762462Y-113050000D01*
X84162500Y-112249992D02*
G75*
G02*
X83362500Y-113049930I-799938J0D01*
G01*
X84162500Y-99659301D02*
X84162500Y-112249992D01*
X83362462Y-98850000D02*
G75*
G02*
X84162502Y-99659301I-100J-800192D01*
G01*
X70773145Y-98850000D02*
X83362462Y-98850000D01*
X46150000Y-99650092D02*
G75*
G02*
X46960645Y-98849999I800162J0D01*
G01*
X46150000Y-112250000D02*
X46150000Y-99650092D01*
X46949962Y-113050000D02*
G75*
G02*
X46150054Y-112250000I0J799908D01*
G01*
X59550000Y-113050000D02*
X46949962Y-113050000D01*
X60350000Y-112249992D02*
G75*
G02*
X59550000Y-113049930I-799938J0D01*
G01*
X60350000Y-99659301D02*
X60350000Y-112249992D01*
X59549962Y-98850000D02*
G75*
G02*
X60350002Y-99659301I-100J-800192D01*
G01*
X46960645Y-98850000D02*
X59549962Y-98850000D01*
M02*
