%TF.GenerationSoftware,KiCad,Pcbnew,9.0.2*%
%TF.CreationDate,2025-08-18T14:39:33+09:00*%
%TF.ProjectId,CL70_Plate,434c3730-5f50-46c6-9174-652e6b696361,rev?*%
%TF.SameCoordinates,Original*%
%TF.FileFunction,Soldermask,Top*%
%TF.FilePolarity,Negative*%
%FSLAX46Y46*%
G04 Gerber Fmt 4.6, Leading zero omitted, Abs format (unit mm)*
G04 Created by KiCad (PCBNEW 9.0.2) date 2025-08-18 14:39:33*
%MOMM*%
%LPD*%
G01*
G04 APERTURE LIST*
%ADD10C,0.300000*%
G04 APERTURE END LIST*
D10*
X50550062Y-173156330D02*
X50550062Y-173156250D01*
X315605954Y-144349492D02*
X315605930Y-144349492D01*
X335629862Y-93099992D02*
X335629862Y-93100000D01*
X378524979Y-170565292D02*
X378525000Y-170565292D01*
X76715062Y-94999992D02*
X76715062Y-95000000D01*
X206888424Y-184649292D02*
X206888500Y-184649292D01*
X222212424Y-184649292D02*
X222212500Y-184649292D01*
X244988424Y-184649292D02*
X244988500Y-184649292D01*
X252863484Y-181850492D02*
X252863500Y-181850492D01*
X250312414Y-174599292D02*
X250312500Y-174599292D01*
X212212414Y-174599292D02*
X212212500Y-174599292D01*
X155062414Y-174599292D02*
X155062500Y-174599292D01*
X149738424Y-184649292D02*
X149738500Y-184649292D01*
X165062424Y-184649292D02*
X165062500Y-184649292D01*
X187838424Y-184649292D02*
X187838500Y-184649292D01*
X195713484Y-181850492D02*
X195713500Y-181850492D01*
X193162414Y-174599292D02*
X193162500Y-174599292D01*
X304525154Y-169669492D02*
X304525150Y-169669492D01*
X306250454Y-170869792D02*
X306250440Y-170869792D01*
X328325254Y-169669492D02*
X328325250Y-169669492D01*
X330049154Y-170869792D02*
X330049150Y-170869792D01*
X72718454Y-163399492D02*
X72718430Y-163399492D01*
X77835577Y-93591250D02*
G75*
G02*
X76715062Y-94999993I-1120515J-258742D01*
G01*
X44150012Y-95000000D02*
X76715062Y-95000000D01*
X42300000Y-96850012D02*
G75*
G02*
X44150012Y-95000000I1850012J0D01*
G01*
X42300000Y-191250000D02*
X42300000Y-96850012D01*
X44149962Y-193100000D02*
G75*
G02*
X42300054Y-191250000I0J1849908D01*
G01*
X54335762Y-193100000D02*
X44149962Y-193100000D01*
X54335762Y-193100000D02*
G75*
G02*
X55145797Y-193433623I0J-1150192D01*
G01*
X56458920Y-194746788D02*
X55145776Y-193433644D01*
X57064162Y-195000000D02*
G75*
G02*
X56458929Y-194746780I0J849908D01*
G01*
X67103862Y-195000000D02*
X57064162Y-195000000D01*
X67103862Y-195000000D02*
G75*
G02*
X69831835Y-196574995I0J-3149992D01*
G01*
X74768172Y-196575000D02*
G75*
G02*
X69831828Y-196575000I-2468172J1425000D01*
G01*
X74768172Y-196575000D02*
G75*
G02*
X77487113Y-195000000I2727990J-1574992D01*
G01*
X87535786Y-195000000D02*
X77487113Y-195000000D01*
X88136819Y-194751049D02*
G75*
G02*
X87535786Y-194999974I-600957J600957D01*
G01*
X89451118Y-193436749D02*
X88136819Y-194751049D01*
X89451118Y-193436749D02*
G75*
G02*
X90256580Y-193099959I813144J-813143D01*
G01*
X117438862Y-193100000D02*
X90256580Y-193100000D01*
X117438862Y-193100000D02*
G75*
G02*
X118247351Y-193432110I-100J-1150392D01*
G01*
X119562684Y-194747427D02*
X118247359Y-193432102D01*
X120167362Y-195000000D02*
G75*
G02*
X119562663Y-194747448I0J850208D01*
G01*
X134969462Y-195000000D02*
X120167362Y-195000000D01*
X134969462Y-195000000D02*
G75*
G02*
X137697441Y-196575006I0J-3149992D01*
G01*
X142633797Y-196575000D02*
G75*
G02*
X137697453Y-196575000I-2468172J1425000D01*
G01*
X142633797Y-196575000D02*
G75*
G02*
X145361777Y-195000009I2727965J-1574992D01*
G01*
X168498286Y-195000000D02*
X145361777Y-195000000D01*
X169099319Y-194751049D02*
G75*
G02*
X168498286Y-194999974I-600957J600957D01*
G01*
X170413618Y-193436749D02*
X169099319Y-194751049D01*
X170413618Y-193436749D02*
G75*
G02*
X171219080Y-193099959I813144J-813143D01*
G01*
X230548262Y-193100000D02*
X171219080Y-193100000D01*
X230548262Y-193100000D02*
G75*
G02*
X231358297Y-193433623I0J-1150192D01*
G01*
X232671420Y-194746788D02*
X231358276Y-193433644D01*
X233276662Y-195000000D02*
G75*
G02*
X232671429Y-194746780I0J849908D01*
G01*
X256413262Y-195000000D02*
X233276662Y-195000000D01*
X256413262Y-195000000D02*
G75*
G02*
X259141185Y-196575010I0J-3149892D01*
G01*
X264077547Y-196575000D02*
G75*
G02*
X259141201Y-196575000I-2468173J1425000D01*
G01*
X264077547Y-196575000D02*
G75*
G02*
X266805462Y-195000002I2727915J-1574892D01*
G01*
X281607662Y-195000000D02*
X266805462Y-195000000D01*
X282208707Y-194751036D02*
G75*
G02*
X281607662Y-194999997I-601045J601044D01*
G01*
X283522906Y-193436836D02*
X282208707Y-194751036D01*
X283522906Y-193436836D02*
G75*
G02*
X284328579Y-193099959I813356J-813356D01*
G01*
X330560762Y-193100000D02*
X284328579Y-193100000D01*
X330560762Y-193100000D02*
G75*
G02*
X331370797Y-193433623I0J-1150192D01*
G01*
X332683920Y-194746788D02*
X331370776Y-193433644D01*
X333289162Y-195000000D02*
G75*
G02*
X332683929Y-194746780I0J849908D01*
G01*
X343328862Y-195000000D02*
X333289162Y-195000000D01*
X343328862Y-195000000D02*
G75*
G02*
X346056835Y-196574995I0J-3149992D01*
G01*
X350993172Y-196575000D02*
G75*
G02*
X346056826Y-196575000I-2468173J1425000D01*
G01*
X350993172Y-196575000D02*
G75*
G02*
X353712113Y-195000000I2727990J-1574992D01*
G01*
X363760786Y-195000000D02*
X353712113Y-195000000D01*
X364361819Y-194751049D02*
G75*
G02*
X363760786Y-194999974I-600957J600957D01*
G01*
X365676118Y-193436749D02*
X364361819Y-194751049D01*
X365676118Y-193436749D02*
G75*
G02*
X366481580Y-193099959I813144J-813143D01*
G01*
X376675000Y-193100000D02*
X366481580Y-193100000D01*
X378525000Y-191249992D02*
G75*
G02*
X376675000Y-193099930I-1849938J0D01*
G01*
X378525000Y-170565292D02*
X378525000Y-191249992D01*
X377646250Y-169715760D02*
G75*
G02*
X378524979Y-170565292I28712J-849532D01*
G01*
X377646250Y-169715760D02*
G75*
G02*
X377646250Y-137434244I-546248J16140758D01*
G01*
X378525000Y-136584692D02*
G75*
G02*
X377646250Y-137434245I-850038J0D01*
G01*
X378525000Y-96864095D02*
X378525000Y-136584692D01*
X376674862Y-95000000D02*
G75*
G02*
X378525002Y-96864095I0J-1850192D01*
G01*
X344109962Y-95000000D02*
X376674862Y-95000000D01*
X344109962Y-95000000D02*
G75*
G02*
X342989438Y-93591254I0J1150008D01*
G01*
X337600432Y-91810000D02*
G75*
G02*
X342989347Y-93591233I2612030J-1139992D01*
G01*
X337600432Y-91810000D02*
G75*
G02*
X335629862Y-93099992I-1970570J860108D01*
G01*
X309483048Y-93100000D02*
X335629862Y-93100000D01*
X308875751Y-93348881D02*
G75*
G02*
X309483048Y-93099957I601011J-601011D01*
G01*
X307561451Y-94663181D02*
X308875751Y-93348881D01*
X307561451Y-94663181D02*
G75*
G02*
X306748286Y-94999973I-813089J813089D01*
G01*
X285526562Y-95000000D02*
X306748286Y-95000000D01*
X285526562Y-95000000D02*
G75*
G02*
X284718532Y-94668147I100J1149908D01*
G01*
X283402126Y-93351758D02*
X284718523Y-94668156D01*
X282798262Y-93100000D02*
G75*
G02*
X283402147Y-93351737I0J-850192D01*
G01*
X263233662Y-93100000D02*
X282798262Y-93100000D01*
X263233662Y-93100000D02*
G75*
G02*
X260505676Y-91524998I0J3150008D01*
G01*
X255569327Y-91525000D02*
G75*
G02*
X260505673Y-91525000I2468173J-1425000D01*
G01*
X255569327Y-91525000D02*
G75*
G02*
X252841347Y-93099983I-2727965J1575008D01*
G01*
X233283048Y-93100000D02*
X252841347Y-93100000D01*
X232675751Y-93348881D02*
G75*
G02*
X233283048Y-93099957I601011J-601011D01*
G01*
X231361451Y-94663181D02*
X232675751Y-93348881D01*
X231361451Y-94663181D02*
G75*
G02*
X230548286Y-94999973I-813089J813089D01*
G01*
X190276562Y-95000000D02*
X230548286Y-95000000D01*
X190276562Y-95000000D02*
G75*
G02*
X189468532Y-94668147I100J1149908D01*
G01*
X188152126Y-93351758D02*
X189468523Y-94668156D01*
X187548262Y-93100000D02*
G75*
G02*
X188152147Y-93351737I0J-850192D01*
G01*
X167983662Y-93100000D02*
X187548262Y-93100000D01*
X167983662Y-93100000D02*
G75*
G02*
X165255676Y-91524998I0J3150008D01*
G01*
X160319327Y-91525000D02*
G75*
G02*
X165255673Y-91525000I2468173J-1425000D01*
G01*
X160319327Y-91525000D02*
G75*
G02*
X157591347Y-93099983I-2727965J1575008D01*
G01*
X138033048Y-93100000D02*
X157591347Y-93100000D01*
X137425751Y-93348881D02*
G75*
G02*
X138033048Y-93099957I601011J-601011D01*
G01*
X136111451Y-94663181D02*
X137425751Y-93348881D01*
X136111451Y-94663181D02*
G75*
G02*
X135298286Y-94999973I-813089J813089D01*
G01*
X114076562Y-95000000D02*
X135298286Y-95000000D01*
X114076562Y-95000000D02*
G75*
G02*
X113268532Y-94668147I100J1149908D01*
G01*
X111952126Y-93351758D02*
X113268523Y-94668156D01*
X111348262Y-93100000D02*
G75*
G02*
X111952147Y-93351737I0J-850192D01*
G01*
X85195062Y-93100000D02*
X111348262Y-93100000D01*
X85195062Y-93100000D02*
G75*
G02*
X83224607Y-91809983I0J2149908D01*
G01*
X77835577Y-93591250D02*
G75*
G02*
X83224571Y-91809999I2776925J641248D01*
G01*
X360325000Y-175849992D02*
G75*
G02*
X361286594Y-174899999I950162J-100D01*
G01*
X360325000Y-188450000D02*
X360325000Y-175849992D01*
X361274962Y-189400000D02*
G75*
G02*
X360325054Y-188450000I0J949908D01*
G01*
X373875000Y-189400000D02*
X361274962Y-189400000D01*
X374825000Y-188449992D02*
G75*
G02*
X373875000Y-189399930I-949938J0D01*
G01*
X374825000Y-175860127D02*
X374825000Y-188449992D01*
X373874962Y-174900000D02*
G75*
G02*
X374825002Y-175860127I-100J-950192D01*
G01*
X361286594Y-174900000D02*
X373874962Y-174900000D01*
X341275000Y-175849992D02*
G75*
G02*
X342236594Y-174899999I950162J-100D01*
G01*
X341275000Y-188450000D02*
X341275000Y-175849992D01*
X342224962Y-189400000D02*
G75*
G02*
X341275054Y-188450000I0J949908D01*
G01*
X354825000Y-189400000D02*
X342224962Y-189400000D01*
X355775000Y-188449992D02*
G75*
G02*
X354825000Y-189399930I-949938J0D01*
G01*
X355775000Y-175860127D02*
X355775000Y-188449992D01*
X354824862Y-174900000D02*
G75*
G02*
X355775002Y-175860127I0J-950192D01*
G01*
X342236594Y-174900000D02*
X354824862Y-174900000D01*
X322225000Y-175849992D02*
G75*
G02*
X323186594Y-174899999I950162J-100D01*
G01*
X322225000Y-188450000D02*
X322225000Y-175849992D01*
X323174962Y-189400000D02*
G75*
G02*
X322225054Y-188450000I0J949908D01*
G01*
X335775000Y-189400000D02*
X323174962Y-189400000D01*
X336725000Y-188449992D02*
G75*
G02*
X335775000Y-189399930I-949938J0D01*
G01*
X336725000Y-175860127D02*
X336725000Y-188449992D01*
X335774962Y-174900000D02*
G75*
G02*
X336725002Y-175860127I-100J-950192D01*
G01*
X323186594Y-174900000D02*
X335774962Y-174900000D01*
X291268750Y-175849992D02*
G75*
G02*
X292224926Y-174900000I950012J0D01*
G01*
X291268750Y-188449992D02*
X291268750Y-175849992D01*
X292218762Y-189400000D02*
G75*
G02*
X291268754Y-188449992I0J950008D01*
G01*
X304818750Y-189400000D02*
X292218762Y-189400000D01*
X305768750Y-188449992D02*
G75*
G02*
X304818750Y-189399980I-949988J0D01*
G01*
X305768750Y-175849992D02*
X305768750Y-188449992D01*
X304818762Y-174900000D02*
G75*
G02*
X305768754Y-175849992I0J-949992D01*
G01*
X292224926Y-174900000D02*
X304818762Y-174900000D01*
X265075000Y-175849992D02*
G75*
G02*
X266036594Y-174899999I950162J-100D01*
G01*
X265075000Y-188450000D02*
X265075000Y-175849992D01*
X266024962Y-189400000D02*
G75*
G02*
X265075054Y-188450000I0J949908D01*
G01*
X278625000Y-189400000D02*
X266024962Y-189400000D01*
X279575000Y-188449992D02*
G75*
G02*
X278625000Y-189399930I-949938J0D01*
G01*
X279575000Y-175860127D02*
X279575000Y-188449992D01*
X278624962Y-174900000D02*
G75*
G02*
X279575002Y-175860127I-100J-950192D01*
G01*
X266036594Y-174900000D02*
X278624962Y-174900000D01*
X208612500Y-175180392D02*
X208612500Y-174599192D01*
X208612500Y-175180392D02*
G75*
G02*
X208562500Y-175230330I-49938J0D01*
G01*
X207245562Y-175230400D02*
X208562500Y-175230400D01*
X206888500Y-175580392D02*
G75*
G02*
X207245562Y-175230398I350162J-100D01*
G01*
X206888500Y-181450492D02*
X206888500Y-175580392D01*
X206888500Y-181450492D02*
G75*
G02*
X206838500Y-181500430I-49938J0D01*
G01*
X206417853Y-181500470D02*
X206838500Y-181500470D01*
X206062500Y-181850492D02*
G75*
G02*
X206417853Y-181500468I350162J-100D01*
G01*
X206062500Y-184242000D02*
X206062500Y-181850492D01*
X206412362Y-184599230D02*
G75*
G02*
X206062498Y-184242000I100J350038D01*
G01*
X206838462Y-184599230D02*
X206412362Y-184599230D01*
X206838462Y-184599230D02*
G75*
G02*
X206888424Y-184649292I0J-49962D01*
G01*
X206888500Y-187472200D02*
X206888500Y-184649292D01*
X207238362Y-187829430D02*
G75*
G02*
X206888498Y-187472200I100J350038D01*
G01*
X213588462Y-187829430D02*
X207238362Y-187829430D01*
X213938500Y-187479392D02*
G75*
G02*
X213588462Y-187829430I-350038J0D01*
G01*
X213938500Y-184649192D02*
X213938500Y-187479392D01*
X213938500Y-184649192D02*
G75*
G02*
X213988462Y-184599230I49962J0D01*
G01*
X222162462Y-184599230D02*
X213988462Y-184599230D01*
X222162462Y-184599230D02*
G75*
G02*
X222212424Y-184649292I0J-49962D01*
G01*
X222212500Y-188450000D02*
X222212500Y-184649292D01*
X223162462Y-189400000D02*
G75*
G02*
X222212554Y-188450000I0J949908D01*
G01*
X235762500Y-189400000D02*
X223162462Y-189400000D01*
X236712500Y-188449992D02*
G75*
G02*
X235762500Y-189399930I-949938J0D01*
G01*
X236712500Y-184649192D02*
X236712500Y-188449992D01*
X236712500Y-184649192D02*
G75*
G02*
X236762462Y-184599230I49962J0D01*
G01*
X244938462Y-184599230D02*
X236762462Y-184599230D01*
X244938462Y-184599230D02*
G75*
G02*
X244988424Y-184649292I0J-49962D01*
G01*
X244988500Y-187472200D02*
X244988500Y-184649292D01*
X245338362Y-187829430D02*
G75*
G02*
X244988498Y-187472200I100J350038D01*
G01*
X251688462Y-187829430D02*
X245338362Y-187829430D01*
X252038500Y-187479392D02*
G75*
G02*
X251688462Y-187829430I-350038J0D01*
G01*
X252038500Y-184649192D02*
X252038500Y-187479392D01*
X252038500Y-184649192D02*
G75*
G02*
X252088462Y-184599230I49962J0D01*
G01*
X252513462Y-184599230D02*
X252088462Y-184599230D01*
X252863500Y-184249192D02*
G75*
G02*
X252513462Y-184599230I-350038J0D01*
G01*
X252863500Y-181850492D02*
X252863500Y-184249192D01*
X252513462Y-181500470D02*
G75*
G02*
X252863484Y-181850492I0J-350022D01*
G01*
X252088462Y-181500470D02*
X252513462Y-181500470D01*
X252088462Y-181500470D02*
G75*
G02*
X252038499Y-181451716I0J49978D01*
G01*
X252038500Y-175586583D02*
X252038500Y-181451716D01*
X251688462Y-175230400D02*
G75*
G02*
X252038503Y-175586583I-100J-350192D01*
G01*
X250362462Y-175230400D02*
X251688462Y-175230400D01*
X250362462Y-175230400D02*
G75*
G02*
X250312554Y-175180400I0J49908D01*
G01*
X250312500Y-174599292D02*
X250312500Y-175180400D01*
X249962362Y-174249240D02*
G75*
G02*
X250312414Y-174599292I100J-349952D01*
G01*
X247065107Y-174249240D02*
X249962362Y-174249240D01*
X246712500Y-174599192D02*
G75*
G02*
X247065107Y-174249240I349962J0D01*
G01*
X246712500Y-175180392D02*
X246712500Y-174599192D01*
X246712500Y-175180392D02*
G75*
G02*
X246662500Y-175230330I-49938J0D01*
G01*
X245345562Y-175230400D02*
X246662500Y-175230400D01*
X244988500Y-175580392D02*
G75*
G02*
X245345562Y-175230398I350162J-100D01*
G01*
X244988500Y-179649392D02*
X244988500Y-175580392D01*
X244988500Y-179649392D02*
G75*
G02*
X244938500Y-179699330I-49938J0D01*
G01*
X236762462Y-179699360D02*
X244938500Y-179699360D01*
X236762462Y-179699360D02*
G75*
G02*
X236712500Y-179650166I0J49968D01*
G01*
X236712500Y-175860127D02*
X236712500Y-179650166D01*
X235762462Y-174900000D02*
G75*
G02*
X236712502Y-175860127I-100J-950192D01*
G01*
X223174094Y-174900000D02*
X235762462Y-174900000D01*
X222212500Y-175849992D02*
G75*
G02*
X223174094Y-174899999I950162J-100D01*
G01*
X222212500Y-179649392D02*
X222212500Y-175849992D01*
X222212500Y-179649392D02*
G75*
G02*
X222162500Y-179699330I-49938J0D01*
G01*
X213988462Y-179699360D02*
X222162500Y-179699360D01*
X213988462Y-179699360D02*
G75*
G02*
X213938500Y-179650166I0J49968D01*
G01*
X213938500Y-175586583D02*
X213938500Y-179650166D01*
X213588462Y-175230400D02*
G75*
G02*
X213938503Y-175586583I-100J-350192D01*
G01*
X212262462Y-175230400D02*
X213588462Y-175230400D01*
X212262462Y-175230400D02*
G75*
G02*
X212212554Y-175180400I0J49908D01*
G01*
X212212500Y-174599292D02*
X212212500Y-175180400D01*
X211862362Y-174249240D02*
G75*
G02*
X212212414Y-174599292I100J-349952D01*
G01*
X208965107Y-174249240D02*
X211862362Y-174249240D01*
X208612500Y-174599192D02*
G75*
G02*
X208965107Y-174249240I349962J0D01*
G01*
X151462500Y-175180392D02*
X151462500Y-174599192D01*
X151462500Y-175180392D02*
G75*
G02*
X151412500Y-175230330I-49938J0D01*
G01*
X150095562Y-175230400D02*
X151412500Y-175230400D01*
X149738500Y-175580392D02*
G75*
G02*
X150095562Y-175230398I350162J-100D01*
G01*
X149738500Y-181450492D02*
X149738500Y-175580392D01*
X149738500Y-181450492D02*
G75*
G02*
X149688500Y-181500430I-49938J0D01*
G01*
X149267853Y-181500470D02*
X149688500Y-181500470D01*
X148912500Y-181850492D02*
G75*
G02*
X149267853Y-181500468I350162J-100D01*
G01*
X148912500Y-184242000D02*
X148912500Y-181850492D01*
X149262362Y-184599230D02*
G75*
G02*
X148912498Y-184242000I100J350038D01*
G01*
X149688462Y-184599230D02*
X149262362Y-184599230D01*
X149688462Y-184599230D02*
G75*
G02*
X149738424Y-184649292I0J-49962D01*
G01*
X149738500Y-187472200D02*
X149738500Y-184649292D01*
X150088362Y-187829430D02*
G75*
G02*
X149738498Y-187472200I100J350038D01*
G01*
X156438462Y-187829430D02*
X150088362Y-187829430D01*
X156788500Y-187479392D02*
G75*
G02*
X156438462Y-187829430I-350038J0D01*
G01*
X156788500Y-184649192D02*
X156788500Y-187479392D01*
X156788500Y-184649192D02*
G75*
G02*
X156838462Y-184599230I49962J0D01*
G01*
X165012462Y-184599230D02*
X156838462Y-184599230D01*
X165012462Y-184599230D02*
G75*
G02*
X165062424Y-184649292I0J-49962D01*
G01*
X165062500Y-188450000D02*
X165062500Y-184649292D01*
X166012462Y-189400000D02*
G75*
G02*
X165062554Y-188450000I0J949908D01*
G01*
X178612500Y-189400000D02*
X166012462Y-189400000D01*
X179562500Y-188449992D02*
G75*
G02*
X178612500Y-189399930I-949938J0D01*
G01*
X179562500Y-184649192D02*
X179562500Y-188449992D01*
X179562500Y-184649192D02*
G75*
G02*
X179612462Y-184599230I49962J0D01*
G01*
X187788462Y-184599230D02*
X179612462Y-184599230D01*
X187788462Y-184599230D02*
G75*
G02*
X187838424Y-184649292I0J-49962D01*
G01*
X187838500Y-187472200D02*
X187838500Y-184649292D01*
X188188362Y-187829430D02*
G75*
G02*
X187838498Y-187472200I100J350038D01*
G01*
X194538462Y-187829430D02*
X188188362Y-187829430D01*
X194888500Y-187479392D02*
G75*
G02*
X194538462Y-187829430I-350038J0D01*
G01*
X194888500Y-184649192D02*
X194888500Y-187479392D01*
X194888500Y-184649192D02*
G75*
G02*
X194938462Y-184599230I49962J0D01*
G01*
X195363462Y-184599230D02*
X194938462Y-184599230D01*
X195713500Y-184249192D02*
G75*
G02*
X195363462Y-184599230I-350038J0D01*
G01*
X195713500Y-181850492D02*
X195713500Y-184249192D01*
X195363462Y-181500470D02*
G75*
G02*
X195713484Y-181850492I0J-350022D01*
G01*
X194938462Y-181500470D02*
X195363462Y-181500470D01*
X194938462Y-181500470D02*
G75*
G02*
X194888499Y-181451716I0J49978D01*
G01*
X194888500Y-175586583D02*
X194888500Y-181451716D01*
X194538462Y-175230400D02*
G75*
G02*
X194888503Y-175586583I-100J-350192D01*
G01*
X193212462Y-175230400D02*
X194538462Y-175230400D01*
X193212462Y-175230400D02*
G75*
G02*
X193162554Y-175180400I0J49908D01*
G01*
X193162500Y-174599292D02*
X193162500Y-175180400D01*
X192812362Y-174249240D02*
G75*
G02*
X193162414Y-174599292I100J-349952D01*
G01*
X189915107Y-174249240D02*
X192812362Y-174249240D01*
X189562500Y-174599192D02*
G75*
G02*
X189915107Y-174249240I349962J0D01*
G01*
X189562500Y-175180392D02*
X189562500Y-174599192D01*
X189562500Y-175180392D02*
G75*
G02*
X189512500Y-175230330I-49938J0D01*
G01*
X188195562Y-175230400D02*
X189512500Y-175230400D01*
X187838500Y-175580392D02*
G75*
G02*
X188195562Y-175230398I350162J-100D01*
G01*
X187838500Y-179649392D02*
X187838500Y-175580392D01*
X187838500Y-179649392D02*
G75*
G02*
X187788500Y-179699330I-49938J0D01*
G01*
X179612462Y-179699360D02*
X187788500Y-179699360D01*
X179612462Y-179699360D02*
G75*
G02*
X179562500Y-179650166I0J49968D01*
G01*
X179562500Y-175860127D02*
X179562500Y-179650166D01*
X178612462Y-174900000D02*
G75*
G02*
X179562502Y-175860127I-100J-950192D01*
G01*
X166024094Y-174900000D02*
X178612462Y-174900000D01*
X165062500Y-175849992D02*
G75*
G02*
X166024094Y-174899999I950162J-100D01*
G01*
X165062500Y-179649392D02*
X165062500Y-175849992D01*
X165062500Y-179649392D02*
G75*
G02*
X165012500Y-179699330I-49938J0D01*
G01*
X156838462Y-179699360D02*
X165012500Y-179699360D01*
X156838462Y-179699360D02*
G75*
G02*
X156788500Y-179650166I0J49968D01*
G01*
X156788500Y-175586583D02*
X156788500Y-179650166D01*
X156438462Y-175230400D02*
G75*
G02*
X156788503Y-175586583I-100J-350192D01*
G01*
X155112462Y-175230400D02*
X156438462Y-175230400D01*
X155112462Y-175230400D02*
G75*
G02*
X155062554Y-175180400I0J49908D01*
G01*
X155062500Y-174599292D02*
X155062500Y-175180400D01*
X154712362Y-174249240D02*
G75*
G02*
X155062414Y-174599292I100J-349952D01*
G01*
X151815107Y-174249240D02*
X154712362Y-174249240D01*
X151462500Y-174599192D02*
G75*
G02*
X151815107Y-174249240I349962J0D01*
G01*
X122200000Y-175849992D02*
G75*
G02*
X123161594Y-174899999I950162J-100D01*
G01*
X122200000Y-188450000D02*
X122200000Y-175849992D01*
X123149962Y-189400000D02*
G75*
G02*
X122200054Y-188450000I0J949908D01*
G01*
X135750000Y-189400000D02*
X123149962Y-189400000D01*
X136700000Y-188449992D02*
G75*
G02*
X135750000Y-189399930I-949938J0D01*
G01*
X136700000Y-175860127D02*
X136700000Y-188449992D01*
X135749862Y-174900000D02*
G75*
G02*
X136700002Y-175860127I0J-950192D01*
G01*
X123161594Y-174900000D02*
X135749862Y-174900000D01*
X96006250Y-175849992D02*
G75*
G02*
X96962426Y-174900000I950012J0D01*
G01*
X96006250Y-188449992D02*
X96006250Y-175849992D01*
X96956262Y-189400000D02*
G75*
G02*
X96006254Y-188449992I0J950008D01*
G01*
X109556250Y-189400000D02*
X96956262Y-189400000D01*
X110506250Y-188449992D02*
G75*
G02*
X109556250Y-189399980I-949988J0D01*
G01*
X110506250Y-175849992D02*
X110506250Y-188449992D01*
X109556262Y-174900000D02*
G75*
G02*
X110506254Y-175849992I0J-949992D01*
G01*
X96962426Y-174900000D02*
X109556262Y-174900000D01*
X72193750Y-175849992D02*
G75*
G02*
X73149926Y-174900000I950012J0D01*
G01*
X72193750Y-188449992D02*
X72193750Y-175849992D01*
X73143762Y-189400000D02*
G75*
G02*
X72193754Y-188449992I0J950008D01*
G01*
X85743750Y-189400000D02*
X73143762Y-189400000D01*
X86693750Y-188449992D02*
G75*
G02*
X85743750Y-189399980I-949988J0D01*
G01*
X86693750Y-175849992D02*
X86693750Y-188449992D01*
X85743762Y-174900000D02*
G75*
G02*
X86693754Y-175849992I0J-949992D01*
G01*
X73149926Y-174900000D02*
X85743762Y-174900000D01*
X341275000Y-156799992D02*
G75*
G02*
X342236594Y-155849999I950162J-100D01*
G01*
X341275000Y-169400000D02*
X341275000Y-156799992D01*
X342224962Y-170350000D02*
G75*
G02*
X341275054Y-169400000I0J949908D01*
G01*
X354825000Y-170350000D02*
X342224962Y-170350000D01*
X355775000Y-169399992D02*
G75*
G02*
X354825000Y-170349930I-949938J0D01*
G01*
X355775000Y-156810127D02*
X355775000Y-169399992D01*
X354824962Y-155850000D02*
G75*
G02*
X355775002Y-156810127I-100J-950192D01*
G01*
X342236594Y-155850000D02*
X354824962Y-155850000D01*
X306250440Y-170869792D02*
X306250440Y-170068353D01*
X306600462Y-171219800D02*
G75*
G02*
X306250454Y-170869792I0J350008D01*
G01*
X309499450Y-171219800D02*
X306600462Y-171219800D01*
X309849450Y-170869792D02*
G75*
G02*
X309499450Y-171219780I-349988J0D01*
G01*
X309849450Y-170069492D02*
X309849450Y-170869792D01*
X309849450Y-170069492D02*
G75*
G02*
X309898048Y-170019500I50012J0D01*
G01*
X311224750Y-170019500D02*
X309898048Y-170019500D01*
X311574750Y-169669492D02*
G75*
G02*
X311224750Y-170019480I-349988J0D01*
G01*
X311574750Y-165600592D02*
X311574750Y-169669492D01*
X311574750Y-165600592D02*
G75*
G02*
X311623348Y-165550600I50012J0D01*
G01*
X312649862Y-165550600D02*
X311623348Y-165550600D01*
X312649862Y-165550600D02*
G75*
G02*
X312699995Y-165598367I0J-50192D01*
G01*
X312700000Y-169400000D02*
X312700000Y-165598367D01*
X313649962Y-170350000D02*
G75*
G02*
X312700054Y-169400000I0J949908D01*
G01*
X326250000Y-170350000D02*
X313649962Y-170350000D01*
X327200000Y-169399992D02*
G75*
G02*
X326250000Y-170349930I-949938J0D01*
G01*
X327200000Y-165600692D02*
X327200000Y-169399992D01*
X327200000Y-165600692D02*
G75*
G02*
X327247416Y-165550605I50162J0D01*
G01*
X328275262Y-165550600D02*
X327247416Y-165550600D01*
X328275262Y-165550600D02*
G75*
G02*
X328325254Y-165600592I0J-49992D01*
G01*
X328325250Y-169669492D02*
X328325250Y-165600592D01*
X328675262Y-170019500D02*
G75*
G02*
X328325254Y-169669492I0J350008D01*
G01*
X329999162Y-170019500D02*
X328675262Y-170019500D01*
X329999162Y-170019500D02*
G75*
G02*
X330049154Y-170069492I0J-49992D01*
G01*
X330049150Y-170869792D02*
X330049150Y-170069492D01*
X330399162Y-171219800D02*
G75*
G02*
X330049154Y-170869792I0J350008D01*
G01*
X333299550Y-171219800D02*
X330399162Y-171219800D01*
X333649550Y-170869792D02*
G75*
G02*
X333299550Y-171219780I-349988J0D01*
G01*
X333649550Y-170069492D02*
X333649550Y-170869792D01*
X333649550Y-170069492D02*
G75*
G02*
X333698148Y-170019500I50012J0D01*
G01*
X335024750Y-170019500D02*
X333698148Y-170019500D01*
X335374750Y-169669492D02*
G75*
G02*
X335024750Y-170019480I-349988J0D01*
G01*
X335374750Y-163799492D02*
X335374750Y-169669492D01*
X335374750Y-163799492D02*
G75*
G02*
X335423348Y-163749500I50012J0D01*
G01*
X335850250Y-163749500D02*
X335423348Y-163749500D01*
X336200250Y-163399492D02*
G75*
G02*
X335850250Y-163749480I-349988J0D01*
G01*
X336200250Y-161000692D02*
X336200250Y-163399492D01*
X335850262Y-160650700D02*
G75*
G02*
X336200254Y-161000692I0J-349992D01*
G01*
X335424762Y-160650700D02*
X335850262Y-160650700D01*
X335424762Y-160650700D02*
G75*
G02*
X335374754Y-160600692I0J50008D01*
G01*
X335374750Y-157770492D02*
X335374750Y-160600692D01*
X335024762Y-157420500D02*
G75*
G02*
X335374754Y-157770492I0J-349992D01*
G01*
X328679003Y-157420500D02*
X335024762Y-157420500D01*
X328325250Y-157770492D02*
G75*
G02*
X328679003Y-157420500I350012J0D01*
G01*
X328325250Y-160600692D02*
X328325250Y-157770492D01*
X328325250Y-160600692D02*
G75*
G02*
X328275250Y-160650680I-49988J0D01*
G01*
X327249962Y-160650700D02*
X328275250Y-160650700D01*
X327249962Y-160650700D02*
G75*
G02*
X327200054Y-160600700I0J49908D01*
G01*
X327200000Y-156810127D02*
X327200000Y-160600700D01*
X326249962Y-155850000D02*
G75*
G02*
X327200002Y-156810127I-100J-950192D01*
G01*
X313661594Y-155850000D02*
X326249962Y-155850000D01*
X312700000Y-156799992D02*
G75*
G02*
X313661594Y-155849999I950162J-100D01*
G01*
X312700000Y-160600692D02*
X312700000Y-156799992D01*
X312700000Y-160600692D02*
G75*
G02*
X312650000Y-160650630I-49938J0D01*
G01*
X311624762Y-160650700D02*
X312650000Y-160650700D01*
X311624762Y-160650700D02*
G75*
G02*
X311574754Y-160600692I0J50008D01*
G01*
X311574750Y-157770492D02*
X311574750Y-160600692D01*
X311224762Y-157420500D02*
G75*
G02*
X311574754Y-157770492I0J-349992D01*
G01*
X304878903Y-157420500D02*
X311224762Y-157420500D01*
X304525150Y-157770492D02*
G75*
G02*
X304878903Y-157420500I350012J0D01*
G01*
X304525150Y-160600692D02*
X304525150Y-157770492D01*
X304525150Y-160600692D02*
G75*
G02*
X304475150Y-160650680I-49988J0D01*
G01*
X304049680Y-160650700D02*
X304475150Y-160650700D01*
X303699680Y-161000692D02*
G75*
G02*
X304049680Y-160650710I349982J0D01*
G01*
X303699680Y-163395309D02*
X303699680Y-161000692D01*
X304049662Y-163749500D02*
G75*
G02*
X303699679Y-163395309I0J350008D01*
G01*
X304475162Y-163749500D02*
X304049662Y-163749500D01*
X304475162Y-163749500D02*
G75*
G02*
X304525154Y-163799492I0J-49992D01*
G01*
X304525150Y-169669492D02*
X304525150Y-163799492D01*
X304875162Y-170019500D02*
G75*
G02*
X304525154Y-169669492I0J350008D01*
G01*
X306200462Y-170019500D02*
X304875162Y-170019500D01*
X306200462Y-170019500D02*
G75*
G02*
X306250441Y-170068353I0J-49992D01*
G01*
X284125000Y-156799992D02*
G75*
G02*
X285086594Y-155849999I950162J-100D01*
G01*
X284125000Y-169400000D02*
X284125000Y-156799992D01*
X285074962Y-170350000D02*
G75*
G02*
X284125054Y-169400000I0J949908D01*
G01*
X297675000Y-170350000D02*
X285074962Y-170350000D01*
X298625000Y-169399992D02*
G75*
G02*
X297675000Y-170349930I-949938J0D01*
G01*
X298625000Y-156810127D02*
X298625000Y-169399992D01*
X297674962Y-155850000D02*
G75*
G02*
X298625002Y-156810127I-100J-950192D01*
G01*
X285086594Y-155850000D02*
X297674962Y-155850000D01*
X265075000Y-156799992D02*
G75*
G02*
X266036594Y-155849999I950162J-100D01*
G01*
X265075000Y-169400000D02*
X265075000Y-156799992D01*
X266024962Y-170350000D02*
G75*
G02*
X265075054Y-169400000I0J949908D01*
G01*
X278625000Y-170350000D02*
X266024962Y-170350000D01*
X279575000Y-169399992D02*
G75*
G02*
X278625000Y-170349930I-949938J0D01*
G01*
X279575000Y-156810127D02*
X279575000Y-169399992D01*
X278624962Y-155850000D02*
G75*
G02*
X279575002Y-156810127I-100J-950192D01*
G01*
X266036594Y-155850000D02*
X278624962Y-155850000D01*
X246025000Y-156799992D02*
G75*
G02*
X246986594Y-155849999I950162J-100D01*
G01*
X246025000Y-169400000D02*
X246025000Y-156799992D01*
X246974962Y-170350000D02*
G75*
G02*
X246025054Y-169400000I0J949908D01*
G01*
X259575000Y-170350000D02*
X246974962Y-170350000D01*
X260525000Y-169399992D02*
G75*
G02*
X259575000Y-170349930I-949938J0D01*
G01*
X260525000Y-156810127D02*
X260525000Y-169399992D01*
X259574962Y-155850000D02*
G75*
G02*
X260525002Y-156810127I-100J-950192D01*
G01*
X246986594Y-155850000D02*
X259574962Y-155850000D01*
X226975000Y-156800092D02*
G75*
G02*
X227936594Y-155849999I950162J0D01*
G01*
X226975000Y-169400000D02*
X226975000Y-156800092D01*
X227924962Y-170350000D02*
G75*
G02*
X226975054Y-169400000I0J949908D01*
G01*
X240525000Y-170350000D02*
X227924962Y-170350000D01*
X241475000Y-169399992D02*
G75*
G02*
X240525000Y-170349930I-949938J0D01*
G01*
X241475000Y-156810127D02*
X241475000Y-169399992D01*
X240524962Y-155850000D02*
G75*
G02*
X241475002Y-156810127I-100J-950192D01*
G01*
X227936594Y-155850000D02*
X240524962Y-155850000D01*
X207925000Y-156799992D02*
G75*
G02*
X208886594Y-155849999I950162J-100D01*
G01*
X207925000Y-169400000D02*
X207925000Y-156799992D01*
X208874962Y-170350000D02*
G75*
G02*
X207925054Y-169400000I0J949908D01*
G01*
X221475000Y-170350000D02*
X208874962Y-170350000D01*
X222425000Y-169399992D02*
G75*
G02*
X221475000Y-170349930I-949938J0D01*
G01*
X222425000Y-156810127D02*
X222425000Y-169399992D01*
X221474962Y-155850000D02*
G75*
G02*
X222425002Y-156810127I-100J-950192D01*
G01*
X208886594Y-155850000D02*
X221474962Y-155850000D01*
X188875000Y-156799992D02*
G75*
G02*
X189836594Y-155849999I950162J-100D01*
G01*
X188875000Y-169400000D02*
X188875000Y-156799992D01*
X189824962Y-170350000D02*
G75*
G02*
X188875054Y-169400000I0J949908D01*
G01*
X202425000Y-170350000D02*
X189824962Y-170350000D01*
X203375000Y-169399992D02*
G75*
G02*
X202425000Y-170349930I-949938J0D01*
G01*
X203375000Y-156810127D02*
X203375000Y-169399992D01*
X202424962Y-155850000D02*
G75*
G02*
X203375002Y-156810127I-100J-950192D01*
G01*
X189836594Y-155850000D02*
X202424962Y-155850000D01*
X169825000Y-156799992D02*
G75*
G02*
X170786594Y-155849999I950162J-100D01*
G01*
X169825000Y-169400000D02*
X169825000Y-156799992D01*
X170774962Y-170350000D02*
G75*
G02*
X169825054Y-169400000I0J949908D01*
G01*
X183375000Y-170350000D02*
X170774962Y-170350000D01*
X184325000Y-169399992D02*
G75*
G02*
X183375000Y-170349930I-949938J0D01*
G01*
X184325000Y-156810127D02*
X184325000Y-169399992D01*
X183374962Y-155850000D02*
G75*
G02*
X184325002Y-156810127I-100J-950192D01*
G01*
X170786594Y-155850000D02*
X183374962Y-155850000D01*
X150775000Y-156799992D02*
G75*
G02*
X151736594Y-155849999I950162J-100D01*
G01*
X150775000Y-169400000D02*
X150775000Y-156799992D01*
X151724962Y-170350000D02*
G75*
G02*
X150775054Y-169400000I0J949908D01*
G01*
X164325000Y-170350000D02*
X151724962Y-170350000D01*
X165275000Y-169399992D02*
G75*
G02*
X164325000Y-170349930I-949938J0D01*
G01*
X165275000Y-156810127D02*
X165275000Y-169399992D01*
X164324862Y-155850000D02*
G75*
G02*
X165275002Y-156810127I0J-950192D01*
G01*
X151736594Y-155850000D02*
X164324862Y-155850000D01*
X131725000Y-156799992D02*
G75*
G02*
X132686594Y-155849999I950162J-100D01*
G01*
X131725000Y-169400000D02*
X131725000Y-156799992D01*
X132674962Y-170350000D02*
G75*
G02*
X131725054Y-169400000I0J949908D01*
G01*
X145275000Y-170350000D02*
X132674962Y-170350000D01*
X146225000Y-169399992D02*
G75*
G02*
X145275000Y-170349930I-949938J0D01*
G01*
X146225000Y-156810127D02*
X146225000Y-169399992D01*
X145274962Y-155850000D02*
G75*
G02*
X146225002Y-156810127I-100J-950192D01*
G01*
X132686594Y-155850000D02*
X145274962Y-155850000D01*
X112675000Y-156799992D02*
G75*
G02*
X113636594Y-155849999I950162J-100D01*
G01*
X112675000Y-169400000D02*
X112675000Y-156799992D01*
X113624962Y-170350000D02*
G75*
G02*
X112675054Y-169400000I0J949908D01*
G01*
X126225000Y-170350000D02*
X113624962Y-170350000D01*
X127175000Y-169399992D02*
G75*
G02*
X126225000Y-170349930I-949938J0D01*
G01*
X127175000Y-156810127D02*
X127175000Y-169399992D01*
X126224962Y-155850000D02*
G75*
G02*
X127175002Y-156810127I-100J-950192D01*
G01*
X113636594Y-155850000D02*
X126224962Y-155850000D01*
X75269190Y-170869800D02*
X75269190Y-170067081D01*
X75619162Y-171219800D02*
G75*
G02*
X75269254Y-170869800I0J349908D01*
G01*
X78518200Y-171219800D02*
X75619162Y-171219800D01*
X78868200Y-170869792D02*
G75*
G02*
X78518200Y-171219730I-349938J0D01*
G01*
X78868200Y-170069592D02*
X78868200Y-170869792D01*
X78868200Y-170069592D02*
G75*
G02*
X78915616Y-170019505I50162J0D01*
G01*
X80243500Y-170019500D02*
X78915616Y-170019500D01*
X80593500Y-169669492D02*
G75*
G02*
X80243500Y-170019430I-349938J0D01*
G01*
X80593500Y-165600692D02*
X80593500Y-169669492D01*
X80593500Y-165600692D02*
G75*
G02*
X80640916Y-165550605I50162J0D01*
G01*
X81668762Y-165550600D02*
X80640916Y-165550600D01*
X81668762Y-165550600D02*
G75*
G02*
X81718754Y-165600592I0J-49992D01*
G01*
X81718750Y-169399992D02*
X81718750Y-165600592D01*
X82668762Y-170350000D02*
G75*
G02*
X81718754Y-169399992I0J950008D01*
G01*
X95268750Y-170350000D02*
X82668762Y-170350000D01*
X96218750Y-169399992D02*
G75*
G02*
X95268750Y-170349980I-949988J0D01*
G01*
X96218750Y-165600592D02*
X96218750Y-169399992D01*
X96218750Y-165600592D02*
G75*
G02*
X96267348Y-165550600I50012J0D01*
G01*
X97293862Y-165550600D02*
X96267348Y-165550600D01*
X97293862Y-165550600D02*
G75*
G02*
X97343995Y-165598367I0J-50192D01*
G01*
X97344000Y-169669500D02*
X97344000Y-165598367D01*
X97693962Y-170019500D02*
G75*
G02*
X97344054Y-169669500I0J349908D01*
G01*
X99017762Y-170019500D02*
X97693962Y-170019500D01*
X99017762Y-170019500D02*
G75*
G02*
X99067895Y-170067267I0J-50192D01*
G01*
X99067900Y-170869800D02*
X99067900Y-170067267D01*
X99417862Y-171219800D02*
G75*
G02*
X99067954Y-170869800I0J349908D01*
G01*
X102318300Y-171219800D02*
X99417862Y-171219800D01*
X102668300Y-170869792D02*
G75*
G02*
X102318300Y-171219730I-349938J0D01*
G01*
X102668300Y-170069592D02*
X102668300Y-170869792D01*
X102668300Y-170069592D02*
G75*
G02*
X102715716Y-170019505I50162J0D01*
G01*
X104043500Y-170019500D02*
X102715716Y-170019500D01*
X104393500Y-169669492D02*
G75*
G02*
X104043500Y-170019430I-349938J0D01*
G01*
X104393500Y-163799592D02*
X104393500Y-169669492D01*
X104393500Y-163799592D02*
G75*
G02*
X104440916Y-163749505I50162J0D01*
G01*
X104869000Y-163749500D02*
X104440916Y-163749500D01*
X105219000Y-163399492D02*
G75*
G02*
X104869000Y-163749430I-349938J0D01*
G01*
X105219000Y-161006883D02*
X105219000Y-163399492D01*
X104868962Y-160650700D02*
G75*
G02*
X105219003Y-161006883I-100J-350192D01*
G01*
X104443462Y-160650700D02*
X104868962Y-160650700D01*
X104443462Y-160650700D02*
G75*
G02*
X104393554Y-160600700I0J49908D01*
G01*
X104393500Y-157776683D02*
X104393500Y-160600700D01*
X104043462Y-157420500D02*
G75*
G02*
X104393503Y-157776683I-100J-350192D01*
G01*
X97701062Y-157420500D02*
X104043462Y-157420500D01*
X97344000Y-157770492D02*
G75*
G02*
X97701062Y-157420498I350162J-100D01*
G01*
X97344000Y-160600692D02*
X97344000Y-157770492D01*
X97344000Y-160600692D02*
G75*
G02*
X97294000Y-160650630I-49938J0D01*
G01*
X96268762Y-160650700D02*
X97294000Y-160650700D01*
X96268762Y-160650700D02*
G75*
G02*
X96218754Y-160600692I0J50008D01*
G01*
X96218750Y-156799992D02*
X96218750Y-160600692D01*
X95268762Y-155850000D02*
G75*
G02*
X96218754Y-156799992I0J-949992D01*
G01*
X82674926Y-155850000D02*
X95268762Y-155850000D01*
X81718750Y-156799992D02*
G75*
G02*
X82674926Y-155850000I950012J0D01*
G01*
X81718750Y-160600692D02*
X81718750Y-156799992D01*
X81718750Y-160600692D02*
G75*
G02*
X81668750Y-160650680I-49988J0D01*
G01*
X80643462Y-160650700D02*
X81668750Y-160650700D01*
X80643462Y-160650700D02*
G75*
G02*
X80593554Y-160600700I0J49908D01*
G01*
X80593500Y-157776683D02*
X80593500Y-160600700D01*
X80243462Y-157420500D02*
G75*
G02*
X80593503Y-157776683I-100J-350192D01*
G01*
X73900962Y-157420500D02*
X80243462Y-157420500D01*
X73543900Y-157770492D02*
G75*
G02*
X73900962Y-157420498I350162J-100D01*
G01*
X73543900Y-160600692D02*
X73543900Y-157770492D01*
X73543900Y-160600692D02*
G75*
G02*
X73493900Y-160650630I-49938J0D01*
G01*
X73068430Y-160650700D02*
X73493900Y-160650700D01*
X72718430Y-161000692D02*
G75*
G02*
X73068430Y-160650760I349932J0D01*
G01*
X72718430Y-163399492D02*
X72718430Y-161000692D01*
X73068462Y-163749500D02*
G75*
G02*
X72718454Y-163399492I0J350008D01*
G01*
X73493762Y-163749500D02*
X73068462Y-163749500D01*
X73493762Y-163749500D02*
G75*
G02*
X73543895Y-163797267I0J-50192D01*
G01*
X73543900Y-169669500D02*
X73543900Y-163797267D01*
X73893862Y-170019500D02*
G75*
G02*
X73543954Y-169669500I0J349908D01*
G01*
X75219062Y-170019500D02*
X73893862Y-170019500D01*
X75219062Y-170019500D02*
G75*
G02*
X75269186Y-170067081I0J-50192D01*
G01*
X49600000Y-180449992D02*
G75*
G02*
X50561594Y-179499999I950162J-100D01*
G01*
X49600000Y-183850000D02*
X49600000Y-180449992D01*
X50549962Y-184800000D02*
G75*
G02*
X49600054Y-183850000I0J949908D01*
G01*
X55950000Y-184800000D02*
X50549962Y-184800000D01*
X56900000Y-183849992D02*
G75*
G02*
X55950000Y-184799930I-949938J0D01*
G01*
X56900000Y-180460127D02*
X56900000Y-183849992D01*
X55949962Y-179500000D02*
G75*
G02*
X56900002Y-180460127I-100J-950192D01*
G01*
X50561594Y-179500000D02*
X55949962Y-179500000D01*
X49600000Y-174106392D02*
G75*
G02*
X50550062Y-173156330I949962J100D01*
G01*
X49600000Y-177506292D02*
X49600000Y-174106392D01*
X50549962Y-178456250D02*
G75*
G02*
X49600004Y-177506292I0J949958D01*
G01*
X55937889Y-178456250D02*
X50549962Y-178456250D01*
X56900000Y-177506392D02*
G75*
G02*
X55937889Y-178456253I-950038J100D01*
G01*
X56900000Y-174106292D02*
X56900000Y-177506392D01*
X55949962Y-173156250D02*
G75*
G02*
X56900004Y-174106292I0J-950042D01*
G01*
X50550062Y-173156250D02*
X55949962Y-173156250D01*
X49600000Y-167762492D02*
G75*
G02*
X50561594Y-166812499I950162J-100D01*
G01*
X49600000Y-171162500D02*
X49600000Y-167762492D01*
X50549962Y-172112500D02*
G75*
G02*
X49600054Y-171162500I0J949908D01*
G01*
X55950000Y-172112500D02*
X50549962Y-172112500D01*
X56900000Y-171162492D02*
G75*
G02*
X55950000Y-172112430I-949938J0D01*
G01*
X56900000Y-167772627D02*
X56900000Y-171162492D01*
X55949962Y-166812500D02*
G75*
G02*
X56900002Y-167772627I-100J-950192D01*
G01*
X50561594Y-166812500D02*
X55949962Y-166812500D01*
X318156690Y-151819800D02*
X318156690Y-151017081D01*
X318506662Y-152169800D02*
G75*
G02*
X318156754Y-151819800I0J349908D01*
G01*
X321405700Y-152169800D02*
X318506662Y-152169800D01*
X321755700Y-151819792D02*
G75*
G02*
X321405700Y-152169730I-349938J0D01*
G01*
X321755700Y-151019592D02*
X321755700Y-151819792D01*
X321755700Y-151019592D02*
G75*
G02*
X321803116Y-150969505I50162J0D01*
G01*
X323131000Y-150969500D02*
X321803116Y-150969500D01*
X323481000Y-150619492D02*
G75*
G02*
X323131000Y-150969430I-349938J0D01*
G01*
X323481000Y-146550692D02*
X323481000Y-150619492D01*
X323481000Y-146550692D02*
G75*
G02*
X323528416Y-146500605I50162J0D01*
G01*
X324556262Y-146500600D02*
X323528416Y-146500600D01*
X324556262Y-146500600D02*
G75*
G02*
X324606254Y-146550592I0J-49992D01*
G01*
X324606250Y-150349992D02*
X324606250Y-146550592D01*
X325556262Y-151300000D02*
G75*
G02*
X324606254Y-150349992I0J950008D01*
G01*
X338156250Y-151300000D02*
X325556262Y-151300000D01*
X339106250Y-150349992D02*
G75*
G02*
X338156250Y-151299980I-949988J0D01*
G01*
X339106250Y-146550592D02*
X339106250Y-150349992D01*
X339106250Y-146550592D02*
G75*
G02*
X339154848Y-146500600I50012J0D01*
G01*
X340181362Y-146500600D02*
X339154848Y-146500600D01*
X340181362Y-146500600D02*
G75*
G02*
X340231495Y-146548367I0J-50192D01*
G01*
X340231500Y-150619500D02*
X340231500Y-146548367D01*
X340581462Y-150969500D02*
G75*
G02*
X340231554Y-150619500I0J349908D01*
G01*
X341905262Y-150969500D02*
X340581462Y-150969500D01*
X341905262Y-150969500D02*
G75*
G02*
X341955395Y-151017267I0J-50192D01*
G01*
X341955400Y-151819800D02*
X341955400Y-151017267D01*
X342305362Y-152169800D02*
G75*
G02*
X341955454Y-151819800I0J349908D01*
G01*
X345205800Y-152169800D02*
X342305362Y-152169800D01*
X345555800Y-151819792D02*
G75*
G02*
X345205800Y-152169730I-349938J0D01*
G01*
X345555800Y-151019592D02*
X345555800Y-151819792D01*
X345555800Y-151019592D02*
G75*
G02*
X345603216Y-150969505I50162J0D01*
G01*
X346931000Y-150969500D02*
X345603216Y-150969500D01*
X347281000Y-150619492D02*
G75*
G02*
X346931000Y-150969430I-349938J0D01*
G01*
X347281000Y-144749592D02*
X347281000Y-150619492D01*
X347281000Y-144749592D02*
G75*
G02*
X347328416Y-144699505I50162J0D01*
G01*
X347756500Y-144699500D02*
X347328416Y-144699500D01*
X348106500Y-144349492D02*
G75*
G02*
X347756500Y-144699430I-349938J0D01*
G01*
X348106500Y-141956883D02*
X348106500Y-144349492D01*
X347756462Y-141600700D02*
G75*
G02*
X348106503Y-141956883I-100J-350192D01*
G01*
X347330962Y-141600700D02*
X347756462Y-141600700D01*
X347330962Y-141600700D02*
G75*
G02*
X347281054Y-141550700I0J49908D01*
G01*
X347281000Y-138726683D02*
X347281000Y-141550700D01*
X346930962Y-138370500D02*
G75*
G02*
X347281003Y-138726683I-100J-350192D01*
G01*
X340588562Y-138370500D02*
X346930962Y-138370500D01*
X340231500Y-138720492D02*
G75*
G02*
X340588562Y-138370498I350162J-100D01*
G01*
X340231500Y-141550692D02*
X340231500Y-138720492D01*
X340231500Y-141550692D02*
G75*
G02*
X340181500Y-141600630I-49938J0D01*
G01*
X339156262Y-141600700D02*
X340181500Y-141600700D01*
X339156262Y-141600700D02*
G75*
G02*
X339106254Y-141550692I0J50008D01*
G01*
X339106250Y-137749992D02*
X339106250Y-141550692D01*
X338156262Y-136800000D02*
G75*
G02*
X339106254Y-137749992I0J-949992D01*
G01*
X325562426Y-136800000D02*
X338156262Y-136800000D01*
X324606250Y-137749992D02*
G75*
G02*
X325562426Y-136800000I950012J0D01*
G01*
X324606250Y-141550692D02*
X324606250Y-137749992D01*
X324606250Y-141550692D02*
G75*
G02*
X324556250Y-141600680I-49988J0D01*
G01*
X323530962Y-141600700D02*
X324556250Y-141600700D01*
X323530962Y-141600700D02*
G75*
G02*
X323481054Y-141550700I0J49908D01*
G01*
X323481000Y-138726683D02*
X323481000Y-141550700D01*
X323130962Y-138370500D02*
G75*
G02*
X323481003Y-138726683I-100J-350192D01*
G01*
X316788462Y-138370500D02*
X323130962Y-138370500D01*
X316431400Y-138720492D02*
G75*
G02*
X316788462Y-138370498I350162J-100D01*
G01*
X316431400Y-141550692D02*
X316431400Y-138720492D01*
X316431400Y-141550692D02*
G75*
G02*
X316381400Y-141600630I-49938J0D01*
G01*
X315955930Y-141600700D02*
X316381400Y-141600700D01*
X315605930Y-141950692D02*
G75*
G02*
X315955930Y-141600760I349932J0D01*
G01*
X315605930Y-144349492D02*
X315605930Y-141950692D01*
X315955962Y-144699500D02*
G75*
G02*
X315605954Y-144349492I0J350008D01*
G01*
X316381262Y-144699500D02*
X315955962Y-144699500D01*
X316381262Y-144699500D02*
G75*
G02*
X316431395Y-144747267I0J-50192D01*
G01*
X316431400Y-150619500D02*
X316431400Y-144747267D01*
X316781362Y-150969500D02*
G75*
G02*
X316431454Y-150619500I0J349908D01*
G01*
X318106562Y-150969500D02*
X316781362Y-150969500D01*
X318106562Y-150969500D02*
G75*
G02*
X318156686Y-151017081I0J-50192D01*
G01*
X293650000Y-137749992D02*
G75*
G02*
X294611594Y-136799999I950162J-100D01*
G01*
X293650000Y-150350000D02*
X293650000Y-137749992D01*
X294599962Y-151300000D02*
G75*
G02*
X293650054Y-150350000I0J949908D01*
G01*
X307200000Y-151300000D02*
X294599962Y-151300000D01*
X308150000Y-150349992D02*
G75*
G02*
X307200000Y-151299930I-949938J0D01*
G01*
X308150000Y-137760127D02*
X308150000Y-150349992D01*
X307199962Y-136800000D02*
G75*
G02*
X308150002Y-137760127I-100J-950192D01*
G01*
X294611594Y-136800000D02*
X307199962Y-136800000D01*
X274600000Y-137749992D02*
G75*
G02*
X275561594Y-136799999I950162J-100D01*
G01*
X274600000Y-150350000D02*
X274600000Y-137749992D01*
X275549962Y-151300000D02*
G75*
G02*
X274600054Y-150350000I0J949908D01*
G01*
X288150000Y-151300000D02*
X275549962Y-151300000D01*
X289100000Y-150349992D02*
G75*
G02*
X288150000Y-151299930I-949938J0D01*
G01*
X289100000Y-137760127D02*
X289100000Y-150349992D01*
X288149862Y-136800000D02*
G75*
G02*
X289100002Y-137760127I0J-950192D01*
G01*
X275561594Y-136800000D02*
X288149862Y-136800000D01*
X255550000Y-137749992D02*
G75*
G02*
X256511594Y-136799999I950162J-100D01*
G01*
X255550000Y-150350000D02*
X255550000Y-137749992D01*
X256499962Y-151300000D02*
G75*
G02*
X255550054Y-150350000I0J949908D01*
G01*
X269100000Y-151300000D02*
X256499962Y-151300000D01*
X270050000Y-150349992D02*
G75*
G02*
X269100000Y-151299930I-949938J0D01*
G01*
X270050000Y-137760127D02*
X270050000Y-150349992D01*
X269099962Y-136800000D02*
G75*
G02*
X270050002Y-137760127I-100J-950192D01*
G01*
X256511594Y-136800000D02*
X269099962Y-136800000D01*
X236500000Y-137749992D02*
G75*
G02*
X237461594Y-136799999I950162J-100D01*
G01*
X236500000Y-150350000D02*
X236500000Y-137749992D01*
X237449962Y-151300000D02*
G75*
G02*
X236500054Y-150350000I0J949908D01*
G01*
X250050000Y-151300000D02*
X237449962Y-151300000D01*
X251000000Y-150349992D02*
G75*
G02*
X250050000Y-151299930I-949938J0D01*
G01*
X251000000Y-137760127D02*
X251000000Y-150349992D01*
X250049962Y-136800000D02*
G75*
G02*
X251000002Y-137760127I-100J-950192D01*
G01*
X237461594Y-136800000D02*
X250049962Y-136800000D01*
X217450000Y-137749992D02*
G75*
G02*
X218411594Y-136799999I950162J-100D01*
G01*
X217450000Y-150350000D02*
X217450000Y-137749992D01*
X218399962Y-151300000D02*
G75*
G02*
X217450054Y-150350000I0J949908D01*
G01*
X231000000Y-151300000D02*
X218399962Y-151300000D01*
X231950000Y-150349992D02*
G75*
G02*
X231000000Y-151299930I-949938J0D01*
G01*
X231950000Y-137760127D02*
X231950000Y-150349992D01*
X230999862Y-136800000D02*
G75*
G02*
X231950002Y-137760127I0J-950192D01*
G01*
X218411594Y-136800000D02*
X230999862Y-136800000D01*
X198400000Y-137749992D02*
G75*
G02*
X199361594Y-136799999I950162J-100D01*
G01*
X198400000Y-150350000D02*
X198400000Y-137749992D01*
X199349962Y-151300000D02*
G75*
G02*
X198400054Y-150350000I0J949908D01*
G01*
X211950000Y-151300000D02*
X199349962Y-151300000D01*
X212900000Y-150349992D02*
G75*
G02*
X211950000Y-151299930I-949938J0D01*
G01*
X212900000Y-137760127D02*
X212900000Y-150349992D01*
X211949862Y-136800000D02*
G75*
G02*
X212900002Y-137760127I0J-950192D01*
G01*
X199361594Y-136800000D02*
X211949862Y-136800000D01*
X179350000Y-137749992D02*
G75*
G02*
X180311594Y-136799999I950162J-100D01*
G01*
X179350000Y-150350000D02*
X179350000Y-137749992D01*
X180299962Y-151300000D02*
G75*
G02*
X179350054Y-150350000I0J949908D01*
G01*
X192900000Y-151300000D02*
X180299962Y-151300000D01*
X193850000Y-150349992D02*
G75*
G02*
X192900000Y-151299930I-949938J0D01*
G01*
X193850000Y-137760127D02*
X193850000Y-150349992D01*
X192899962Y-136800000D02*
G75*
G02*
X193850002Y-137760127I-100J-950192D01*
G01*
X180311594Y-136800000D02*
X192899962Y-136800000D01*
X160300000Y-137749992D02*
G75*
G02*
X161261594Y-136799999I950162J-100D01*
G01*
X160300000Y-150350000D02*
X160300000Y-137749992D01*
X161249962Y-151300000D02*
G75*
G02*
X160300054Y-150350000I0J949908D01*
G01*
X173850000Y-151300000D02*
X161249962Y-151300000D01*
X174800000Y-150349992D02*
G75*
G02*
X173850000Y-151299930I-949938J0D01*
G01*
X174800000Y-137760127D02*
X174800000Y-150349992D01*
X173849862Y-136800000D02*
G75*
G02*
X174800002Y-137760127I0J-950192D01*
G01*
X161261594Y-136800000D02*
X173849862Y-136800000D01*
X141250000Y-137749992D02*
G75*
G02*
X142211594Y-136799999I950162J-100D01*
G01*
X141250000Y-150350000D02*
X141250000Y-137749992D01*
X142199962Y-151300000D02*
G75*
G02*
X141250054Y-150350000I0J949908D01*
G01*
X154800000Y-151300000D02*
X142199962Y-151300000D01*
X155750000Y-150349992D02*
G75*
G02*
X154800000Y-151299930I-949938J0D01*
G01*
X155750000Y-137760127D02*
X155750000Y-150349992D01*
X154799962Y-136800000D02*
G75*
G02*
X155750002Y-137760127I-100J-950192D01*
G01*
X142211594Y-136800000D02*
X154799962Y-136800000D01*
X122200000Y-137750092D02*
G75*
G02*
X123161594Y-136799999I950162J0D01*
G01*
X122200000Y-150350000D02*
X122200000Y-137750092D01*
X123149962Y-151300000D02*
G75*
G02*
X122200054Y-150350000I0J949908D01*
G01*
X135750000Y-151300000D02*
X123149962Y-151300000D01*
X136700000Y-150349992D02*
G75*
G02*
X135750000Y-151299930I-949938J0D01*
G01*
X136700000Y-137760127D02*
X136700000Y-150349992D01*
X135749962Y-136800000D02*
G75*
G02*
X136700002Y-137760127I-100J-950192D01*
G01*
X123161594Y-136800000D02*
X135749962Y-136800000D01*
X103150000Y-137749992D02*
G75*
G02*
X104111594Y-136799999I950162J-100D01*
G01*
X103150000Y-150350000D02*
X103150000Y-137749992D01*
X104099962Y-151300000D02*
G75*
G02*
X103150054Y-150350000I0J949908D01*
G01*
X116700000Y-151300000D02*
X104099962Y-151300000D01*
X117650000Y-150349992D02*
G75*
G02*
X116700000Y-151299930I-949938J0D01*
G01*
X117650000Y-137760127D02*
X117650000Y-150349992D01*
X116699862Y-136800000D02*
G75*
G02*
X117650002Y-137760127I0J-950192D01*
G01*
X104111594Y-136800000D02*
X116699862Y-136800000D01*
X76956250Y-137749992D02*
G75*
G02*
X77912426Y-136800000I950012J0D01*
G01*
X76956250Y-150349992D02*
X76956250Y-137749992D01*
X77906262Y-151300000D02*
G75*
G02*
X76956254Y-150349992I0J950008D01*
G01*
X90506250Y-151300000D02*
X77906262Y-151300000D01*
X91456250Y-150349992D02*
G75*
G02*
X90506250Y-151299980I-949988J0D01*
G01*
X91456250Y-137749992D02*
X91456250Y-150349992D01*
X90506262Y-136800000D02*
G75*
G02*
X91456254Y-137749992I0J-949992D01*
G01*
X77912426Y-136800000D02*
X90506262Y-136800000D01*
X46000000Y-142512492D02*
G75*
G02*
X46961594Y-141562499I950162J-100D01*
G01*
X46000000Y-155112500D02*
X46000000Y-142512492D01*
X46949962Y-156062500D02*
G75*
G02*
X46000054Y-155112500I0J949908D01*
G01*
X59550000Y-156062500D02*
X46949962Y-156062500D01*
X60500000Y-155112492D02*
G75*
G02*
X59550000Y-156062430I-949938J0D01*
G01*
X60500000Y-142522627D02*
X60500000Y-155112492D01*
X59549962Y-141562500D02*
G75*
G02*
X60500002Y-142522627I-100J-950192D01*
G01*
X46961594Y-141562500D02*
X59549962Y-141562500D01*
X46000000Y-123462492D02*
G75*
G02*
X46961594Y-122512499I950162J-100D01*
G01*
X46000000Y-136062500D02*
X46000000Y-123462492D01*
X46949962Y-137012500D02*
G75*
G02*
X46000054Y-136062500I0J949908D01*
G01*
X59550000Y-137012500D02*
X46949962Y-137012500D01*
X60500000Y-136062492D02*
G75*
G02*
X59550000Y-137012430I-949938J0D01*
G01*
X60500000Y-123472627D02*
X60500000Y-136062492D01*
X59549962Y-122512500D02*
G75*
G02*
X60500002Y-123472627I-100J-950192D01*
G01*
X46961594Y-122512500D02*
X59549962Y-122512500D01*
X74575000Y-118699992D02*
G75*
G02*
X75536594Y-117749999I950162J-100D01*
G01*
X74575000Y-131300000D02*
X74575000Y-118699992D01*
X75524962Y-132250000D02*
G75*
G02*
X74575054Y-131300000I0J949908D01*
G01*
X88125000Y-132250000D02*
X75524962Y-132250000D01*
X89075000Y-131299992D02*
G75*
G02*
X88125000Y-132249930I-949938J0D01*
G01*
X89075000Y-118710127D02*
X89075000Y-131299992D01*
X88124962Y-117750000D02*
G75*
G02*
X89075002Y-118710127I-100J-950192D01*
G01*
X75536594Y-117750000D02*
X88124962Y-117750000D01*
X98387500Y-118699992D02*
G75*
G02*
X99349094Y-117749999I950162J-100D01*
G01*
X98387500Y-131300000D02*
X98387500Y-118699992D01*
X99337462Y-132250000D02*
G75*
G02*
X98387554Y-131300000I0J949908D01*
G01*
X111937500Y-132250000D02*
X99337462Y-132250000D01*
X112887500Y-131299992D02*
G75*
G02*
X111937500Y-132249930I-949938J0D01*
G01*
X112887500Y-118710127D02*
X112887500Y-131299992D01*
X111937362Y-117750000D02*
G75*
G02*
X112887502Y-118710127I0J-950192D01*
G01*
X99349094Y-117750000D02*
X111937362Y-117750000D01*
X117437500Y-118699992D02*
G75*
G02*
X118399094Y-117749999I950162J-100D01*
G01*
X117437500Y-131300000D02*
X117437500Y-118699992D01*
X118387462Y-132250000D02*
G75*
G02*
X117437554Y-131300000I0J949908D01*
G01*
X130987500Y-132250000D02*
X118387462Y-132250000D01*
X131937500Y-131299992D02*
G75*
G02*
X130987500Y-132249930I-949938J0D01*
G01*
X131937500Y-118710127D02*
X131937500Y-131299992D01*
X130987462Y-117750000D02*
G75*
G02*
X131937502Y-118710127I-100J-950192D01*
G01*
X118399094Y-117750000D02*
X130987462Y-117750000D01*
X136487500Y-118699992D02*
G75*
G02*
X137449094Y-117749999I950162J-100D01*
G01*
X136487500Y-131300000D02*
X136487500Y-118699992D01*
X137437462Y-132250000D02*
G75*
G02*
X136487554Y-131300000I0J949908D01*
G01*
X150037500Y-132250000D02*
X137437462Y-132250000D01*
X150987500Y-131299992D02*
G75*
G02*
X150037500Y-132249930I-949938J0D01*
G01*
X150987500Y-118710127D02*
X150987500Y-131299992D01*
X150037462Y-117750000D02*
G75*
G02*
X150987502Y-118710127I-100J-950192D01*
G01*
X137449094Y-117750000D02*
X150037462Y-117750000D01*
X155537500Y-118699992D02*
G75*
G02*
X156499094Y-117749999I950162J-100D01*
G01*
X155537500Y-131300000D02*
X155537500Y-118699992D01*
X156487462Y-132250000D02*
G75*
G02*
X155537554Y-131300000I0J949908D01*
G01*
X169087500Y-132250000D02*
X156487462Y-132250000D01*
X170037500Y-131299992D02*
G75*
G02*
X169087500Y-132249930I-949938J0D01*
G01*
X170037500Y-118710127D02*
X170037500Y-131299992D01*
X169087462Y-117750000D02*
G75*
G02*
X170037502Y-118710127I-100J-950192D01*
G01*
X156499094Y-117750000D02*
X169087462Y-117750000D01*
X174587500Y-118699992D02*
G75*
G02*
X175549094Y-117749999I950162J-100D01*
G01*
X174587500Y-131300000D02*
X174587500Y-118699992D01*
X175537462Y-132250000D02*
G75*
G02*
X174587554Y-131300000I0J949908D01*
G01*
X188137500Y-132250000D02*
X175537462Y-132250000D01*
X189087500Y-131299992D02*
G75*
G02*
X188137500Y-132249930I-949938J0D01*
G01*
X189087500Y-118710127D02*
X189087500Y-131299992D01*
X188137362Y-117750000D02*
G75*
G02*
X189087502Y-118710127I0J-950192D01*
G01*
X175549094Y-117750000D02*
X188137362Y-117750000D01*
X193637500Y-118699992D02*
G75*
G02*
X194599094Y-117749999I950162J-100D01*
G01*
X193637500Y-131300000D02*
X193637500Y-118699992D01*
X194587462Y-132250000D02*
G75*
G02*
X193637554Y-131300000I0J949908D01*
G01*
X207187500Y-132250000D02*
X194587462Y-132250000D01*
X208137500Y-131299992D02*
G75*
G02*
X207187500Y-132249930I-949938J0D01*
G01*
X208137500Y-118710127D02*
X208137500Y-131299992D01*
X207187362Y-117750000D02*
G75*
G02*
X208137502Y-118710127I0J-950192D01*
G01*
X194599094Y-117750000D02*
X207187362Y-117750000D01*
X212687500Y-118699992D02*
G75*
G02*
X213649094Y-117749999I950162J-100D01*
G01*
X212687500Y-131300000D02*
X212687500Y-118699992D01*
X213637462Y-132250000D02*
G75*
G02*
X212687554Y-131300000I0J949908D01*
G01*
X226237500Y-132250000D02*
X213637462Y-132250000D01*
X227187500Y-131299992D02*
G75*
G02*
X226237500Y-132249930I-949938J0D01*
G01*
X227187500Y-118710127D02*
X227187500Y-131299992D01*
X226237362Y-117750000D02*
G75*
G02*
X227187502Y-118710127I0J-950192D01*
G01*
X213649094Y-117750000D02*
X226237362Y-117750000D01*
X231737500Y-118699992D02*
G75*
G02*
X232699094Y-117749999I950162J-100D01*
G01*
X231737500Y-131300000D02*
X231737500Y-118699992D01*
X232687462Y-132250000D02*
G75*
G02*
X231737554Y-131300000I0J949908D01*
G01*
X245287500Y-132250000D02*
X232687462Y-132250000D01*
X246237500Y-131299992D02*
G75*
G02*
X245287500Y-132249930I-949938J0D01*
G01*
X246237500Y-118710127D02*
X246237500Y-131299992D01*
X245287462Y-117750000D02*
G75*
G02*
X246237502Y-118710127I-100J-950192D01*
G01*
X232699094Y-117750000D02*
X245287462Y-117750000D01*
X250787500Y-118699992D02*
G75*
G02*
X251749094Y-117749999I950162J-100D01*
G01*
X250787500Y-131300000D02*
X250787500Y-118699992D01*
X251737462Y-132250000D02*
G75*
G02*
X250787554Y-131300000I0J949908D01*
G01*
X264337500Y-132250000D02*
X251737462Y-132250000D01*
X265287500Y-131299992D02*
G75*
G02*
X264337500Y-132249930I-949938J0D01*
G01*
X265287500Y-118710127D02*
X265287500Y-131299992D01*
X264337362Y-117750000D02*
G75*
G02*
X265287502Y-118710127I0J-950192D01*
G01*
X251749094Y-117750000D02*
X264337362Y-117750000D01*
X269837500Y-118699992D02*
G75*
G02*
X270799094Y-117749999I950162J-100D01*
G01*
X269837500Y-131300000D02*
X269837500Y-118699992D01*
X270787462Y-132250000D02*
G75*
G02*
X269837554Y-131300000I0J949908D01*
G01*
X283387500Y-132250000D02*
X270787462Y-132250000D01*
X284337500Y-131299992D02*
G75*
G02*
X283387500Y-132249930I-949938J0D01*
G01*
X284337500Y-118710127D02*
X284337500Y-131299992D01*
X283387462Y-117750000D02*
G75*
G02*
X284337502Y-118710127I-100J-950192D01*
G01*
X270799094Y-117750000D02*
X283387462Y-117750000D01*
X288887500Y-118699992D02*
G75*
G02*
X289849094Y-117749999I950162J-100D01*
G01*
X288887500Y-131300000D02*
X288887500Y-118699992D01*
X289837462Y-132250000D02*
G75*
G02*
X288887554Y-131300000I0J949908D01*
G01*
X302437500Y-132250000D02*
X289837462Y-132250000D01*
X303387500Y-131299992D02*
G75*
G02*
X302437500Y-132249930I-949938J0D01*
G01*
X303387500Y-118710127D02*
X303387500Y-131299992D01*
X302437462Y-117750000D02*
G75*
G02*
X303387502Y-118710127I-100J-950192D01*
G01*
X289849094Y-117750000D02*
X302437462Y-117750000D01*
X307937500Y-118699992D02*
G75*
G02*
X308899094Y-117749999I950162J-100D01*
G01*
X307937500Y-131300000D02*
X307937500Y-118699992D01*
X308887462Y-132250000D02*
G75*
G02*
X307937554Y-131300000I0J949908D01*
G01*
X321487500Y-132250000D02*
X308887462Y-132250000D01*
X322437500Y-131299992D02*
G75*
G02*
X321487500Y-132249930I-949938J0D01*
G01*
X322437500Y-118710127D02*
X322437500Y-131299992D01*
X321487362Y-117750000D02*
G75*
G02*
X322437502Y-118710127I0J-950192D01*
G01*
X308899094Y-117750000D02*
X321487362Y-117750000D01*
X331750000Y-118700092D02*
G75*
G02*
X332711594Y-117749999I950162J0D01*
G01*
X331750000Y-131300000D02*
X331750000Y-118700092D01*
X332699962Y-132250000D02*
G75*
G02*
X331750054Y-131300000I0J949908D01*
G01*
X345300000Y-132250000D02*
X332699962Y-132250000D01*
X346250000Y-131299992D02*
G75*
G02*
X345300000Y-132249930I-949938J0D01*
G01*
X346250000Y-118710127D02*
X346250000Y-131299992D01*
X345299962Y-117750000D02*
G75*
G02*
X346250002Y-118710127I-100J-950192D01*
G01*
X332711594Y-117750000D02*
X345299962Y-117750000D01*
X360325000Y-118699992D02*
G75*
G02*
X361286594Y-117749999I950162J-100D01*
G01*
X360325000Y-131300000D02*
X360325000Y-118699992D01*
X361274962Y-132250000D02*
G75*
G02*
X360325054Y-131300000I0J949908D01*
G01*
X373875000Y-132250000D02*
X361274962Y-132250000D01*
X374825000Y-131299992D02*
G75*
G02*
X373875000Y-132249930I-949938J0D01*
G01*
X374825000Y-118710127D02*
X374825000Y-131299992D01*
X373874862Y-117750000D02*
G75*
G02*
X374825002Y-118710127I0J-950192D01*
G01*
X361286594Y-117750000D02*
X373874862Y-117750000D01*
X360325000Y-99650092D02*
G75*
G02*
X361286594Y-98699999I950162J0D01*
G01*
X360325000Y-112250000D02*
X360325000Y-99650092D01*
X361274962Y-113200000D02*
G75*
G02*
X360325054Y-112250000I0J949908D01*
G01*
X373875000Y-113200000D02*
X361274962Y-113200000D01*
X374825000Y-112249992D02*
G75*
G02*
X373875000Y-113199930I-949938J0D01*
G01*
X374825000Y-99660127D02*
X374825000Y-112249992D01*
X373874962Y-98700000D02*
G75*
G02*
X374825002Y-99660127I-100J-950192D01*
G01*
X361286594Y-98700000D02*
X373874962Y-98700000D01*
X336512500Y-99649992D02*
G75*
G02*
X337474094Y-98699999I950162J-100D01*
G01*
X336512500Y-112250000D02*
X336512500Y-99649992D01*
X337462462Y-113200000D02*
G75*
G02*
X336512554Y-112250000I0J949908D01*
G01*
X350062500Y-113200000D02*
X337462462Y-113200000D01*
X351012500Y-112249992D02*
G75*
G02*
X350062500Y-113199930I-949938J0D01*
G01*
X351012500Y-99660127D02*
X351012500Y-112249992D01*
X350062362Y-98700000D02*
G75*
G02*
X351012502Y-99660127I0J-950192D01*
G01*
X337474094Y-98700000D02*
X350062362Y-98700000D01*
X317462500Y-99649992D02*
G75*
G02*
X318424094Y-98699999I950162J-100D01*
G01*
X317462500Y-112250000D02*
X317462500Y-99649992D01*
X318412462Y-113200000D02*
G75*
G02*
X317462554Y-112250000I0J949908D01*
G01*
X331012500Y-113200000D02*
X318412462Y-113200000D01*
X331962500Y-112249992D02*
G75*
G02*
X331012500Y-113199930I-949938J0D01*
G01*
X331962500Y-99660127D02*
X331962500Y-112249992D01*
X331012462Y-98700000D02*
G75*
G02*
X331962502Y-99660127I-100J-950192D01*
G01*
X318424094Y-98700000D02*
X331012462Y-98700000D01*
X298412500Y-99649992D02*
G75*
G02*
X299374094Y-98699999I950162J-100D01*
G01*
X298412500Y-112250000D02*
X298412500Y-99649992D01*
X299362462Y-113200000D02*
G75*
G02*
X298412554Y-112250000I0J949908D01*
G01*
X311962500Y-113200000D02*
X299362462Y-113200000D01*
X312912500Y-112249992D02*
G75*
G02*
X311962500Y-113199930I-949938J0D01*
G01*
X312912500Y-99660127D02*
X312912500Y-112249992D01*
X311962462Y-98700000D02*
G75*
G02*
X312912502Y-99660127I-100J-950192D01*
G01*
X299374094Y-98700000D02*
X311962462Y-98700000D01*
X279362500Y-99649992D02*
G75*
G02*
X280324094Y-98699999I950162J-100D01*
G01*
X279362500Y-112250000D02*
X279362500Y-99649992D01*
X280312462Y-113200000D02*
G75*
G02*
X279362554Y-112250000I0J949908D01*
G01*
X292912500Y-113200000D02*
X280312462Y-113200000D01*
X293862500Y-112249992D02*
G75*
G02*
X292912500Y-113199930I-949938J0D01*
G01*
X293862500Y-99660127D02*
X293862500Y-112249992D01*
X292912462Y-98700000D02*
G75*
G02*
X293862502Y-99660127I-100J-950192D01*
G01*
X280324094Y-98700000D02*
X292912462Y-98700000D01*
X260312500Y-99649992D02*
G75*
G02*
X261274094Y-98699999I950162J-100D01*
G01*
X260312500Y-112250000D02*
X260312500Y-99649992D01*
X261262462Y-113200000D02*
G75*
G02*
X260312554Y-112250000I0J949908D01*
G01*
X273862500Y-113200000D02*
X261262462Y-113200000D01*
X274812500Y-112249992D02*
G75*
G02*
X273862500Y-113199930I-949938J0D01*
G01*
X274812500Y-99660127D02*
X274812500Y-112249992D01*
X273862462Y-98700000D02*
G75*
G02*
X274812502Y-99660127I-100J-950192D01*
G01*
X261274094Y-98700000D02*
X273862462Y-98700000D01*
X241262500Y-99649992D02*
G75*
G02*
X242224094Y-98699999I950162J-100D01*
G01*
X241262500Y-112250000D02*
X241262500Y-99649992D01*
X242212462Y-113200000D02*
G75*
G02*
X241262554Y-112250000I0J949908D01*
G01*
X254812500Y-113200000D02*
X242212462Y-113200000D01*
X255762500Y-112249992D02*
G75*
G02*
X254812500Y-113199930I-949938J0D01*
G01*
X255762500Y-99660127D02*
X255762500Y-112249992D01*
X254812462Y-98700000D02*
G75*
G02*
X255762502Y-99660127I-100J-950192D01*
G01*
X242224094Y-98700000D02*
X254812462Y-98700000D01*
X222212500Y-99649992D02*
G75*
G02*
X223174094Y-98699999I950162J-100D01*
G01*
X222212500Y-112250000D02*
X222212500Y-99649992D01*
X223162462Y-113200000D02*
G75*
G02*
X222212554Y-112250000I0J949908D01*
G01*
X235762500Y-113200000D02*
X223162462Y-113200000D01*
X236712500Y-112249992D02*
G75*
G02*
X235762500Y-113199930I-949938J0D01*
G01*
X236712500Y-99660127D02*
X236712500Y-112249992D01*
X235762462Y-98700000D02*
G75*
G02*
X236712502Y-99660127I-100J-950192D01*
G01*
X223174094Y-98700000D02*
X235762462Y-98700000D01*
X203162500Y-99649992D02*
G75*
G02*
X204124094Y-98699999I950162J-100D01*
G01*
X203162500Y-112250000D02*
X203162500Y-99649992D01*
X204112462Y-113200000D02*
G75*
G02*
X203162554Y-112250000I0J949908D01*
G01*
X216712500Y-113200000D02*
X204112462Y-113200000D01*
X217662500Y-112249992D02*
G75*
G02*
X216712500Y-113199930I-949938J0D01*
G01*
X217662500Y-99660127D02*
X217662500Y-112249992D01*
X216712462Y-98700000D02*
G75*
G02*
X217662502Y-99660127I-100J-950192D01*
G01*
X204124094Y-98700000D02*
X216712462Y-98700000D01*
X184112500Y-99649992D02*
G75*
G02*
X185074094Y-98699999I950162J-100D01*
G01*
X184112500Y-112250000D02*
X184112500Y-99649992D01*
X185062462Y-113200000D02*
G75*
G02*
X184112554Y-112250000I0J949908D01*
G01*
X197662500Y-113200000D02*
X185062462Y-113200000D01*
X198612500Y-112249992D02*
G75*
G02*
X197662500Y-113199930I-949938J0D01*
G01*
X198612500Y-99660127D02*
X198612500Y-112249992D01*
X197662462Y-98700000D02*
G75*
G02*
X198612502Y-99660127I-100J-950192D01*
G01*
X185074094Y-98700000D02*
X197662462Y-98700000D01*
X165062500Y-99649992D02*
G75*
G02*
X166024094Y-98699999I950162J-100D01*
G01*
X165062500Y-112250000D02*
X165062500Y-99649992D01*
X166012462Y-113200000D02*
G75*
G02*
X165062554Y-112250000I0J949908D01*
G01*
X178612500Y-113200000D02*
X166012462Y-113200000D01*
X179562500Y-112249992D02*
G75*
G02*
X178612500Y-113199930I-949938J0D01*
G01*
X179562500Y-99660127D02*
X179562500Y-112249992D01*
X178612462Y-98700000D02*
G75*
G02*
X179562502Y-99660127I-100J-950192D01*
G01*
X166024094Y-98700000D02*
X178612462Y-98700000D01*
X146012500Y-99649992D02*
G75*
G02*
X146974094Y-98699999I950162J-100D01*
G01*
X146012500Y-112250000D02*
X146012500Y-99649992D01*
X146962462Y-113200000D02*
G75*
G02*
X146012554Y-112250000I0J949908D01*
G01*
X159562500Y-113200000D02*
X146962462Y-113200000D01*
X160512500Y-112249992D02*
G75*
G02*
X159562500Y-113199930I-949938J0D01*
G01*
X160512500Y-99660127D02*
X160512500Y-112249992D01*
X159562462Y-98700000D02*
G75*
G02*
X160512502Y-99660127I-100J-950192D01*
G01*
X146974094Y-98700000D02*
X159562462Y-98700000D01*
X126962500Y-99649992D02*
G75*
G02*
X127924094Y-98699999I950162J-100D01*
G01*
X126962500Y-112250000D02*
X126962500Y-99649992D01*
X127912462Y-113200000D02*
G75*
G02*
X126962554Y-112250000I0J949908D01*
G01*
X140512500Y-113200000D02*
X127912462Y-113200000D01*
X141462500Y-112249992D02*
G75*
G02*
X140512500Y-113199930I-949938J0D01*
G01*
X141462500Y-99660127D02*
X141462500Y-112249992D01*
X140512462Y-98700000D02*
G75*
G02*
X141462502Y-99660127I-100J-950192D01*
G01*
X127924094Y-98700000D02*
X140512462Y-98700000D01*
X107912500Y-99649992D02*
G75*
G02*
X108874094Y-98699999I950162J-100D01*
G01*
X107912500Y-112250000D02*
X107912500Y-99649992D01*
X108862462Y-113200000D02*
G75*
G02*
X107912554Y-112250000I0J949908D01*
G01*
X121462500Y-113200000D02*
X108862462Y-113200000D01*
X122412500Y-112249992D02*
G75*
G02*
X121462500Y-113199930I-949938J0D01*
G01*
X122412500Y-99660127D02*
X122412500Y-112249992D01*
X121462462Y-98700000D02*
G75*
G02*
X122412502Y-99660127I-100J-950192D01*
G01*
X108874094Y-98700000D02*
X121462462Y-98700000D01*
X88862500Y-99649992D02*
G75*
G02*
X89824094Y-98699999I950162J-100D01*
G01*
X88862500Y-112250000D02*
X88862500Y-99649992D01*
X89812462Y-113200000D02*
G75*
G02*
X88862554Y-112250000I0J949908D01*
G01*
X102412500Y-113200000D02*
X89812462Y-113200000D01*
X103362500Y-112249992D02*
G75*
G02*
X102412500Y-113199930I-949938J0D01*
G01*
X103362500Y-99660127D02*
X103362500Y-112249992D01*
X102412362Y-98700000D02*
G75*
G02*
X103362502Y-99660127I0J-950192D01*
G01*
X89824094Y-98700000D02*
X102412362Y-98700000D01*
X69812500Y-99649992D02*
G75*
G02*
X70774094Y-98699999I950162J-100D01*
G01*
X69812500Y-112250000D02*
X69812500Y-99649992D01*
X70762462Y-113200000D02*
G75*
G02*
X69812554Y-112250000I0J949908D01*
G01*
X83362500Y-113200000D02*
X70762462Y-113200000D01*
X84312500Y-112249992D02*
G75*
G02*
X83362500Y-113199930I-949938J0D01*
G01*
X84312500Y-99660127D02*
X84312500Y-112249992D01*
X83362362Y-98700000D02*
G75*
G02*
X84312502Y-99660127I0J-950192D01*
G01*
X70774094Y-98700000D02*
X83362362Y-98700000D01*
X46000000Y-99650092D02*
G75*
G02*
X46961594Y-98699999I950162J0D01*
G01*
X46000000Y-112250000D02*
X46000000Y-99650092D01*
X46949962Y-113200000D02*
G75*
G02*
X46000054Y-112250000I0J949908D01*
G01*
X59550000Y-113200000D02*
X46949962Y-113200000D01*
X60500000Y-112249992D02*
G75*
G02*
X59550000Y-113199930I-949938J0D01*
G01*
X60500000Y-99660127D02*
X60500000Y-112249992D01*
X59549962Y-98700000D02*
G75*
G02*
X60500002Y-99660127I-100J-950192D01*
G01*
X46961594Y-98700000D02*
X59549962Y-98700000D01*
X350175000Y-195150000D02*
G75*
G02*
X346875000Y-195150000I-1650000J0D01*
G01*
X346875000Y-195150000D02*
G75*
G02*
X350175000Y-195150000I1650000J0D01*
G01*
X263259375Y-195150000D02*
G75*
G02*
X259959375Y-195150000I-1650000J0D01*
G01*
X259959375Y-195150000D02*
G75*
G02*
X263259375Y-195150000I1650000J0D01*
G01*
X141815625Y-195150000D02*
G75*
G02*
X138515625Y-195150000I-1650000J0D01*
G01*
X138515625Y-195150000D02*
G75*
G02*
X141815625Y-195150000I1650000J0D01*
G01*
X73950000Y-195150000D02*
G75*
G02*
X70650000Y-195150000I-1650000J0D01*
G01*
X70650000Y-195150000D02*
G75*
G02*
X73950000Y-195150000I1650000J0D01*
G01*
X341862500Y-92950000D02*
G75*
G02*
X338562500Y-92950000I-1650000J0D01*
G01*
X338562500Y-92950000D02*
G75*
G02*
X341862500Y-92950000I1650000J0D01*
G01*
X259687500Y-92950000D02*
G75*
G02*
X256387500Y-92950000I-1650000J0D01*
G01*
X256387500Y-92950000D02*
G75*
G02*
X259687500Y-92950000I1650000J0D01*
G01*
X164437500Y-92950000D02*
G75*
G02*
X161137500Y-92950000I-1650000J0D01*
G01*
X161137500Y-92950000D02*
G75*
G02*
X164437500Y-92950000I1650000J0D01*
G01*
X82262500Y-92950000D02*
G75*
G02*
X78962500Y-92950000I-1650000J0D01*
G01*
X78962500Y-92950000D02*
G75*
G02*
X82262500Y-92950000I1650000J0D01*
G01*
M02*
