%TF.GenerationSoftware,KiCad,Pcbnew,9.0.2*%
%TF.CreationDate,2025-08-18T14:39:33+09:00*%
%TF.ProjectId,CL70_Plate,434c3730-5f50-46c6-9174-652e6b696361,rev?*%
%TF.SameCoordinates,Original*%
%TF.FileFunction,Copper,L2,Bot*%
%TF.FilePolarity,Positive*%
%FSLAX46Y46*%
G04 Gerber Fmt 4.6, Leading zero omitted, Abs format (unit mm)*
G04 Created by KiCad (PCBNEW 9.0.2) date 2025-08-18 14:39:33*
%MOMM*%
%LPD*%
G01*
G04 APERTURE LIST*
%TA.AperFunction,NonConductor*%
%ADD10C,0.300000*%
%TD*%
G04 APERTURE END LIST*
D10*
X335629864Y-93099992D02*
X335629864Y-93100000D01*
X378524981Y-170565292D02*
X378525002Y-170565292D01*
X244988426Y-184649292D02*
X244988502Y-184649292D01*
X304525156Y-169669492D02*
X304525152Y-169669492D01*
X306250456Y-170869792D02*
X306250442Y-170869792D01*
X328325256Y-169669492D02*
X328325252Y-169669492D01*
X72718456Y-163399492D02*
X72718432Y-163399492D01*
X44150014Y-95000000D02*
X76715064Y-95000000D01*
X42300002Y-96850012D02*
G75*
G02*
X44150014Y-95000000I1850012J0D01*
G01*
X44149964Y-193100000D02*
G75*
G02*
X42300056Y-191250000I0J1849908D01*
G01*
X67103864Y-195000000D02*
G75*
G02*
X69831837Y-196574995I0J-3149992D01*
G01*
X134969464Y-195000000D02*
X120167364Y-195000000D01*
X142633799Y-196575000D02*
G75*
G02*
X137697455Y-196575000I-2468172J1425000D01*
G01*
X142633799Y-196575000D02*
G75*
G02*
X145361779Y-195000009I2727965J-1574992D01*
G01*
X170413620Y-193436749D02*
G75*
G02*
X171219082Y-193099959I813144J-813143D01*
G01*
X230548264Y-193100000D02*
G75*
G02*
X231358299Y-193433623I0J-1150192D01*
G01*
X232671422Y-194746788D02*
X231358278Y-193433644D01*
X264077549Y-196575000D02*
G75*
G02*
X259141203Y-196575000I-2468173J1425000D01*
G01*
X330560764Y-193100000D02*
X284328581Y-193100000D01*
X363760788Y-195000000D02*
X353712115Y-195000000D01*
X378525002Y-191249992D02*
G75*
G02*
X376675002Y-193099930I-1849938J0D01*
G01*
X378525002Y-170565292D02*
X378525002Y-191249992D01*
X378525002Y-96864095D02*
X378525002Y-136584692D01*
X337600434Y-91810000D02*
G75*
G02*
X342989349Y-93591233I2612030J-1139992D01*
G01*
X89451120Y-193436749D02*
X88136821Y-194751049D01*
X337600434Y-91810000D02*
G75*
G02*
X335629864Y-93099992I-1970570J860108D01*
G01*
X307561453Y-94663181D02*
X308875753Y-93348881D01*
X170413620Y-193436749D02*
X169099321Y-194751049D01*
X285526564Y-95000000D02*
G75*
G02*
X284718534Y-94668147I100J1149908D01*
G01*
X255569329Y-91525000D02*
G75*
G02*
X260505675Y-91525000I2468173J-1425000D01*
G01*
X264077549Y-196575000D02*
G75*
G02*
X266805464Y-195000002I2727915J-1574892D01*
G01*
X232675753Y-93348881D02*
G75*
G02*
X233283050Y-93099957I601011J-601011D01*
G01*
X231361453Y-94663181D02*
G75*
G02*
X230548288Y-94999973I-813089J813089D01*
G01*
X283522908Y-193436836D02*
X282208709Y-194751036D01*
X188152128Y-93351758D02*
X189468525Y-94668156D01*
X187548264Y-93100000D02*
G75*
G02*
X188152149Y-93351737I0J-850192D01*
G01*
X377646252Y-169715760D02*
G75*
G02*
X377646252Y-137434244I-546248J16140758D01*
G01*
X167983664Y-93100000D02*
G75*
G02*
X165255678Y-91524998I0J3150008D01*
G01*
X160319329Y-91525000D02*
G75*
G02*
X157591349Y-93099983I-2727965J1575008D01*
G01*
X190276564Y-95000000D02*
X230548288Y-95000000D01*
X137425753Y-93348881D02*
G75*
G02*
X138033050Y-93099957I601011J-601011D01*
G01*
X136111453Y-94663181D02*
X137425753Y-93348881D01*
X136111453Y-94663181D02*
G75*
G02*
X135298288Y-94999973I-813089J813089D01*
G01*
X114076564Y-95000000D02*
X135298288Y-95000000D01*
X111348264Y-93100000D02*
G75*
G02*
X111952149Y-93351737I0J-850192D01*
G01*
X77835579Y-93591250D02*
G75*
G02*
X83224573Y-91809999I2776925J641248D01*
G01*
X360325002Y-175849992D02*
G75*
G02*
X361286596Y-174899999I950162J-100D01*
G01*
X360325002Y-188450000D02*
X360325002Y-175849992D01*
X361274964Y-189400000D02*
G75*
G02*
X360325056Y-188450000I0J949908D01*
G01*
X361286596Y-174900000D02*
X373874964Y-174900000D01*
X341275002Y-175849992D02*
G75*
G02*
X342236596Y-174899999I950162J-100D01*
G01*
X355775002Y-188449992D02*
G75*
G02*
X354825002Y-189399930I-949938J0D01*
G01*
X263233664Y-93100000D02*
G75*
G02*
X260505678Y-91524998I0J3150008D01*
G01*
X344109964Y-95000000D02*
X376674864Y-95000000D01*
X335775002Y-189400000D02*
X323174964Y-189400000D01*
X335774964Y-174900000D02*
G75*
G02*
X336725004Y-175860127I-100J-950192D01*
G01*
X354825002Y-189400000D02*
X342224964Y-189400000D01*
X305768752Y-175849992D02*
X305768752Y-188449992D01*
X266024964Y-189400000D02*
G75*
G02*
X265075056Y-188450000I0J949908D01*
G01*
X279575002Y-175860127D02*
X279575002Y-188449992D01*
X208612502Y-175180392D02*
X208612502Y-174599192D01*
X208612502Y-175180392D02*
G75*
G02*
X208562502Y-175230330I-49938J0D01*
G01*
X207245564Y-175230400D02*
X208562502Y-175230400D01*
X206888502Y-175580392D02*
G75*
G02*
X207245564Y-175230398I350162J-100D01*
G01*
X206417855Y-181500470D02*
X206838502Y-181500470D01*
X42300002Y-191250000D02*
X42300002Y-96850012D01*
X206838464Y-184599230D02*
X206412364Y-184599230D01*
X305768752Y-188449992D02*
G75*
G02*
X304818752Y-189399980I-949988J0D01*
G01*
X285526564Y-95000000D02*
X306748288Y-95000000D01*
X223162464Y-189400000D02*
G75*
G02*
X222212556Y-188450000I0J949908D01*
G01*
X244938464Y-184599230D02*
X236762464Y-184599230D01*
X252038502Y-187479392D02*
G75*
G02*
X251688464Y-187829430I-350038J0D01*
G01*
X252038502Y-184649192D02*
G75*
G02*
X252088464Y-184599230I49962J0D01*
G01*
X252863502Y-184249192D02*
G75*
G02*
X252513464Y-184599230I-350038J0D01*
G01*
X252088464Y-181500470D02*
G75*
G02*
X252038501Y-181451716I0J49978D01*
G01*
X251688464Y-175230400D02*
G75*
G02*
X252038505Y-175586583I-100J-350192D01*
G01*
X250362464Y-175230400D02*
X251688464Y-175230400D01*
X250312502Y-174599292D02*
X250312502Y-175180400D01*
X244988502Y-179649392D02*
X244988502Y-175580392D01*
X223174096Y-174900000D02*
X235762464Y-174900000D01*
X212262464Y-175230400D02*
X213588464Y-175230400D01*
X212212502Y-174599292D02*
X212212502Y-175180400D01*
X208612502Y-174599192D02*
G75*
G02*
X208965109Y-174249240I349962J0D01*
G01*
X149738502Y-181450492D02*
G75*
G02*
X149688502Y-181500430I-49938J0D01*
G01*
X149267855Y-181500470D02*
X149688502Y-181500470D01*
X150088364Y-187829430D02*
G75*
G02*
X149738500Y-187472200I100J350038D01*
G01*
X165012464Y-184599230D02*
X156838464Y-184599230D01*
X187788464Y-184599230D02*
X179612464Y-184599230D01*
X187838502Y-187472200D02*
X187838502Y-184649292D01*
X187788464Y-184599230D02*
G75*
G02*
X187838426Y-184649292I0J-49962D01*
G01*
X194538464Y-187829430D02*
X188188364Y-187829430D01*
X179562502Y-184649192D02*
G75*
G02*
X179612464Y-184599230I49962J0D01*
G01*
X194888502Y-187479392D02*
G75*
G02*
X194538464Y-187829430I-350038J0D01*
G01*
X194888502Y-184649192D02*
G75*
G02*
X194938464Y-184599230I49962J0D01*
G01*
X195713502Y-184249192D02*
G75*
G02*
X195363464Y-184599230I-350038J0D01*
G01*
X156438464Y-187829430D02*
X150088364Y-187829430D01*
X194888502Y-175586583D02*
X194888502Y-181451716D01*
X194538464Y-175230400D02*
G75*
G02*
X194888505Y-175586583I-100J-350192D01*
G01*
X192812364Y-174249240D02*
G75*
G02*
X193162416Y-174599292I100J-349952D01*
G01*
X189562502Y-175180392D02*
G75*
G02*
X189512502Y-175230330I-49938J0D01*
G01*
X187838502Y-179649392D02*
X187838502Y-175580392D01*
X178612464Y-174900000D02*
G75*
G02*
X179562504Y-175860127I-100J-950192D01*
G01*
X166024096Y-174900000D02*
X178612464Y-174900000D01*
X165062502Y-175849992D02*
G75*
G02*
X166024096Y-174899999I950162J-100D01*
G01*
X156838464Y-179699360D02*
G75*
G02*
X156788502Y-179650166I0J49968D01*
G01*
X151815109Y-174249240D02*
X154712364Y-174249240D01*
X123149964Y-189400000D02*
G75*
G02*
X122200056Y-188450000I0J949908D01*
G01*
X344109964Y-95000000D02*
G75*
G02*
X342989440Y-93591254I0J1150008D01*
G01*
X343328864Y-195000000D02*
G75*
G02*
X346056837Y-196574995I0J-3149992D01*
G01*
X136700002Y-175860127D02*
X136700002Y-188449992D01*
X109556252Y-189400000D02*
X96956264Y-189400000D01*
X255569329Y-91525000D02*
G75*
G02*
X252841349Y-93099983I-2727965J1575008D01*
G01*
X110506252Y-175849992D02*
X110506252Y-188449992D01*
X73143764Y-189400000D02*
G75*
G02*
X72193756Y-188449992I0J950008D01*
G01*
X155062502Y-174599292D02*
X155062502Y-175180400D01*
X85743752Y-189400000D02*
X73143764Y-189400000D01*
X154712364Y-174249240D02*
G75*
G02*
X155062416Y-174599292I100J-349952D01*
G01*
X86693752Y-188449992D02*
G75*
G02*
X85743752Y-189399980I-949988J0D01*
G01*
X86693752Y-175849992D02*
X86693752Y-188449992D01*
X341275002Y-156799992D02*
G75*
G02*
X342236596Y-155849999I950162J-100D01*
G01*
X341275002Y-169400000D02*
X341275002Y-156799992D01*
X354825002Y-170350000D02*
X342224964Y-170350000D01*
X355775002Y-169399992D02*
G75*
G02*
X354825002Y-170349930I-949938J0D01*
G01*
X355775002Y-156810127D02*
X355775002Y-169399992D01*
X342236596Y-155850000D02*
X354824964Y-155850000D01*
X306250442Y-170869792D02*
X306250442Y-170068353D01*
X309499452Y-171219800D02*
X306600464Y-171219800D01*
X309849452Y-170069492D02*
G75*
G02*
X309898050Y-170019500I50012J0D01*
G01*
X311574752Y-169669492D02*
G75*
G02*
X311224752Y-170019480I-349988J0D01*
G01*
X313649964Y-170350000D02*
G75*
G02*
X312700056Y-169400000I0J949908D01*
G01*
X326250002Y-170350000D02*
X313649964Y-170350000D01*
X327200002Y-165600692D02*
G75*
G02*
X327247418Y-165550605I50162J0D01*
G01*
X328275264Y-165550600D02*
G75*
G02*
X328325256Y-165600592I0J-49992D01*
G01*
X311574752Y-165600592D02*
X311574752Y-169669492D01*
X328325252Y-169669492D02*
X328325252Y-165600592D01*
X330049152Y-170869792D02*
X330049152Y-170069492D01*
X189562502Y-174599192D02*
G75*
G02*
X189915109Y-174249240I349962J0D01*
G01*
X336200252Y-163399492D02*
G75*
G02*
X335850252Y-163749480I-349988J0D01*
G01*
X335024764Y-157420500D02*
G75*
G02*
X335374756Y-157770492I0J-349992D01*
G01*
X328679005Y-157420500D02*
X335024764Y-157420500D01*
X328325252Y-160600692D02*
G75*
G02*
X328275252Y-160650680I-49988J0D01*
G01*
X327249964Y-160650700D02*
G75*
G02*
X327200056Y-160600700I0J49908D01*
G01*
X327200002Y-156810127D02*
X327200002Y-160600700D01*
X326249964Y-155850000D02*
G75*
G02*
X327200004Y-156810127I-100J-950192D01*
G01*
X313661596Y-155850000D02*
X326249964Y-155850000D01*
X122200002Y-188450000D02*
X122200002Y-175849992D01*
X312700002Y-160600692D02*
X312700002Y-156799992D01*
X120167364Y-195000000D02*
G75*
G02*
X119562665Y-194747448I0J850208D01*
G01*
X312700002Y-160600692D02*
G75*
G02*
X312650002Y-160650630I-49938J0D01*
G01*
X311624764Y-160650700D02*
X312650002Y-160650700D01*
X333289164Y-195000000D02*
G75*
G02*
X332683931Y-194746780I0J849908D01*
G01*
X304878905Y-157420500D02*
X311224764Y-157420500D01*
X304525152Y-160600692D02*
X304525152Y-157770492D01*
X304525152Y-160600692D02*
G75*
G02*
X304475152Y-160650680I-49988J0D01*
G01*
X304049682Y-160650700D02*
X304475152Y-160650700D01*
X303699682Y-163395309D02*
X303699682Y-161000692D01*
X304475164Y-163749500D02*
X304049664Y-163749500D01*
X306200464Y-170019500D02*
X304875164Y-170019500D01*
X284125002Y-156799992D02*
G75*
G02*
X285086596Y-155849999I950162J-100D01*
G01*
X285074964Y-170350000D02*
G75*
G02*
X284125056Y-169400000I0J949908D01*
G01*
X297675002Y-170350000D02*
X285074964Y-170350000D01*
X136700002Y-188449992D02*
G75*
G02*
X135750002Y-189399930I-949938J0D01*
G01*
X265075002Y-156799992D02*
G75*
G02*
X266036596Y-155849999I950162J-100D01*
G01*
X265075002Y-169400000D02*
X265075002Y-156799992D01*
X279575002Y-169399992D02*
G75*
G02*
X278625002Y-170349930I-949938J0D01*
G01*
X279575002Y-156810127D02*
X279575002Y-169399992D01*
X246025002Y-169400000D02*
X246025002Y-156799992D01*
X259574964Y-155850000D02*
G75*
G02*
X260525004Y-156810127I-100J-950192D01*
G01*
X226975002Y-169400000D02*
X226975002Y-156800092D01*
X309483050Y-93100000D02*
X335629864Y-93100000D01*
X240524964Y-155850000D02*
G75*
G02*
X241475004Y-156810127I-100J-950192D01*
G01*
X207925002Y-156799992D02*
G75*
G02*
X208886596Y-155849999I950162J-100D01*
G01*
X149738426Y-184649292D02*
X149738502Y-184649292D01*
X208874964Y-170350000D02*
G75*
G02*
X207925056Y-169400000I0J949908D01*
G01*
X188875002Y-169400000D02*
X188875002Y-156799992D01*
X202425002Y-170350000D02*
X189824964Y-170350000D01*
X170774964Y-170350000D02*
G75*
G02*
X169825056Y-169400000I0J949908D01*
G01*
X184325002Y-169399992D02*
G75*
G02*
X183375002Y-170349930I-949938J0D01*
G01*
X184325002Y-156810127D02*
X184325002Y-169399992D01*
X183374964Y-155850000D02*
G75*
G02*
X184325004Y-156810127I-100J-950192D01*
G01*
X165275002Y-169399992D02*
G75*
G02*
X164325002Y-170349930I-949938J0D01*
G01*
X164324864Y-155850000D02*
G75*
G02*
X165275004Y-156810127I0J-950192D01*
G01*
X132674964Y-170350000D02*
G75*
G02*
X131725056Y-169400000I0J949908D01*
G01*
X132686596Y-155850000D02*
X145274964Y-155850000D01*
X112675002Y-156799992D02*
G75*
G02*
X113636596Y-155849999I950162J-100D01*
G01*
X127175002Y-169399992D02*
G75*
G02*
X126225002Y-170349930I-949938J0D01*
G01*
X78868202Y-170069592D02*
G75*
G02*
X78915618Y-170019505I50162J0D01*
G01*
X80593502Y-165600692D02*
X80593502Y-169669492D01*
X151462502Y-175180392D02*
G75*
G02*
X151412502Y-175230330I-49938J0D01*
G01*
X222212502Y-179649392D02*
G75*
G02*
X222162502Y-179699330I-49938J0D01*
G01*
X96218752Y-165600592D02*
X96218752Y-169399992D01*
X202424964Y-155850000D02*
G75*
G02*
X203375004Y-156810127I-100J-950192D01*
G01*
X96218752Y-165600592D02*
G75*
G02*
X96267350Y-165550600I50012J0D01*
G01*
X97293864Y-165550600D02*
X96267350Y-165550600D01*
X97293864Y-165550600D02*
G75*
G02*
X97343997Y-165598367I0J-50192D01*
G01*
X97344002Y-169669500D02*
X97344002Y-165598367D01*
X99017764Y-170019500D02*
G75*
G02*
X99067897Y-170067267I0J-50192D01*
G01*
X99067902Y-170869800D02*
X99067902Y-170067267D01*
X104043502Y-170019500D02*
X102715718Y-170019500D01*
X145275002Y-170350000D02*
X132674964Y-170350000D01*
X104393502Y-163799592D02*
X104393502Y-169669492D01*
X104443464Y-160650700D02*
G75*
G02*
X104393556Y-160600700I0J49908D01*
G01*
X104043464Y-157420500D02*
G75*
G02*
X104393505Y-157776683I-100J-350192D01*
G01*
X97701064Y-157420500D02*
X104043464Y-157420500D01*
X96218752Y-156799992D02*
X96218752Y-160600692D01*
X95268764Y-155850000D02*
G75*
G02*
X96218756Y-156799992I0J-949992D01*
G01*
X104393502Y-163799592D02*
G75*
G02*
X104440918Y-163749505I50162J0D01*
G01*
X81718752Y-156799992D02*
G75*
G02*
X82674928Y-155850000I950012J0D01*
G01*
X73900964Y-157420500D02*
X80243464Y-157420500D01*
X73543902Y-160600692D02*
X73543902Y-157770492D01*
X81718752Y-169399992D02*
X81718752Y-165600592D01*
X73068432Y-160650700D02*
X73493902Y-160650700D01*
X81718752Y-160600692D02*
X81718752Y-156799992D01*
X72718432Y-161000692D02*
G75*
G02*
X73068432Y-160650760I349932J0D01*
G01*
X73493764Y-163749500D02*
X73068464Y-163749500D01*
X49600002Y-183850000D02*
X49600002Y-180449992D01*
X55950002Y-184800000D02*
X50549964Y-184800000D01*
X112675002Y-169400000D02*
X112675002Y-156799992D01*
X55949964Y-179500000D02*
G75*
G02*
X56900004Y-180460127I-100J-950192D01*
G01*
X50561596Y-179500000D02*
X55949964Y-179500000D01*
X49600002Y-174106392D02*
G75*
G02*
X50550064Y-173156330I949962J100D01*
G01*
X50549964Y-178456250D02*
G75*
G02*
X49600006Y-177506292I0J949958D01*
G01*
X55937891Y-178456250D02*
X50549964Y-178456250D01*
X50549964Y-172112500D02*
G75*
G02*
X49600056Y-171162500I0J949908D01*
G01*
X105219002Y-161006883D02*
X105219002Y-163399492D01*
X50561596Y-166812500D02*
X55949964Y-166812500D01*
X318156692Y-151819800D02*
X318156692Y-151017081D01*
X318506664Y-152169800D02*
G75*
G02*
X318156756Y-151819800I0J349908D01*
G01*
X321405702Y-152169800D02*
X318506664Y-152169800D01*
X321755702Y-151019592D02*
X321755702Y-151819792D01*
X81718752Y-160600692D02*
G75*
G02*
X81668752Y-160650680I-49988J0D01*
G01*
X323481002Y-146550692D02*
X323481002Y-150619492D01*
X342224964Y-189400000D02*
G75*
G02*
X341275056Y-188450000I0J949908D01*
G01*
X324556264Y-146500600D02*
G75*
G02*
X324606256Y-146550592I0J-49992D01*
G01*
X324606252Y-150349992D02*
X324606252Y-146550592D01*
X325556264Y-151300000D02*
G75*
G02*
X324606256Y-150349992I0J950008D01*
G01*
X56900002Y-167772627D02*
X56900002Y-171162492D01*
X56900002Y-177506392D02*
G75*
G02*
X55937891Y-178456253I-950038J100D01*
G01*
X338156252Y-151300000D02*
X325556264Y-151300000D01*
X340181364Y-146500600D02*
X339154850Y-146500600D01*
X340581464Y-150969500D02*
G75*
G02*
X340231556Y-150619500I0J349908D01*
G01*
X189836596Y-155850000D02*
X202424964Y-155850000D01*
X341905264Y-150969500D02*
X340581464Y-150969500D01*
X342305364Y-152169800D02*
G75*
G02*
X341955456Y-151819800I0J349908D01*
G01*
X347281002Y-150619492D02*
G75*
G02*
X346931002Y-150969430I-349938J0D01*
G01*
X347281002Y-144749592D02*
X347281002Y-150619492D01*
X323131002Y-150969500D02*
X321803118Y-150969500D01*
X347756502Y-144699500D02*
X347328418Y-144699500D01*
X73543902Y-169669500D02*
X73543902Y-163797267D01*
X348106502Y-144349492D02*
G75*
G02*
X347756502Y-144699430I-349938J0D01*
G01*
X348106502Y-141956883D02*
X348106502Y-144349492D01*
X339106252Y-146550592D02*
X339106252Y-150349992D01*
X347330964Y-141600700D02*
G75*
G02*
X347281056Y-141550700I0J49908D01*
G01*
X321755702Y-151019592D02*
G75*
G02*
X321803118Y-150969505I50162J0D01*
G01*
X340231502Y-141550692D02*
X340231502Y-138720492D01*
X340231502Y-141550692D02*
G75*
G02*
X340181502Y-141600630I-49938J0D01*
G01*
X339156264Y-141600700D02*
X340181502Y-141600700D01*
X339106252Y-146550592D02*
G75*
G02*
X339154850Y-146500600I50012J0D01*
G01*
X179562502Y-175860127D02*
X179562502Y-179650166D01*
X339106252Y-137749992D02*
X339106252Y-141550692D01*
X325562428Y-136800000D02*
X338156264Y-136800000D01*
X323530964Y-141600700D02*
X324556252Y-141600700D01*
X149738502Y-175580392D02*
G75*
G02*
X150095564Y-175230398I350162J-100D01*
G01*
X252513464Y-181500470D02*
G75*
G02*
X252863486Y-181850492I0J-350022D01*
G01*
X323530964Y-141600700D02*
G75*
G02*
X323481056Y-141550700I0J49908D01*
G01*
X323481002Y-138726683D02*
X323481002Y-141550700D01*
X316788464Y-138370500D02*
X323130964Y-138370500D01*
X316431402Y-141550692D02*
G75*
G02*
X316381402Y-141600630I-49938J0D01*
G01*
X315955964Y-144699500D02*
G75*
G02*
X315605956Y-144349492I0J350008D01*
G01*
X316381264Y-144699500D02*
X315955964Y-144699500D01*
X316381264Y-144699500D02*
G75*
G02*
X316431397Y-144747267I0J-50192D01*
G01*
X318106564Y-150969500D02*
X316781364Y-150969500D01*
X222212426Y-184649292D02*
X222212502Y-184649292D01*
X293650002Y-137749992D02*
G75*
G02*
X294611596Y-136799999I950162J-100D01*
G01*
X293650002Y-150350000D02*
X293650002Y-137749992D01*
X307200002Y-151300000D02*
X294599964Y-151300000D01*
X156438464Y-175230400D02*
G75*
G02*
X156788505Y-175586583I-100J-350192D01*
G01*
X274600002Y-150350000D02*
X274600002Y-137749992D01*
X275549964Y-151300000D02*
G75*
G02*
X274600056Y-150350000I0J949908D01*
G01*
X288150002Y-151300000D02*
X275549964Y-151300000D01*
X256499964Y-151300000D02*
G75*
G02*
X255550056Y-150350000I0J949908D01*
G01*
X270050002Y-137760127D02*
X270050002Y-150349992D01*
X256511596Y-136800000D02*
X269099964Y-136800000D01*
X237449964Y-151300000D02*
G75*
G02*
X236500056Y-150350000I0J949908D01*
G01*
X250050002Y-151300000D02*
X237449964Y-151300000D01*
X251000002Y-137760127D02*
X251000002Y-150349992D01*
X250049964Y-136800000D02*
G75*
G02*
X251000004Y-137760127I-100J-950192D01*
G01*
X218399964Y-151300000D02*
G75*
G02*
X217450056Y-150350000I0J949908D01*
G01*
X231000002Y-151300000D02*
X218399964Y-151300000D01*
X236500002Y-150350000D02*
X236500002Y-137749992D01*
X231950002Y-137760127D02*
X231950002Y-150349992D01*
X289100002Y-137760127D02*
X289100002Y-150349992D01*
X212900002Y-150349992D02*
G75*
G02*
X211950002Y-151299930I-949938J0D01*
G01*
X270050002Y-150349992D02*
G75*
G02*
X269100002Y-151299930I-949938J0D01*
G01*
X212900002Y-137760127D02*
X212900002Y-150349992D01*
X179350002Y-150350000D02*
X179350002Y-137749992D01*
X192900002Y-151300000D02*
X180299964Y-151300000D01*
X173850002Y-151300000D02*
X161249964Y-151300000D01*
X154800002Y-151300000D02*
X142199964Y-151300000D01*
X155750002Y-137760127D02*
X155750002Y-150349992D01*
X154799964Y-136800000D02*
G75*
G02*
X155750004Y-137760127I-100J-950192D01*
G01*
X122200002Y-150350000D02*
X122200002Y-137750092D01*
X123149964Y-151300000D02*
G75*
G02*
X122200056Y-150350000I0J949908D01*
G01*
X136700002Y-150349992D02*
G75*
G02*
X135750002Y-151299930I-949938J0D01*
G01*
X123161596Y-136800000D02*
X135749964Y-136800000D01*
X103150002Y-137749992D02*
G75*
G02*
X104111596Y-136799999I950162J-100D01*
G01*
X116700002Y-151300000D02*
X104099964Y-151300000D01*
X76956252Y-137749992D02*
G75*
G02*
X77912428Y-136800000I950012J0D01*
G01*
X76956252Y-150349992D02*
X76956252Y-137749992D01*
X77906264Y-151300000D02*
G75*
G02*
X76956256Y-150349992I0J950008D01*
G01*
X90506252Y-151300000D02*
X77906264Y-151300000D01*
X91456252Y-150349992D02*
G75*
G02*
X90506252Y-151299980I-949988J0D01*
G01*
X90506264Y-136800000D02*
G75*
G02*
X91456256Y-137749992I0J-949992D01*
G01*
X77912428Y-136800000D02*
X90506264Y-136800000D01*
X156788502Y-187479392D02*
G75*
G02*
X156438464Y-187829430I-350038J0D01*
G01*
X46949964Y-156062500D02*
G75*
G02*
X46000056Y-155112500I0J949908D01*
G01*
X46000002Y-136062500D02*
X46000002Y-123462492D01*
X60500002Y-123472627D02*
X60500002Y-136062492D01*
X135750002Y-151300000D02*
X123149964Y-151300000D01*
X187838502Y-179649392D02*
G75*
G02*
X187788502Y-179699330I-49938J0D01*
G01*
X74575002Y-118699992D02*
G75*
G02*
X75536596Y-117749999I950162J-100D01*
G01*
X74575002Y-131300000D02*
X74575002Y-118699992D01*
X75524964Y-132250000D02*
G75*
G02*
X74575056Y-131300000I0J949908D01*
G01*
X89075002Y-131299992D02*
G75*
G02*
X88125002Y-132249930I-949938J0D01*
G01*
X75536596Y-117750000D02*
X88124964Y-117750000D01*
X60500002Y-155112492D02*
G75*
G02*
X59550002Y-156062430I-949938J0D01*
G01*
X99337464Y-132250000D02*
G75*
G02*
X98387556Y-131300000I0J949908D01*
G01*
X117437502Y-118699992D02*
G75*
G02*
X118399096Y-117749999I950162J-100D01*
G01*
X131937502Y-131299992D02*
G75*
G02*
X130987502Y-132249930I-949938J0D01*
G01*
X118399096Y-117750000D02*
X130987464Y-117750000D01*
X131937502Y-118710127D02*
X131937502Y-131299992D01*
X136487502Y-118699992D02*
G75*
G02*
X137449096Y-117749999I950162J-100D01*
G01*
X150037502Y-132250000D02*
X137437464Y-132250000D01*
X193637502Y-118699992D02*
G75*
G02*
X194599096Y-117749999I950162J-100D01*
G01*
X207187502Y-132250000D02*
X194587464Y-132250000D01*
X208137502Y-118710127D02*
X208137502Y-131299992D01*
X207187364Y-117750000D02*
G75*
G02*
X208137504Y-118710127I0J-950192D01*
G01*
X194599096Y-117750000D02*
X207187364Y-117750000D01*
X213637464Y-132250000D02*
G75*
G02*
X212687556Y-131300000I0J949908D01*
G01*
X89075002Y-118710127D02*
X89075002Y-131299992D01*
X227187502Y-131299992D02*
G75*
G02*
X226237502Y-132249930I-949938J0D01*
G01*
X226237364Y-117750000D02*
G75*
G02*
X227187504Y-118710127I0J-950192D01*
G01*
X213649096Y-117750000D02*
X226237364Y-117750000D01*
X130987464Y-117750000D02*
G75*
G02*
X131937504Y-118710127I-100J-950192D01*
G01*
X231737502Y-131300000D02*
X231737502Y-118699992D01*
X232687464Y-132250000D02*
G75*
G02*
X231737556Y-131300000I0J949908D01*
G01*
X89451120Y-193436749D02*
G75*
G02*
X90256582Y-193099959I813144J-813143D01*
G01*
X245287464Y-117750000D02*
G75*
G02*
X246237504Y-118710127I-100J-950192D01*
G01*
X245338364Y-187829430D02*
G75*
G02*
X244988500Y-187472200I100J350038D01*
G01*
X206888502Y-181450492D02*
G75*
G02*
X206838502Y-181500430I-49938J0D01*
G01*
X250787502Y-131300000D02*
X250787502Y-118699992D01*
X251737464Y-132250000D02*
G75*
G02*
X250787556Y-131300000I0J949908D01*
G01*
X111937502Y-132250000D02*
X99337464Y-132250000D01*
X265287502Y-131299992D02*
G75*
G02*
X264337502Y-132249930I-949938J0D01*
G01*
X208137502Y-131299992D02*
G75*
G02*
X207187502Y-132249930I-949938J0D01*
G01*
X251749096Y-117750000D02*
X264337364Y-117750000D01*
X270787464Y-132250000D02*
G75*
G02*
X269837556Y-131300000I0J949908D01*
G01*
X289837464Y-132250000D02*
G75*
G02*
X288887556Y-131300000I0J949908D01*
G01*
X307937502Y-131300000D02*
X307937502Y-118699992D01*
X321487502Y-132250000D02*
X308887464Y-132250000D01*
X308899096Y-117750000D02*
X321487364Y-117750000D01*
X346250002Y-131299992D02*
G75*
G02*
X345300002Y-132249930I-949938J0D01*
G01*
X361274964Y-132250000D02*
G75*
G02*
X360325056Y-131300000I0J949908D01*
G01*
X360325002Y-112250000D02*
X360325002Y-99650092D01*
X170037502Y-118710127D02*
X170037502Y-131299992D01*
X329999164Y-170019500D02*
G75*
G02*
X330049156Y-170069492I0J-49992D01*
G01*
X374825002Y-99660127D02*
X374825002Y-112249992D01*
X361286596Y-98700000D02*
X373874964Y-98700000D01*
X337462464Y-113200000D02*
G75*
G02*
X336512556Y-112250000I0J949908D01*
G01*
X333649552Y-170069492D02*
X333649552Y-170869792D01*
X351012502Y-99660127D02*
X351012502Y-112249992D01*
X206062502Y-181850492D02*
G75*
G02*
X206417855Y-181500468I350162J-100D01*
G01*
X350062364Y-98700000D02*
G75*
G02*
X351012504Y-99660127I0J-950192D01*
G01*
X317462502Y-112250000D02*
X317462502Y-99649992D01*
X331012502Y-113200000D02*
X318412464Y-113200000D01*
X331962502Y-112249992D02*
G75*
G02*
X331012502Y-113199930I-949938J0D01*
G01*
X331962502Y-99660127D02*
X331962502Y-112249992D01*
X331012464Y-98700000D02*
G75*
G02*
X331962504Y-99660127I-100J-950192D01*
G01*
X318424096Y-98700000D02*
X331012464Y-98700000D01*
X299362464Y-113200000D02*
G75*
G02*
X298412556Y-112250000I0J949908D01*
G01*
X312912502Y-112249992D02*
G75*
G02*
X311962502Y-113199930I-949938J0D01*
G01*
X312912502Y-99660127D02*
X312912502Y-112249992D01*
X311962464Y-98700000D02*
G75*
G02*
X312912504Y-99660127I-100J-950192D01*
G01*
X292912464Y-98700000D02*
G75*
G02*
X293862504Y-99660127I-100J-950192D01*
G01*
X156499096Y-117750000D02*
X169087464Y-117750000D01*
X72718432Y-163399492D02*
X72718432Y-161000692D01*
X280324096Y-98700000D02*
X292912464Y-98700000D01*
X188137364Y-117750000D02*
G75*
G02*
X189087504Y-118710127I0J-950192D01*
G01*
X260312502Y-99649992D02*
G75*
G02*
X261274096Y-98699999I950162J-100D01*
G01*
X374825002Y-188449992D02*
G75*
G02*
X373875002Y-189399930I-949938J0D01*
G01*
X273862502Y-113200000D02*
X261262464Y-113200000D01*
X274812502Y-112249992D02*
G75*
G02*
X273862502Y-113199930I-949938J0D01*
G01*
X331750002Y-131300000D02*
X331750002Y-118700092D01*
X274812502Y-99660127D02*
X274812502Y-112249992D01*
X263233664Y-93100000D02*
X282798264Y-93100000D01*
X222212502Y-99649992D02*
G75*
G02*
X223174096Y-98699999I950162J-100D01*
G01*
X235762502Y-113200000D02*
X223162464Y-113200000D01*
X236712502Y-112249992D02*
G75*
G02*
X235762502Y-113199930I-949938J0D01*
G01*
X56900002Y-180460127D02*
X56900002Y-183849992D01*
X168498288Y-195000000D02*
X145361779Y-195000000D01*
X203162502Y-112250000D02*
X203162502Y-99649992D01*
X216712502Y-113200000D02*
X204112464Y-113200000D01*
X217662502Y-112249992D02*
G75*
G02*
X216712502Y-113199930I-949938J0D01*
G01*
X216712464Y-98700000D02*
G75*
G02*
X217662504Y-99660127I-100J-950192D01*
G01*
X185062464Y-113200000D02*
G75*
G02*
X184112556Y-112250000I0J949908D01*
G01*
X198612502Y-99660127D02*
X198612502Y-112249992D01*
X197662464Y-98700000D02*
G75*
G02*
X198612504Y-99660127I-100J-950192D01*
G01*
X185074096Y-98700000D02*
X197662464Y-98700000D01*
X165062502Y-99649992D02*
G75*
G02*
X166024096Y-98699999I950162J-100D01*
G01*
X166012464Y-113200000D02*
G75*
G02*
X165062556Y-112250000I0J949908D01*
G01*
X178612502Y-113200000D02*
X166012464Y-113200000D01*
X179562502Y-99660127D02*
X179562502Y-112249992D01*
X146012502Y-99649992D02*
G75*
G02*
X146974096Y-98699999I950162J-100D01*
G01*
X166024096Y-98700000D02*
X178612464Y-98700000D01*
X146012502Y-112250000D02*
X146012502Y-99649992D01*
X273862464Y-98700000D02*
G75*
G02*
X274812504Y-99660127I-100J-950192D01*
G01*
X146962464Y-113200000D02*
G75*
G02*
X146012556Y-112250000I0J949908D01*
G01*
X241262502Y-99649992D02*
G75*
G02*
X242224096Y-98699999I950162J-100D01*
G01*
X159562502Y-113200000D02*
X146962464Y-113200000D01*
X160512502Y-112249992D02*
G75*
G02*
X159562502Y-113199930I-949938J0D01*
G01*
X195363464Y-184599230D02*
X194938464Y-184599230D01*
X159562464Y-98700000D02*
G75*
G02*
X160512504Y-99660127I-100J-950192D01*
G01*
X126962502Y-99649992D02*
G75*
G02*
X127924096Y-98699999I950162J-100D01*
G01*
X140512502Y-113200000D02*
X127912464Y-113200000D01*
X108862464Y-113200000D02*
G75*
G02*
X107912556Y-112250000I0J949908D01*
G01*
X121462502Y-113200000D02*
X108862464Y-113200000D01*
X121462464Y-98700000D02*
G75*
G02*
X122412504Y-99660127I-100J-950192D01*
G01*
X213588464Y-187829430D02*
X207238364Y-187829430D01*
X88862502Y-99649992D02*
G75*
G02*
X89824096Y-98699999I950162J-100D01*
G01*
X89812464Y-113200000D02*
G75*
G02*
X88862556Y-112250000I0J949908D01*
G01*
X102412364Y-98700000D02*
G75*
G02*
X103362504Y-99660127I0J-950192D01*
G01*
X89824096Y-98700000D02*
X102412364Y-98700000D01*
X140512464Y-98700000D02*
G75*
G02*
X141462504Y-99660127I-100J-950192D01*
G01*
X84312502Y-99660127D02*
X84312502Y-112249992D01*
X60500002Y-99660127D02*
X60500002Y-112249992D01*
X59549964Y-98700000D02*
G75*
G02*
X60500004Y-99660127I-100J-950192D01*
G01*
X350175002Y-195150000D02*
G75*
G02*
X346875002Y-195150000I-1650000J0D01*
G01*
X346875002Y-195150000D02*
G75*
G02*
X350175002Y-195150000I1650000J0D01*
G01*
X73950002Y-195150000D02*
G75*
G02*
X70650002Y-195150000I-1650000J0D01*
G01*
X70650002Y-195150000D02*
G75*
G02*
X73950002Y-195150000I1650000J0D01*
G01*
X259687502Y-92950000D02*
G75*
G02*
X256387502Y-92950000I-1650000J0D01*
G01*
X256387502Y-92950000D02*
G75*
G02*
X259687502Y-92950000I1650000J0D01*
G01*
X164437502Y-92950000D02*
G75*
G02*
X161137502Y-92950000I-1650000J0D01*
G01*
X161137502Y-92950000D02*
G75*
G02*
X164437502Y-92950000I1650000J0D01*
G01*
X134969464Y-195000000D02*
G75*
G02*
X137697443Y-196575006I0J-3149992D01*
G01*
X117438864Y-193100000D02*
X90256582Y-193100000D01*
X230548264Y-193100000D02*
X171219082Y-193100000D01*
X85195064Y-93100000D02*
X111348264Y-93100000D01*
X60500002Y-112249992D02*
G75*
G02*
X59550002Y-113199930I-949938J0D01*
G01*
X102668302Y-170869792D02*
G75*
G02*
X102318302Y-171219730I-349938J0D01*
G01*
X336725002Y-175860127D02*
X336725002Y-188449992D01*
X46949964Y-113200000D02*
G75*
G02*
X46000056Y-112250000I0J949908D01*
G01*
X304818752Y-189400000D02*
X292218764Y-189400000D01*
X291268752Y-188449992D02*
X291268752Y-175849992D01*
X265075002Y-188450000D02*
X265075002Y-175849992D01*
X235762502Y-189400000D02*
X223162464Y-189400000D01*
X251688464Y-187829430D02*
X245338364Y-187829430D01*
X256413264Y-195000000D02*
X233276664Y-195000000D01*
X281607664Y-195000000D02*
X266805464Y-195000000D01*
X236762464Y-179699360D02*
G75*
G02*
X236712502Y-179650166I0J49968D01*
G01*
X57064164Y-195000000D02*
G75*
G02*
X56458931Y-194746780I0J849908D01*
G01*
X222212502Y-179649392D02*
X222212502Y-175849992D01*
X252863502Y-181850492D02*
X252863502Y-184249192D01*
X364361821Y-194751049D02*
G75*
G02*
X363760788Y-194999974I-600957J600957D01*
G01*
X213988464Y-179699360D02*
G75*
G02*
X213938502Y-179650166I0J49968D01*
G01*
X245345564Y-175230400D02*
X246662502Y-175230400D01*
X308875753Y-93348881D02*
G75*
G02*
X309483050Y-93099957I601011J-601011D01*
G01*
X323174964Y-189400000D02*
G75*
G02*
X322225056Y-188450000I0J949908D01*
G01*
X378525002Y-136584692D02*
G75*
G02*
X377646252Y-137434245I-850038J0D01*
G01*
X250362464Y-175230400D02*
G75*
G02*
X250312556Y-175180400I0J49908D01*
G01*
X151462502Y-175180392D02*
X151462502Y-174599192D01*
X246712502Y-175180392D02*
G75*
G02*
X246662502Y-175230330I-49938J0D01*
G01*
X213938502Y-175586583D02*
X213938502Y-179650166D01*
X373875002Y-132250000D02*
X361274964Y-132250000D01*
X150095564Y-175230400D02*
X151412502Y-175230400D01*
X227924964Y-170350000D02*
G75*
G02*
X226975056Y-169400000I0J949908D01*
G01*
X114076564Y-95000000D02*
G75*
G02*
X113268534Y-94668147I100J1149908D01*
G01*
X149738502Y-187472200D02*
X149738502Y-184649292D01*
X166012464Y-189400000D02*
G75*
G02*
X165062556Y-188450000I0J949908D01*
G01*
X178612502Y-189400000D02*
X166012464Y-189400000D01*
X212262464Y-175230400D02*
G75*
G02*
X212212556Y-175180400I0J49908D01*
G01*
X194888502Y-184649192D02*
X194888502Y-187479392D01*
X208886596Y-155850000D02*
X221474964Y-155850000D01*
X165062502Y-188450000D02*
X165062502Y-184649292D01*
X194938464Y-181500470D02*
G75*
G02*
X194888501Y-181451716I0J49978D01*
G01*
X156788502Y-184649192D02*
G75*
G02*
X156838464Y-184599230I49962J0D01*
G01*
X72193752Y-188449992D02*
X72193752Y-175849992D01*
X193212464Y-175230400D02*
X194538464Y-175230400D01*
X179562502Y-188449992D02*
G75*
G02*
X178612502Y-189399930I-949938J0D01*
G01*
X155112464Y-175230400D02*
X156438464Y-175230400D01*
X155112464Y-175230400D02*
G75*
G02*
X155062556Y-175180400I0J49908D01*
G01*
X96962428Y-174900000D02*
X109556264Y-174900000D01*
X96006252Y-175849992D02*
G75*
G02*
X96962428Y-174900000I950012J0D01*
G01*
X179562502Y-184649192D02*
X179562502Y-188449992D01*
X311224752Y-170019500D02*
X309898050Y-170019500D01*
X311574752Y-165600592D02*
G75*
G02*
X311623350Y-165550600I50012J0D01*
G01*
X327200002Y-169399992D02*
G75*
G02*
X326250002Y-170349930I-949938J0D01*
G01*
X138033050Y-93100000D02*
X157591349Y-93100000D01*
X309849452Y-170069492D02*
X309849452Y-170869792D01*
X236712502Y-184649192D02*
G75*
G02*
X236762464Y-184599230I49962J0D01*
G01*
X189915109Y-174249240D02*
X192812364Y-174249240D01*
X183375002Y-170350000D02*
X170774964Y-170350000D01*
X350993174Y-196575000D02*
G75*
G02*
X353712115Y-195000000I2727990J-1574992D01*
G01*
X327200002Y-165600692D02*
X327200002Y-169399992D01*
X335374752Y-169669492D02*
G75*
G02*
X335024752Y-170019480I-349988J0D01*
G01*
X330399164Y-171219800D02*
G75*
G02*
X330049156Y-170869792I0J350008D01*
G01*
X211862364Y-174249240D02*
G75*
G02*
X212212416Y-174599292I100J-349952D01*
G01*
X335024752Y-170019500D02*
X333698150Y-170019500D01*
X336200252Y-161000692D02*
X336200252Y-163399492D01*
X307561453Y-94663181D02*
G75*
G02*
X306748288Y-94999973I-813089J813089D01*
G01*
X266036596Y-174900000D02*
X278624964Y-174900000D01*
X335374752Y-157770492D02*
X335374752Y-160600692D01*
X335850252Y-163749500D02*
X335423350Y-163749500D01*
X341275002Y-188450000D02*
X341275002Y-175849992D01*
X328325252Y-157770492D02*
G75*
G02*
X328679005Y-157420500I350012J0D01*
G01*
X87535788Y-195000000D02*
X77487115Y-195000000D01*
X298625002Y-156810127D02*
X298625002Y-169399992D01*
X278624964Y-174900000D02*
G75*
G02*
X279575004Y-175860127I-100J-950192D01*
G01*
X303699682Y-161000692D02*
G75*
G02*
X304049682Y-160650710I349982J0D01*
G01*
X222212502Y-175849992D02*
G75*
G02*
X223174096Y-174899999I950162J-100D01*
G01*
X285086596Y-155850000D02*
X297674964Y-155850000D01*
X304875164Y-170019500D02*
G75*
G02*
X304525156Y-169669492I0J350008D01*
G01*
X122412502Y-99660127D02*
X122412502Y-112249992D01*
X222162464Y-184599230D02*
X213988464Y-184599230D01*
X213938502Y-184649192D02*
X213938502Y-187479392D01*
X60500002Y-136062492D02*
G75*
G02*
X59550002Y-137012430I-949938J0D01*
G01*
X266024964Y-170350000D02*
G75*
G02*
X265075056Y-169400000I0J949908D01*
G01*
X54335764Y-193100000D02*
G75*
G02*
X55145799Y-193433623I0J-1150192D01*
G01*
X149688464Y-184599230D02*
X149262364Y-184599230D01*
X266036596Y-155850000D02*
X278624964Y-155850000D01*
X96006252Y-188449992D02*
X96006252Y-175849992D01*
X246025002Y-156799992D02*
G75*
G02*
X246986596Y-155849999I950162J-100D01*
G01*
X297674964Y-155850000D02*
G75*
G02*
X298625004Y-156810127I-100J-950192D01*
G01*
X265075002Y-175849992D02*
G75*
G02*
X266036596Y-174899999I950162J-100D01*
G01*
X109556264Y-174900000D02*
G75*
G02*
X110506256Y-175849992I0J-949992D01*
G01*
X241475002Y-156810127D02*
X241475002Y-169399992D01*
X80243502Y-170019500D02*
X78915618Y-170019500D01*
X373874964Y-174900000D02*
G75*
G02*
X374825004Y-175860127I-100J-950192D01*
G01*
X207925002Y-169400000D02*
X207925002Y-156799992D01*
X322225002Y-188450000D02*
X322225002Y-175849992D01*
X222425002Y-169399992D02*
G75*
G02*
X221475002Y-170349930I-949938J0D01*
G01*
X241475002Y-169399992D02*
G75*
G02*
X240525002Y-170349930I-949938J0D01*
G01*
X189824964Y-170350000D02*
G75*
G02*
X188875056Y-169400000I0J949908D01*
G01*
X221474964Y-155850000D02*
G75*
G02*
X222425004Y-156810127I-100J-950192D01*
G01*
X206062502Y-184242000D02*
X206062502Y-181850492D01*
X240525002Y-170350000D02*
X227924964Y-170350000D01*
X170786596Y-155850000D02*
X183374964Y-155850000D01*
X221475002Y-170350000D02*
X208874964Y-170350000D01*
X150775002Y-156799992D02*
G75*
G02*
X151736596Y-155849999I950162J-100D01*
G01*
X187838426Y-184649292D02*
X187838502Y-184649292D01*
X189562502Y-175180392D02*
X189562502Y-174599192D01*
X193212464Y-175230400D02*
G75*
G02*
X193162556Y-175180400I0J49908D01*
G01*
X131725002Y-156799992D02*
G75*
G02*
X132686596Y-155849999I950162J-100D01*
G01*
X113624964Y-170350000D02*
G75*
G02*
X112675056Y-169400000I0J949908D01*
G01*
X374825002Y-175860127D02*
X374825002Y-188449992D01*
X354824864Y-174900000D02*
G75*
G02*
X355775004Y-175860127I0J-950192D01*
G01*
X113636596Y-155850000D02*
X126224964Y-155850000D01*
X373875002Y-189400000D02*
X361274964Y-189400000D01*
X75269192Y-170869800D02*
X75269192Y-170067081D01*
X165275002Y-156810127D02*
X165275002Y-169399992D01*
X78868202Y-170069592D02*
X78868202Y-170869792D01*
X127175002Y-156810127D02*
X127175002Y-169399992D01*
X111952128Y-93351758D02*
X113268525Y-94668156D01*
X82668764Y-170350000D02*
G75*
G02*
X81718756Y-169399992I0J950008D01*
G01*
X246986596Y-155850000D02*
X259574964Y-155850000D01*
X102318302Y-171219800D02*
X99417864Y-171219800D01*
X284125002Y-169400000D02*
X284125002Y-156799992D01*
X323186596Y-174900000D02*
X335774964Y-174900000D01*
X97693964Y-170019500D02*
G75*
G02*
X97344056Y-169669500I0J349908D01*
G01*
X303387502Y-118710127D02*
X303387502Y-131299992D01*
X298625002Y-169399992D02*
G75*
G02*
X297675002Y-170349930I-949938J0D01*
G01*
X104443464Y-160650700D02*
X104868964Y-160650700D01*
X315605956Y-144349492D02*
X315605932Y-144349492D01*
X82674928Y-155850000D02*
X95268764Y-155850000D01*
X169825002Y-169400000D02*
X169825002Y-156799992D01*
X213988464Y-179699360D02*
X222162502Y-179699360D01*
X96268764Y-160650700D02*
X97294002Y-160650700D01*
X80643464Y-160650700D02*
X81668752Y-160650700D01*
X282798264Y-93100000D02*
G75*
G02*
X283402149Y-93351737I0J-850192D01*
G01*
X165012464Y-184599230D02*
G75*
G02*
X165062426Y-184649292I0J-49962D01*
G01*
X213938502Y-187479392D02*
G75*
G02*
X213588464Y-187829430I-350038J0D01*
G01*
X80593502Y-157776683D02*
X80593502Y-160600700D01*
X208965109Y-174249240D02*
X211862364Y-174249240D01*
X377646252Y-169715760D02*
G75*
G02*
X378524981Y-170565292I28712J-849532D01*
G01*
X376675002Y-193100000D02*
X366481582Y-193100000D01*
X126225002Y-170350000D02*
X113624964Y-170350000D01*
X73543902Y-160600692D02*
G75*
G02*
X73493902Y-160650630I-49938J0D01*
G01*
X97344002Y-160600692D02*
G75*
G02*
X97294002Y-160650630I-49938J0D01*
G01*
X56900002Y-183849992D02*
G75*
G02*
X55950002Y-184799930I-949938J0D01*
G01*
X73493764Y-163749500D02*
G75*
G02*
X73543897Y-163797267I0J-50192D01*
G01*
X259575002Y-170350000D02*
X246974964Y-170350000D01*
X104393502Y-169669492D02*
G75*
G02*
X104043502Y-170019430I-349938J0D01*
G01*
X81668764Y-165550600D02*
G75*
G02*
X81718756Y-165600592I0J-49992D01*
G01*
X307937502Y-118699992D02*
G75*
G02*
X308899096Y-117749999I950162J-100D01*
G01*
X256413264Y-195000000D02*
G75*
G02*
X259141187Y-196575010I0J-3149892D01*
G01*
X55950002Y-172112500D02*
X50549964Y-172112500D01*
X324556264Y-146500600D02*
X323528418Y-146500600D01*
X332699964Y-132250000D02*
G75*
G02*
X331750056Y-131300000I0J949908D01*
G01*
X345555802Y-151019592D02*
G75*
G02*
X345603218Y-150969505I50162J0D01*
G01*
X222212502Y-188450000D02*
X222212502Y-184649292D01*
X75219064Y-170019500D02*
X73893864Y-170019500D01*
X278625002Y-189400000D02*
X266024964Y-189400000D01*
X324606252Y-137749992D02*
G75*
G02*
X325562428Y-136800000I950012J0D01*
G01*
X324606252Y-141550692D02*
X324606252Y-137749992D01*
X340231502Y-138720492D02*
G75*
G02*
X340588564Y-138370498I350162J-100D01*
G01*
X315605932Y-141950692D02*
G75*
G02*
X315955932Y-141600760I349932J0D01*
G01*
X365676120Y-193436749D02*
X364361821Y-194751049D01*
X347281002Y-138726683D02*
X347281002Y-141550700D01*
X345555802Y-151019592D02*
X345555802Y-151819792D01*
X340181364Y-146500600D02*
G75*
G02*
X340231497Y-146548367I0J-50192D01*
G01*
X255762502Y-99660127D02*
X255762502Y-112249992D01*
X195363464Y-181500470D02*
G75*
G02*
X195713486Y-181850492I0J-350022D01*
G01*
X333649552Y-170069492D02*
G75*
G02*
X333698150Y-170019500I50012J0D01*
G01*
X328275264Y-165550600D02*
X327247418Y-165550600D01*
X294611596Y-136800000D02*
X307199964Y-136800000D01*
X308150002Y-137760127D02*
X308150002Y-150349992D01*
X155537502Y-131300000D02*
X155537502Y-118699992D01*
X311224764Y-157420500D02*
G75*
G02*
X311574756Y-157770492I0J-349992D01*
G01*
X275561596Y-136800000D02*
X288149864Y-136800000D01*
X255550002Y-150350000D02*
X255550002Y-137749992D01*
X131725002Y-169400000D02*
X131725002Y-156799992D01*
X151724964Y-170350000D02*
G75*
G02*
X150775056Y-169400000I0J949908D01*
G01*
X203375002Y-156810127D02*
X203375002Y-169399992D01*
X269099964Y-136800000D02*
G75*
G02*
X270050004Y-137760127I-100J-950192D01*
G01*
X288149864Y-136800000D02*
G75*
G02*
X289100004Y-137760127I0J-950192D01*
G01*
X345555802Y-151819792D02*
G75*
G02*
X345205802Y-152169730I-349938J0D01*
G01*
X255550002Y-137749992D02*
G75*
G02*
X256511596Y-136799999I950162J-100D01*
G01*
X237461596Y-136800000D02*
X250049964Y-136800000D01*
X316431402Y-141550692D02*
X316431402Y-138720492D01*
X316431402Y-138720492D02*
G75*
G02*
X316788464Y-138370498I350162J-100D01*
G01*
X218411596Y-136800000D02*
X230999864Y-136800000D01*
X175537464Y-132250000D02*
G75*
G02*
X174587556Y-131300000I0J949908D01*
G01*
X289100002Y-150349992D02*
G75*
G02*
X288150002Y-151299930I-949938J0D01*
G01*
X199349964Y-151300000D02*
G75*
G02*
X198400056Y-150350000I0J949908D01*
G01*
X315605932Y-144349492D02*
X315605932Y-141950692D01*
X222162464Y-184599230D02*
G75*
G02*
X222212426Y-184649292I0J-49962D01*
G01*
X75619164Y-171219800D02*
G75*
G02*
X75269256Y-170869800I0J349908D01*
G01*
X278624964Y-155850000D02*
G75*
G02*
X279575004Y-156810127I-100J-950192D01*
G01*
X217450002Y-150350000D02*
X217450002Y-137749992D01*
X211949864Y-136800000D02*
G75*
G02*
X212900004Y-137760127I0J-950192D01*
G01*
X249962364Y-174249240D02*
G75*
G02*
X250312416Y-174599292I100J-349952D01*
G01*
X194938464Y-181500470D02*
X195363464Y-181500470D01*
X161249964Y-151300000D02*
G75*
G02*
X160300056Y-150350000I0J949908D01*
G01*
X151462502Y-174599192D02*
G75*
G02*
X151815109Y-174249240I349962J0D01*
G01*
X309849452Y-170869792D02*
G75*
G02*
X309499452Y-171219780I-349988J0D01*
G01*
X206888502Y-181450492D02*
X206888502Y-175580392D01*
X342236596Y-174900000D02*
X354824864Y-174900000D01*
X173849864Y-136800000D02*
G75*
G02*
X174800004Y-137760127I0J-950192D01*
G01*
X338156264Y-136800000D02*
G75*
G02*
X339106256Y-137749992I0J-949992D01*
G01*
X146225002Y-169399992D02*
G75*
G02*
X145275002Y-170349930I-949938J0D01*
G01*
X340588564Y-138370500D02*
X346930964Y-138370500D01*
X155750002Y-150349992D02*
G75*
G02*
X154800002Y-151299930I-949938J0D01*
G01*
X195713502Y-181850492D02*
X195713502Y-184249192D01*
X119562686Y-194747427D02*
X118247361Y-193432102D01*
X122200002Y-137750092D02*
G75*
G02*
X123161596Y-136799999I950162J0D01*
G01*
X141250002Y-137749992D02*
G75*
G02*
X142211596Y-136799999I950162J-100D01*
G01*
X97344002Y-160600692D02*
X97344002Y-157770492D01*
X233276664Y-195000000D02*
G75*
G02*
X232671431Y-194746780I0J849908D01*
G01*
X136700002Y-137760127D02*
X136700002Y-150349992D01*
X347330964Y-141600700D02*
X347756464Y-141600700D01*
X230999864Y-136800000D02*
G75*
G02*
X231950004Y-137760127I0J-950192D01*
G01*
X85743764Y-174900000D02*
G75*
G02*
X86693756Y-175849992I0J-949992D01*
G01*
X179350002Y-137749992D02*
G75*
G02*
X180311596Y-136799999I950162J-100D01*
G01*
X278625002Y-170350000D02*
X266024964Y-170350000D01*
X190276564Y-95000000D02*
G75*
G02*
X189468534Y-94668147I100J1149908D01*
G01*
X46000002Y-155112500D02*
X46000002Y-142512492D01*
X59550002Y-156062500D02*
X46949964Y-156062500D01*
X188195564Y-175230400D02*
X189512502Y-175230400D01*
X335424764Y-160650700D02*
X335850264Y-160650700D01*
X59549964Y-141562500D02*
G75*
G02*
X60500004Y-142522627I-100J-950192D01*
G01*
X180299964Y-151300000D02*
G75*
G02*
X179350056Y-150350000I0J949908D01*
G01*
X81668764Y-165550600D02*
X80640918Y-165550600D01*
X117650002Y-150349992D02*
G75*
G02*
X116700002Y-151299930I-949938J0D01*
G01*
X59549964Y-122512500D02*
G75*
G02*
X60500004Y-123472627I-100J-950192D01*
G01*
X156788502Y-175586583D02*
X156788502Y-179650166D01*
X116699864Y-136800000D02*
G75*
G02*
X117650004Y-137760127I0J-950192D01*
G01*
X252038502Y-175586583D02*
X252038502Y-181451716D01*
X46961596Y-122512500D02*
X59549964Y-122512500D01*
X88125002Y-132250000D02*
X75524964Y-132250000D01*
X46949964Y-137012500D02*
G75*
G02*
X46000056Y-136062500I0J949908D01*
G01*
X299374096Y-98700000D02*
X311962464Y-98700000D01*
X235762464Y-174900000D02*
G75*
G02*
X236712504Y-175860127I-100J-950192D01*
G01*
X341955402Y-151819800D02*
X341955402Y-151017267D01*
X98387502Y-131300000D02*
X98387502Y-118699992D01*
X236712502Y-184649192D02*
X236712502Y-188449992D01*
X112887502Y-131299992D02*
G75*
G02*
X111937502Y-132249930I-949938J0D01*
G01*
X49600002Y-180449992D02*
G75*
G02*
X50561596Y-179499999I950162J-100D01*
G01*
X130987502Y-132250000D02*
X118387464Y-132250000D01*
X376674864Y-95000000D02*
G75*
G02*
X378525004Y-96864095I0J-1850192D01*
G01*
X136487502Y-131300000D02*
X136487502Y-118699992D01*
X203375002Y-169399992D02*
G75*
G02*
X202425002Y-170349930I-949938J0D01*
G01*
X292218764Y-189400000D02*
G75*
G02*
X291268756Y-188449992I0J950008D01*
G01*
X104111596Y-136800000D02*
X116699864Y-136800000D01*
X150987502Y-131299992D02*
G75*
G02*
X150037502Y-132249930I-949938J0D01*
G01*
X246712502Y-174599192D02*
G75*
G02*
X247065109Y-174249240I349962J0D01*
G01*
X150987502Y-118710127D02*
X150987502Y-131299992D01*
X145274964Y-155850000D02*
G75*
G02*
X146225004Y-156810127I-100J-950192D01*
G01*
X150037464Y-117750000D02*
G75*
G02*
X150987504Y-118710127I-100J-950192D01*
G01*
X112887502Y-118710127D02*
X112887502Y-131299992D01*
X137449096Y-117750000D02*
X150037464Y-117750000D01*
X117437502Y-131300000D02*
X117437502Y-118699992D01*
X341905264Y-150969500D02*
G75*
G02*
X341955397Y-151017267I0J-50192D01*
G01*
X193637502Y-131300000D02*
X193637502Y-118699992D01*
X56900002Y-171162492D02*
G75*
G02*
X55950002Y-172112430I-949938J0D01*
G01*
X345205802Y-152169800D02*
X342305364Y-152169800D01*
X155537502Y-118699992D02*
G75*
G02*
X156499096Y-117749999I950162J-100D01*
G01*
X169087502Y-132250000D02*
X156487464Y-132250000D01*
X156788502Y-184649192D02*
X156788502Y-187479392D01*
X335374752Y-163799492D02*
X335374752Y-169669492D01*
X123161596Y-174900000D02*
X135749864Y-174900000D01*
X193162502Y-174599292D02*
X193162502Y-175180400D01*
X189087502Y-131299992D02*
G75*
G02*
X188137502Y-132249930I-949938J0D01*
G01*
X316781364Y-150969500D02*
G75*
G02*
X316431456Y-150619500I0J349908D01*
G01*
X212687502Y-118699992D02*
G75*
G02*
X213649096Y-117749999I950162J-100D01*
G01*
X188137502Y-132250000D02*
X175537464Y-132250000D01*
X226237502Y-132250000D02*
X213637464Y-132250000D01*
X170037502Y-131299992D02*
G75*
G02*
X169087502Y-132249930I-949938J0D01*
G01*
X260525002Y-156810127D02*
X260525002Y-169399992D01*
X246237502Y-118710127D02*
X246237502Y-131299992D01*
X195713486Y-181850492D02*
X195713502Y-181850492D01*
X264337502Y-132250000D02*
X251737464Y-132250000D01*
X49600002Y-177506292D02*
X49600002Y-174106392D01*
X312649864Y-165550600D02*
X311623350Y-165550600D01*
X179612464Y-179699360D02*
X187788502Y-179699360D01*
X269837502Y-118699992D02*
G75*
G02*
X270799096Y-117749999I950162J-100D01*
G01*
X231950002Y-150349992D02*
G75*
G02*
X231000002Y-151299930I-949938J0D01*
G01*
X288887502Y-118699992D02*
G75*
G02*
X289849096Y-117749999I950162J-100D01*
G01*
X74768174Y-196575000D02*
G75*
G02*
X69831830Y-196575000I-2468172J1425000D01*
G01*
X303387502Y-131299992D02*
G75*
G02*
X302437502Y-132249930I-949938J0D01*
G01*
X169099321Y-194751049D02*
G75*
G02*
X168498288Y-194999974I-600957J600957D01*
G01*
X169087464Y-117750000D02*
G75*
G02*
X170037504Y-118710127I-100J-950192D01*
G01*
X289849096Y-117750000D02*
X302437464Y-117750000D01*
X155062416Y-174599292D02*
X155062502Y-174599292D01*
X174587502Y-131300000D02*
X174587502Y-118699992D01*
X99017764Y-170019500D02*
X97693964Y-170019500D01*
X323130964Y-138370500D02*
G75*
G02*
X323481005Y-138726683I-100J-350192D01*
G01*
X347756464Y-141600700D02*
G75*
G02*
X348106505Y-141956883I-100J-350192D01*
G01*
X252863486Y-181850492D02*
X252863502Y-181850492D01*
X323481002Y-146550692D02*
G75*
G02*
X323528418Y-146500605I50162J0D01*
G01*
X322437502Y-131299992D02*
G75*
G02*
X321487502Y-132249930I-949938J0D01*
G01*
X316431402Y-150619500D02*
X316431402Y-144747267D01*
X270799096Y-117750000D02*
X283387464Y-117750000D01*
X251000002Y-150349992D02*
G75*
G02*
X250050002Y-151299930I-949938J0D01*
G01*
X332711596Y-117750000D02*
X345299964Y-117750000D01*
X315955932Y-141600700D02*
X316381402Y-141600700D01*
X165062502Y-179649392D02*
G75*
G02*
X165012502Y-179699330I-49938J0D01*
G01*
X330049156Y-170869792D02*
X330049152Y-170869792D01*
X105219002Y-163399492D02*
G75*
G02*
X104869002Y-163749430I-349938J0D01*
G01*
X308887464Y-132250000D02*
G75*
G02*
X307937556Y-131300000I0J949908D01*
G01*
X104869002Y-163749500D02*
X104440918Y-163749500D01*
X231361453Y-94663181D02*
X232675753Y-93348881D01*
X361286596Y-117750000D02*
X373874864Y-117750000D01*
X302437502Y-132250000D02*
X289837464Y-132250000D01*
X245287502Y-132250000D02*
X232687464Y-132250000D01*
X312700002Y-156799992D02*
G75*
G02*
X313661596Y-155849999I950162J-100D01*
G01*
X194587464Y-132250000D02*
G75*
G02*
X193637556Y-131300000I0J949908D01*
G01*
X156487464Y-132250000D02*
G75*
G02*
X155537556Y-131300000I0J949908D01*
G01*
X206412364Y-184599230D02*
G75*
G02*
X206062500Y-184242000I100J350038D01*
G01*
X306200464Y-170019500D02*
G75*
G02*
X306250443Y-170068353I0J-49992D01*
G01*
X198400002Y-150350000D02*
X198400002Y-137749992D01*
X99349096Y-117750000D02*
X111937364Y-117750000D01*
X206838464Y-184599230D02*
G75*
G02*
X206888426Y-184649292I0J-49962D01*
G01*
X323481002Y-150619492D02*
G75*
G02*
X323131002Y-150969430I-349938J0D01*
G01*
X360325002Y-99650092D02*
G75*
G02*
X361286596Y-98699999I950162J0D01*
G01*
X73149928Y-174900000D02*
X85743764Y-174900000D01*
X156838464Y-179699360D02*
X165012502Y-179699360D01*
X161261596Y-136800000D02*
X173849864Y-136800000D01*
X374825002Y-112249992D02*
G75*
G02*
X373875002Y-113199930I-949938J0D01*
G01*
X193162416Y-174599292D02*
X193162502Y-174599292D01*
X252088464Y-181500470D02*
X252513464Y-181500470D01*
X373874964Y-98700000D02*
G75*
G02*
X374825004Y-99660127I-100J-950192D01*
G01*
X345300002Y-132250000D02*
X332699964Y-132250000D01*
X283522908Y-193436836D02*
G75*
G02*
X284328581Y-193099959I813356J-813356D01*
G01*
X80643464Y-160650700D02*
G75*
G02*
X80593556Y-160600700I0J49908D01*
G01*
X331750002Y-118700092D02*
G75*
G02*
X332711596Y-117749999I950162J0D01*
G01*
X54335764Y-193100000D02*
X44149964Y-193100000D01*
X180311596Y-136800000D02*
X192899964Y-136800000D01*
X335424764Y-160650700D02*
G75*
G02*
X335374756Y-160600692I0J50008D01*
G01*
X336512502Y-99649992D02*
G75*
G02*
X337474096Y-98699999I950162J-100D01*
G01*
X49600002Y-171162500D02*
X49600002Y-167762492D01*
X174800002Y-150349992D02*
G75*
G02*
X173850002Y-151299930I-949938J0D01*
G01*
X374825002Y-118710127D02*
X374825002Y-131299992D01*
X337474096Y-98700000D02*
X350062364Y-98700000D01*
X103150002Y-150350000D02*
X103150002Y-137749992D01*
X244988502Y-175580392D02*
G75*
G02*
X245345564Y-175230398I350162J-100D01*
G01*
X142199964Y-151300000D02*
G75*
G02*
X141250056Y-150350000I0J949908D01*
G01*
X236500002Y-137749992D02*
G75*
G02*
X237461596Y-136799999I950162J-100D01*
G01*
X222425002Y-156810127D02*
X222425002Y-169399992D01*
X160300002Y-150350000D02*
X160300002Y-137749992D01*
X55949964Y-166812500D02*
G75*
G02*
X56900004Y-167772627I-100J-950192D01*
G01*
X160319329Y-91525000D02*
G75*
G02*
X165255675Y-91525000I2468173J-1425000D01*
G01*
X346250002Y-118710127D02*
X346250002Y-131299992D01*
X317462502Y-99649992D02*
G75*
G02*
X318424096Y-98699999I950162J-100D01*
G01*
X321487364Y-117750000D02*
G75*
G02*
X322437504Y-118710127I0J-950192D01*
G01*
X304475164Y-163749500D02*
G75*
G02*
X304525156Y-163799492I0J-49992D01*
G01*
X117438864Y-193100000D02*
G75*
G02*
X118247353Y-193432110I-100J-1150392D01*
G01*
X292224928Y-174900000D02*
X304818764Y-174900000D01*
X374825002Y-131299992D02*
G75*
G02*
X373875002Y-132249930I-949938J0D01*
G01*
X244988502Y-187472200D02*
X244988502Y-184649292D01*
X110506252Y-188449992D02*
G75*
G02*
X109556252Y-189399980I-949988J0D01*
G01*
X236712502Y-188449992D02*
G75*
G02*
X235762502Y-189399930I-949938J0D01*
G01*
X80243464Y-157420500D02*
G75*
G02*
X80593505Y-157776683I-100J-350192D01*
G01*
X95268752Y-170350000D02*
X82668764Y-170350000D01*
X298412502Y-112250000D02*
X298412502Y-99649992D01*
X211950002Y-151300000D02*
X199349964Y-151300000D01*
X322437502Y-118710127D02*
X322437502Y-131299992D01*
X213588464Y-175230400D02*
G75*
G02*
X213938505Y-175586583I-100J-350192D01*
G01*
X373875002Y-113200000D02*
X361274964Y-113200000D01*
X279362502Y-99649992D02*
G75*
G02*
X280324096Y-98699999I950162J-100D01*
G01*
X141250002Y-150350000D02*
X141250002Y-137749992D01*
X328325252Y-160600692D02*
X328325252Y-157770492D01*
X46000002Y-123462492D02*
G75*
G02*
X46961596Y-122512499I950162J-100D01*
G01*
X142211596Y-136800000D02*
X154799964Y-136800000D01*
X102668302Y-170069592D02*
G75*
G02*
X102715718Y-170019505I50162J0D01*
G01*
X294599964Y-151300000D02*
G75*
G02*
X293650056Y-150350000I0J949908D01*
G01*
X80593502Y-165600692D02*
G75*
G02*
X80640918Y-165550605I50162J0D01*
G01*
X346931002Y-150969500D02*
X345603218Y-150969500D01*
X279362502Y-112250000D02*
X279362502Y-99649992D01*
X193850002Y-150349992D02*
G75*
G02*
X192900002Y-151299930I-949938J0D01*
G01*
X233283050Y-93100000D02*
X252841349Y-93100000D01*
X264337364Y-117750000D02*
G75*
G02*
X265287504Y-118710127I0J-950192D01*
G01*
X117650002Y-137760127D02*
X117650002Y-150349992D01*
X280312464Y-113200000D02*
G75*
G02*
X279362556Y-112250000I0J949908D01*
G01*
X350993174Y-196575000D02*
G75*
G02*
X346056828Y-196575000I-2468173J1425000D01*
G01*
X311574752Y-157770492D02*
X311574752Y-160600692D01*
X292912502Y-113200000D02*
X280312464Y-113200000D01*
X78868202Y-170869792D02*
G75*
G02*
X78518202Y-171219730I-349938J0D01*
G01*
X149262364Y-184599230D02*
G75*
G02*
X148912500Y-184242000I100J350038D01*
G01*
X293862502Y-112249992D02*
G75*
G02*
X292912502Y-113199930I-949938J0D01*
G01*
X126224964Y-155850000D02*
G75*
G02*
X127175004Y-156810127I-100J-950192D01*
G01*
X333649552Y-170869792D02*
G75*
G02*
X333299552Y-171219780I-349988J0D01*
G01*
X361274964Y-113200000D02*
G75*
G02*
X360325056Y-112250000I0J949908D01*
G01*
X330560764Y-193100000D02*
G75*
G02*
X331370799Y-193433623I0J-1150192D01*
G01*
X59550002Y-137012500D02*
X46949964Y-137012500D01*
X60500002Y-142522627D02*
X60500002Y-155112492D01*
X293862502Y-99660127D02*
X293862502Y-112249992D01*
X365676120Y-193436749D02*
G75*
G02*
X366481582Y-193099959I813144J-813143D01*
G01*
X193850002Y-137760127D02*
X193850002Y-150349992D01*
X283402128Y-93351758D02*
X284718525Y-94668156D01*
X67103864Y-195000000D02*
X57064164Y-195000000D01*
X56458922Y-194746788D02*
X55145778Y-193433644D01*
X261262464Y-113200000D02*
G75*
G02*
X260312556Y-112250000I0J949908D01*
G01*
X165062502Y-179649392D02*
X165062502Y-175849992D01*
X241262502Y-112250000D02*
X241262502Y-99649992D01*
X336512502Y-112250000D02*
X336512502Y-99649992D01*
X373874864Y-117750000D02*
G75*
G02*
X374825004Y-118710127I0J-950192D01*
G01*
X217450002Y-137749992D02*
G75*
G02*
X218411596Y-136799999I950162J-100D01*
G01*
X350062502Y-113200000D02*
X337462464Y-113200000D01*
X274600002Y-137749992D02*
G75*
G02*
X275561596Y-136799999I950162J-100D01*
G01*
X260312502Y-112250000D02*
X260312502Y-99649992D01*
X284337502Y-118710127D02*
X284337502Y-131299992D01*
X88124964Y-117750000D02*
G75*
G02*
X89075004Y-118710127I-100J-950192D01*
G01*
X312700002Y-169400000D02*
X312700002Y-165598367D01*
X255762502Y-112249992D02*
G75*
G02*
X254812502Y-113199930I-949938J0D01*
G01*
X351012502Y-112249992D02*
G75*
G02*
X350062502Y-113199930I-949938J0D01*
G01*
X327249964Y-160650700D02*
X328275252Y-160650700D01*
X188875002Y-156799992D02*
G75*
G02*
X189836596Y-155849999I950162J-100D01*
G01*
X247065109Y-174249240D02*
X249962364Y-174249240D01*
X206888426Y-184649292D02*
X206888502Y-184649292D01*
X76715064Y-94999992D02*
X76715064Y-95000000D01*
X254812464Y-98700000D02*
G75*
G02*
X255762504Y-99660127I-100J-950192D01*
G01*
X298412502Y-99649992D02*
G75*
G02*
X299374096Y-98699999I950162J-100D01*
G01*
X322225002Y-175849992D02*
G75*
G02*
X323186596Y-174899999I950162J-100D01*
G01*
X343328864Y-195000000D02*
X333289164Y-195000000D01*
X72193752Y-175849992D02*
G75*
G02*
X73149928Y-174900000I950012J0D01*
G01*
X242224096Y-98700000D02*
X254812464Y-98700000D01*
X335850264Y-160650700D02*
G75*
G02*
X336200256Y-161000692I0J-349992D01*
G01*
X283387464Y-117750000D02*
G75*
G02*
X284337504Y-118710127I-100J-950192D01*
G01*
X250787502Y-118699992D02*
G75*
G02*
X251749096Y-117749999I950162J-100D01*
G01*
X283387502Y-132250000D02*
X270787464Y-132250000D01*
X342224964Y-170350000D02*
G75*
G02*
X341275056Y-169400000I0J949908D01*
G01*
X261274096Y-98700000D02*
X273862464Y-98700000D01*
X311962502Y-113200000D02*
X299362464Y-113200000D01*
X360325002Y-118699992D02*
G75*
G02*
X361286596Y-117749999I950162J-100D01*
G01*
X198400002Y-137749992D02*
G75*
G02*
X199361596Y-136799999I950162J-100D01*
G01*
X99417864Y-171219800D02*
G75*
G02*
X99067956Y-170869800I0J349908D01*
G01*
X318412464Y-113200000D02*
G75*
G02*
X317462556Y-112250000I0J949908D01*
G01*
X188188364Y-187829430D02*
G75*
G02*
X187838500Y-187472200I100J350038D01*
G01*
X236762464Y-179699360D02*
X244938502Y-179699360D01*
X167983664Y-93100000D02*
X187548264Y-93100000D01*
X246712502Y-175180392D02*
X246712502Y-174599192D01*
X232699096Y-117750000D02*
X245287464Y-117750000D01*
X174587502Y-118699992D02*
G75*
G02*
X175549096Y-117749999I950162J-100D01*
G01*
X227187502Y-118710127D02*
X227187502Y-131299992D01*
X236712502Y-175860127D02*
X236712502Y-179650166D01*
X235762464Y-98700000D02*
G75*
G02*
X236712504Y-99660127I-100J-950192D01*
G01*
X77835579Y-93591250D02*
G75*
G02*
X76715064Y-94999993I-1120515J-258742D01*
G01*
X308150002Y-150349992D02*
G75*
G02*
X307200002Y-151299930I-949938J0D01*
G01*
X174800002Y-137760127D02*
X174800002Y-150349992D01*
X269100002Y-151300000D02*
X256499964Y-151300000D01*
X223162464Y-113200000D02*
G75*
G02*
X222212556Y-112250000I0J949908D01*
G01*
X304525152Y-169669492D02*
X304525152Y-163799492D01*
X212212416Y-174599292D02*
X212212502Y-174599292D01*
X204112464Y-113200000D02*
G75*
G02*
X203162556Y-112250000I0J949908D01*
G01*
X203162502Y-99649992D02*
G75*
G02*
X204124096Y-98699999I950162J-100D01*
G01*
X217662502Y-99660127D02*
X217662502Y-112249992D01*
X254812502Y-113200000D02*
X242212464Y-113200000D01*
X192899964Y-136800000D02*
G75*
G02*
X193850004Y-137760127I-100J-950192D01*
G01*
X345299964Y-117750000D02*
G75*
G02*
X346250004Y-118710127I-100J-950192D01*
G01*
X269837502Y-131300000D02*
X269837502Y-118699992D01*
X311624764Y-160650700D02*
G75*
G02*
X311574756Y-160600692I0J50008D01*
G01*
X184112502Y-99649992D02*
G75*
G02*
X185074096Y-98699999I950162J-100D01*
G01*
X104393502Y-157776683D02*
X104393502Y-160600700D01*
X332683922Y-194746788D02*
X331370778Y-193433644D01*
X282208709Y-194751036D02*
G75*
G02*
X281607664Y-194999997I-601045J601044D01*
G01*
X184112502Y-112250000D02*
X184112502Y-99649992D01*
X178612464Y-98700000D02*
G75*
G02*
X179562504Y-99660127I-100J-950192D01*
G01*
X96268764Y-160650700D02*
G75*
G02*
X96218756Y-160600692I0J50008D01*
G01*
X226975002Y-156800092D02*
G75*
G02*
X227936596Y-155849999I950162J0D01*
G01*
X50550064Y-173156250D02*
X55949964Y-173156250D01*
X56900002Y-174106292D02*
X56900002Y-177506392D01*
X80593502Y-169669492D02*
G75*
G02*
X80243502Y-170019430I-349938J0D01*
G01*
X74768174Y-196575000D02*
G75*
G02*
X77487115Y-195000000I2727990J-1574992D01*
G01*
X236712502Y-99660127D02*
X236712502Y-112249992D01*
X141462502Y-112249992D02*
G75*
G02*
X140512502Y-113199930I-949938J0D01*
G01*
X165062502Y-112250000D02*
X165062502Y-99649992D01*
X78518202Y-171219800D02*
X75619164Y-171219800D01*
X187838502Y-175580392D02*
G75*
G02*
X188195564Y-175230398I350162J-100D01*
G01*
X135749964Y-136800000D02*
G75*
G02*
X136700004Y-137760127I-100J-950192D01*
G01*
X223174096Y-98700000D02*
X235762464Y-98700000D01*
X199361596Y-136800000D02*
X211949864Y-136800000D01*
X102668302Y-170069592D02*
X102668302Y-170869792D01*
X318106564Y-150969500D02*
G75*
G02*
X318156688Y-151017081I0J-50192D01*
G01*
X88136821Y-194751049D02*
G75*
G02*
X87535788Y-194999974I-600957J600957D01*
G01*
X151736596Y-155850000D02*
X164324864Y-155850000D01*
X55949964Y-173156250D02*
G75*
G02*
X56900006Y-174106292I0J-950042D01*
G01*
X73893864Y-170019500D02*
G75*
G02*
X73543956Y-169669500I0J349908D01*
G01*
X354824964Y-155850000D02*
G75*
G02*
X355775004Y-156810127I-100J-950192D01*
G01*
X69812502Y-112250000D02*
X69812502Y-99649992D01*
X135750002Y-189400000D02*
X123149964Y-189400000D01*
X108874096Y-98700000D02*
X121462464Y-98700000D01*
X246974964Y-170350000D02*
G75*
G02*
X246025056Y-169400000I0J949908D01*
G01*
X204124096Y-98700000D02*
X216712464Y-98700000D01*
X355775002Y-175860127D02*
X355775002Y-188449992D01*
X231737502Y-118699992D02*
G75*
G02*
X232699096Y-117749999I950162J-100D01*
G01*
X83362502Y-113200000D02*
X70762464Y-113200000D01*
X102412502Y-113200000D02*
X89812464Y-113200000D01*
X70762464Y-113200000D02*
G75*
G02*
X69812556Y-112250000I0J949908D01*
G01*
X84312502Y-112249992D02*
G75*
G02*
X83362502Y-113199930I-949938J0D01*
G01*
X169825002Y-156799992D02*
G75*
G02*
X170786596Y-155849999I950162J-100D01*
G01*
X244938464Y-184599230D02*
G75*
G02*
X244988426Y-184649292I0J-49962D01*
G01*
X160300002Y-137749992D02*
G75*
G02*
X161261596Y-136799999I950162J-100D01*
G01*
X50550064Y-173156330D02*
X50550064Y-173156250D01*
X73543902Y-157770492D02*
G75*
G02*
X73900964Y-157420498I350162J-100D01*
G01*
X97344002Y-157770492D02*
G75*
G02*
X97701064Y-157420498I350162J-100D01*
G01*
X252513464Y-184599230D02*
X252088464Y-184599230D01*
X360325002Y-131300000D02*
X360325002Y-118699992D01*
X206888502Y-187472200D02*
X206888502Y-184649292D01*
X122200002Y-175849992D02*
G75*
G02*
X123161596Y-174899999I950162J-100D01*
G01*
X91456252Y-137749992D02*
X91456252Y-150349992D01*
X46000002Y-99650092D02*
G75*
G02*
X46961596Y-98699999I950162J0D01*
G01*
X304525152Y-157770492D02*
G75*
G02*
X304878905Y-157420500I350012J0D01*
G01*
X288887502Y-131300000D02*
X288887502Y-118699992D01*
X127924096Y-98700000D02*
X140512464Y-98700000D01*
X307199964Y-136800000D02*
G75*
G02*
X308150004Y-137760127I-100J-950192D01*
G01*
X242212464Y-113200000D02*
G75*
G02*
X241262556Y-112250000I0J949908D01*
G01*
X49600002Y-167762492D02*
G75*
G02*
X50561596Y-166812499I950162J-100D01*
G01*
X339156264Y-141600700D02*
G75*
G02*
X339106256Y-141550692I0J50008D01*
G01*
X85195064Y-93100000D02*
G75*
G02*
X83224609Y-91809983I0J2149908D01*
G01*
X302437464Y-117750000D02*
G75*
G02*
X303387504Y-118710127I-100J-950192D01*
G01*
X246237502Y-131299992D02*
G75*
G02*
X245287502Y-132249930I-949938J0D01*
G01*
X312649864Y-165550600D02*
G75*
G02*
X312699997Y-165598367I0J-50192D01*
G01*
X160512502Y-99660127D02*
X160512502Y-112249992D01*
X198612502Y-112249992D02*
G75*
G02*
X197662502Y-113199930I-949938J0D01*
G01*
X96956264Y-189400000D02*
G75*
G02*
X96006256Y-188449992I0J950008D01*
G01*
X291268752Y-175849992D02*
G75*
G02*
X292224928Y-174900000I950012J0D01*
G01*
X126962502Y-112250000D02*
X126962502Y-99649992D01*
X146974096Y-98700000D02*
X159562464Y-98700000D01*
X179562502Y-112249992D02*
G75*
G02*
X178612502Y-113199930I-949938J0D01*
G01*
X306600464Y-171219800D02*
G75*
G02*
X306250456Y-170869792I0J350008D01*
G01*
X69812502Y-99649992D02*
G75*
G02*
X70774096Y-98699999I950162J-100D01*
G01*
X135749864Y-174900000D02*
G75*
G02*
X136700004Y-175860127I0J-950192D01*
G01*
X107912502Y-99649992D02*
G75*
G02*
X108874096Y-98699999I950162J-100D01*
G01*
X175549096Y-117750000D02*
X188137364Y-117750000D01*
X335374752Y-163799492D02*
G75*
G02*
X335423350Y-163749500I50012J0D01*
G01*
X104868964Y-160650700D02*
G75*
G02*
X105219005Y-161006883I-100J-350192D01*
G01*
X164325002Y-170350000D02*
X151724964Y-170350000D01*
X250312416Y-174599292D02*
X250312502Y-174599292D01*
X149738502Y-181450492D02*
X149738502Y-175580392D01*
X46000002Y-112250000D02*
X46000002Y-99650092D01*
X73068464Y-163749500D02*
G75*
G02*
X72718456Y-163399492I0J350008D01*
G01*
X197662502Y-113200000D02*
X185062464Y-113200000D01*
X346930964Y-138370500D02*
G75*
G02*
X347281005Y-138726683I-100J-350192D01*
G01*
X321755702Y-151819792D02*
G75*
G02*
X321405702Y-152169730I-349938J0D01*
G01*
X347281002Y-144749592D02*
G75*
G02*
X347328418Y-144699505I50162J0D01*
G01*
X46961596Y-98700000D02*
X59549964Y-98700000D01*
X127912464Y-113200000D02*
G75*
G02*
X126962556Y-112250000I0J949908D01*
G01*
X324606252Y-141550692D02*
G75*
G02*
X324556252Y-141600680I-49988J0D01*
G01*
X252038502Y-184649192D02*
X252038502Y-187479392D01*
X103362502Y-99660127D02*
X103362502Y-112249992D01*
X46961596Y-141562500D02*
X59549964Y-141562500D01*
X227936596Y-155850000D02*
X240524964Y-155850000D01*
X75219064Y-170019500D02*
G75*
G02*
X75269188Y-170067081I0J-50192D01*
G01*
X207238364Y-187829430D02*
G75*
G02*
X206888500Y-187472200I100J350038D01*
G01*
X88862502Y-112250000D02*
X88862502Y-99649992D01*
X141462502Y-99660127D02*
X141462502Y-112249992D01*
X137437464Y-132250000D02*
G75*
G02*
X136487556Y-131300000I0J949908D01*
G01*
X336725002Y-188449992D02*
G75*
G02*
X335775002Y-189399930I-949938J0D01*
G01*
X141815627Y-195150000D02*
G75*
G02*
X138515627Y-195150000I-1650000J0D01*
G01*
X138515627Y-195150000D02*
G75*
G02*
X141815627Y-195150000I1650000J0D01*
G01*
X104099964Y-151300000D02*
G75*
G02*
X103150056Y-150350000I0J949908D01*
G01*
X103362502Y-112249992D02*
G75*
G02*
X102412502Y-113199930I-949938J0D01*
G01*
X284337502Y-131299992D02*
G75*
G02*
X283387502Y-132249930I-949938J0D01*
G01*
X46000002Y-142512492D02*
G75*
G02*
X46961596Y-141562499I950162J-100D01*
G01*
X333299552Y-171219800D02*
X330399164Y-171219800D01*
X329999164Y-170019500D02*
X328675264Y-170019500D01*
X265287502Y-118710127D02*
X265287502Y-131299992D01*
X59550002Y-113200000D02*
X46949964Y-113200000D01*
X179612464Y-179699360D02*
G75*
G02*
X179562502Y-179650166I0J49968D01*
G01*
X148912502Y-181850492D02*
G75*
G02*
X149267855Y-181500468I350162J-100D01*
G01*
X122412502Y-112249992D02*
G75*
G02*
X121462502Y-113199930I-949938J0D01*
G01*
X279575002Y-188449992D02*
G75*
G02*
X278625002Y-189399930I-949938J0D01*
G01*
X341862502Y-92950000D02*
G75*
G02*
X338562502Y-92950000I-1650000J0D01*
G01*
X338562502Y-92950000D02*
G75*
G02*
X341862502Y-92950000I1650000J0D01*
G01*
X148912502Y-184242000D02*
X148912502Y-181850492D01*
X165062426Y-184649292D02*
X165062502Y-184649292D01*
X222212502Y-112250000D02*
X222212502Y-99649992D01*
X107912502Y-112250000D02*
X107912502Y-99649992D01*
X189087502Y-118710127D02*
X189087502Y-131299992D01*
X304049664Y-163749500D02*
G75*
G02*
X303699681Y-163395309I0J350008D01*
G01*
X146225002Y-156810127D02*
X146225002Y-169399992D01*
X244988502Y-179649392D02*
G75*
G02*
X244938502Y-179699330I-49938J0D01*
G01*
X328675264Y-170019500D02*
G75*
G02*
X328325256Y-169669492I0J350008D01*
G01*
X50549964Y-184800000D02*
G75*
G02*
X49600056Y-183850000I0J949908D01*
G01*
X111937364Y-117750000D02*
G75*
G02*
X112887504Y-118710127I0J-950192D01*
G01*
X149688464Y-184599230D02*
G75*
G02*
X149738426Y-184649292I0J-49962D01*
G01*
X98387502Y-118699992D02*
G75*
G02*
X99349096Y-117749999I950162J-100D01*
G01*
X340231502Y-150619500D02*
X340231502Y-146548367D01*
X339106252Y-150349992D02*
G75*
G02*
X338156252Y-151299980I-949988J0D01*
G01*
X83362364Y-98700000D02*
G75*
G02*
X84312504Y-99660127I0J-950192D01*
G01*
X212687502Y-131300000D02*
X212687502Y-118699992D01*
X304818764Y-174900000D02*
G75*
G02*
X305768756Y-175849992I0J-949992D01*
G01*
X82262502Y-92950000D02*
G75*
G02*
X78962502Y-92950000I-1650000J0D01*
G01*
X78962502Y-92950000D02*
G75*
G02*
X82262502Y-92950000I1650000J0D01*
G01*
X70774096Y-98700000D02*
X83362364Y-98700000D01*
X96218752Y-169399992D02*
G75*
G02*
X95268752Y-170349980I-949988J0D01*
G01*
X260525002Y-169399992D02*
G75*
G02*
X259575002Y-170349930I-949938J0D01*
G01*
X263259377Y-195150000D02*
G75*
G02*
X259959377Y-195150000I-1650000J0D01*
G01*
X259959377Y-195150000D02*
G75*
G02*
X263259377Y-195150000I1650000J0D01*
G01*
X118387464Y-132250000D02*
G75*
G02*
X117437556Y-131300000I0J949908D01*
G01*
X150775002Y-169400000D02*
X150775002Y-156799992D01*
X213938502Y-184649192D02*
G75*
G02*
X213988464Y-184599230I49962J0D01*
G01*
M02*
